<svg width="48" height="60" viewBox="0 0 48 60" fill="none" xmlns="http://www.w3.org/2000/svg">
<g clip-path="url(#clip0_3977_60360)">
<path d="M30.323 12C31.3774 12.0001 32.4066 12.3222 33.2729 12.9233C34.1391 13.5245 34.8011 14.3758 35.1702 15.3635C35.5393 16.3512 35.5979 17.4281 35.3381 18.45C35.0783 19.4719 34.5126 20.39 33.7167 21.0816C34.1356 22.2246 34.3493 23.4326 34.348 24.65C34.348 26.0092 34.0803 27.3551 33.5602 28.6108C33.04 29.8665 32.2776 31.0075 31.3166 31.9686C30.3555 32.9296 29.2145 33.692 27.9588 34.2122C26.7031 34.7323 25.3572 35 23.998 35C22.6388 35 21.293 34.7323 20.0372 34.2122C18.7815 33.692 17.6405 32.9296 16.6795 31.9686C15.7184 31.0075 14.956 29.8665 14.4359 28.6108C13.9157 27.3551 13.648 26.0092 13.648 24.65C13.648 23.3965 13.8711 22.1936 14.2805 21.0816C13.7171 20.592 13.2663 19.9863 12.959 19.3061C12.6517 18.6259 12.4951 17.8872 12.5001 17.1408C12.5051 16.3944 12.6715 15.6579 12.9879 14.9819C13.3042 14.3059 13.7631 13.7063 14.333 13.2242C14.9029 12.7422 15.5703 12.3892 16.2895 12.1893C17.0086 11.9895 17.7625 11.9476 18.4994 12.0665C19.2363 12.1854 19.9387 12.4623 20.5585 12.8782C21.1783 13.2941 21.7008 13.8391 22.0902 14.476C23.3519 14.2405 24.6464 14.2405 25.9082 14.476C26.3699 13.7193 27.0186 13.0941 27.7917 12.6605C28.5649 12.2269 29.4366 11.9994 30.323 12Z" fill="#4A4D63"/>
</g>
<path d="M5.214 50.35H0.715V44.146H5.214V50.35ZM4.378 49.657V44.839H1.551V49.657H4.378ZM9.383 47.732H7.81V52.77H6.974V43.156H7.81V47.028H9.383V47.732ZM17.8446 52.77H17.0086V43.156H17.8446V52.77ZM10.2546 47.27C10.2546 45.246 11.1566 43.882 12.7296 43.882C14.3246 43.882 15.2156 45.246 15.2156 47.281C15.2156 49.316 14.3246 50.68 12.7296 50.68C11.1566 50.68 10.2546 49.316 10.2546 47.27ZM14.4236 47.281C14.4236 45.697 13.7526 44.608 12.7296 44.608C11.7176 44.608 11.0466 45.697 11.0466 47.281C11.0466 48.854 11.7176 49.954 12.7296 49.954C13.7526 49.954 14.4236 48.854 14.4236 47.281ZM24.2272 50.097C23.7102 50.174 22.8632 50.251 22.0162 50.295C21.1252 50.35 20.2782 50.383 19.4642 50.383L19.3322 49.657H20.3992L20.1132 45.686L20.9492 45.576C21.0152 46.929 21.1142 48.282 21.1912 49.635L21.9612 49.602C22.0272 49.602 22.0932 49.602 22.1702 49.591C22.2472 48.26 22.3352 46.907 22.4232 45.576L23.2592 45.664C23.1492 46.951 23.0392 48.249 22.9072 49.547C23.3802 49.503 23.8092 49.47 24.1502 49.415C24.1722 49.646 24.1942 49.866 24.2272 50.097ZM25.7672 52.275H24.9532V47.545H23.6332V46.852H24.9532V43.387H25.7672V52.275ZM27.5602 52.77H26.7352V43.156H27.5602V52.77ZM23.9192 45.048H19.5742V44.355H23.9192V45.048ZM36.8797 52.77H36.0437V43.156H36.8797V52.77ZM29.2897 47.27C29.2897 45.246 30.1917 43.882 31.7647 43.882C33.3597 43.882 34.2507 45.246 34.2507 47.281C34.2507 49.316 33.3597 50.68 31.7647 50.68C30.1917 50.68 29.2897 49.316 29.2897 47.27ZM33.4587 47.281C33.4587 45.697 32.7877 44.608 31.7647 44.608C30.7527 44.608 30.0817 45.697 30.0817 47.281C30.0817 48.854 30.7527 49.954 31.7647 49.954C32.7877 49.954 33.4587 48.854 33.4587 47.281ZM44.4283 49.855L43.9113 50.482C43.0093 49.899 41.7883 48.689 41.4583 47.556C41.1393 48.755 40.0833 49.987 38.9723 50.702L38.4553 50.086C39.8633 49.261 41.0183 47.622 41.0183 45.807V44.817H38.7743V44.124H44.1313V44.817H41.8873V45.796C41.8873 47.589 43.1083 49.14 44.4283 49.855ZM45.5393 43.156H46.3753V52.77H45.5393V43.156Z" fill="#4A4D63"/>
<defs>
<clipPath id="clip0_3977_60360">
<rect width="24" height="23" fill="white" transform="translate(12 12)"/>
</clipPath>
</defs>
</svg>
