<svg width="24" height="24" viewBox="0 0 24 24" fill="none" xmlns="http://www.w3.org/2000/svg">
<path d="M18.323 1C19.3774 1.00008 20.4066 1.32224 21.2729 1.92335C22.1391 2.52446 22.8011 3.37583 23.1702 4.36352C23.5393 5.35121 23.5979 6.42807 23.3381 7.44997C23.0783 8.47186 22.5126 9.39002 21.7167 10.0816C22.1356 11.2246 22.3493 12.4326 22.348 13.65C22.348 15.0092 22.0803 16.3551 21.5602 17.6108C21.04 18.8665 20.2776 20.0075 19.3166 20.9686C18.3555 21.9296 17.2145 22.692 15.9588 23.2122C14.7031 23.7323 13.3572 24 11.998 24C10.6388 24 9.29296 23.7323 8.03724 23.2122C6.78152 22.692 5.64054 21.9296 4.67945 20.9686C3.71837 20.0075 2.95599 18.8665 2.43586 17.6108C1.91572 16.3551 1.64801 15.0092 1.64801 13.65C1.64801 12.3965 1.87111 11.1936 2.28051 10.0816C1.71711 9.59195 1.26629 8.98627 0.958975 8.30606C0.651662 7.62585 0.495129 6.88721 0.500116 6.14082C0.505102 5.39443 0.671491 4.65795 0.987866 3.9819C1.30424 3.30586 1.76311 2.70626 2.33301 2.22423C2.9029 1.7422 3.57032 1.38916 4.28948 1.18932C5.00864 0.989481 5.76251 0.947576 6.49939 1.06648C7.23627 1.18539 7.9387 1.46229 8.55851 1.87818C9.17831 2.29408 9.70081 2.83914 10.0902 3.47595C11.3519 3.24051 12.6464 3.24051 13.9082 3.47595C14.3699 2.71927 15.0186 2.09409 15.7917 1.66048C16.5649 1.22688 17.4366 0.999432 18.323 1Z" fill="#23B877"/>
</svg>
