<svg width="376" height="378" viewBox="0 0 376 378" fill="none" xmlns="http://www.w3.org/2000/svg">
<g clip-path="url(#clip0_4968_62994)">
<g clip-path="url(#clip1_4968_62994)">
<mask id="path-1-inside-1_4968_62994" fill="white">
<path d="M61.5 30C61.5 18.9543 70.4543 10 81.5 10H295.5C306.546 10 315.5 18.9543 315.5 30V539.995C315.5 551.04 306.546 559.995 295.5 559.995H81.5C70.4543 559.995 61.5 551.04 61.5 539.995V30Z"/>
</mask>
<path d="M61.5 30C61.5 18.9543 70.4543 10 81.5 10H295.5C306.546 10 315.5 18.9543 315.5 30V539.995C315.5 551.04 306.546 559.995 295.5 559.995H81.5C70.4543 559.995 61.5 551.04 61.5 539.995V30Z" fill="#1D1F29"/>
<path d="M81.474 114.14H80.2954V107.577H81.474V114.14ZM81.6772 116.385H75.3983V113.49H76.5972V115.451H81.6772V116.385ZM74.2807 110.483C74.2807 109.202 75.2459 108.247 76.7292 108.247C78.2228 108.247 79.1778 109.202 79.1778 110.483C79.1778 111.783 78.2228 112.708 76.7292 112.708C75.2459 112.708 74.2807 111.783 74.2807 110.483ZM75.4999 110.483C75.4999 111.204 75.9672 111.732 76.7292 111.732C77.5116 111.732 77.9688 111.204 77.9688 110.483C77.9688 109.792 77.5116 109.263 76.7292 109.263C75.9672 109.263 75.4999 109.792 75.4999 110.483ZM89.8583 107.577V111.062H91.1588V112.037H89.8583V116.629H88.6798V107.577H89.8583ZM88.2327 113.581C87.9889 113.876 87.7755 114.171 87.5317 114.465C86.79 113.988 85.7435 112.921 85.4387 111.935C85.1441 112.962 84.2297 114.099 83.295 114.648C83.0511 114.353 82.8175 114.069 82.5635 113.785C84.0367 112.84 84.8088 111.387 84.8088 109.578V108.339H86.0382V109.517C86.0382 111.305 86.8611 112.708 88.2327 113.581ZM99.0555 116.629H97.877V107.577H99.0555V116.629ZM91.8318 111.438C91.8318 109.527 92.6954 108.196 94.1686 108.196C95.6519 108.196 96.5155 109.527 96.5155 111.438C96.5155 113.327 95.6519 114.658 94.1686 114.658C92.6954 114.658 91.8318 113.337 91.8318 111.438ZM95.3776 111.438C95.3776 110.005 94.8696 109.152 94.1686 109.152C93.4878 109.152 92.99 110.005 92.99 111.438C92.99 112.86 93.4878 113.703 94.1686 113.703C94.8696 113.703 95.3776 112.86 95.3776 111.438ZM107.308 111.173H102.594V112.159H107.613V113.094H101.415V108.288H107.521V109.223H102.594V110.239H107.308V111.173ZM108.547 114.557V115.491H100.369V114.557H108.547ZM117.338 112.586H109.159V111.712H117.338V112.586ZM116.505 116.528H110.196V114.425H115.113V113.947H110.155V113.094H116.292V115.207H111.384V115.674H116.505V116.528ZM116.434 111.234H110.236V109.182H115.042V108.704H110.216V107.861H116.241V109.924H111.425V110.391H116.434V111.234ZM127.68 107.577V111.021H128.981V112.007H127.68V116.629H126.492V107.577H127.68ZM125.882 113.998C124.795 114.293 122.864 114.425 121.787 114.425H120.965V108.481H122.143V113.409C123.403 113.409 124.795 113.287 125.76 113.053L125.882 113.998ZM130.985 110.32C130.985 110.991 131.472 111.509 132.285 111.509C133.108 111.509 133.596 110.991 133.596 110.32C133.596 109.68 133.108 109.162 132.285 109.162C131.472 109.162 130.985 109.68 130.985 110.32ZM137.05 107.577V116.629H135.872V107.577H137.05ZM129.765 110.33C129.765 109.06 130.761 108.156 132.285 108.156C133.819 108.156 134.795 109.06 134.795 110.33C134.795 111.59 133.819 112.504 132.285 112.504C130.761 112.504 129.765 111.59 129.765 110.33ZM135.496 114.313C134.632 114.425 133.403 114.526 132.438 114.577C131.432 114.618 130.355 114.658 129.593 114.648L129.42 113.632C130.467 113.632 131.34 113.622 132.366 113.581C133.494 113.541 134.591 113.459 135.394 113.358L135.496 114.313ZM148.347 113.612H147.169V111.031H145.492V110.025H147.169V107.577H148.347V113.612ZM148.815 115.796L148.256 116.731C147.067 116.518 145.746 115.654 145.32 114.811C144.923 115.664 143.653 116.518 142.363 116.731L141.804 115.776C143.389 115.583 144.73 114.618 144.73 113.378V112.982H145.939V113.378C145.939 114.618 147.291 115.542 148.815 115.796ZM145.482 108.278C145.421 110.797 143.857 112.515 141.489 113.236L140.88 112.281C142.516 111.946 143.989 110.716 144.202 109.263H141.307V108.278H145.482ZM157.839 115.441H149.66V114.506H157.839V115.441ZM157.077 110.564C157.077 111.946 155.767 112.911 153.755 112.911C151.753 112.911 150.433 111.946 150.433 110.564C150.433 109.182 151.753 108.217 153.755 108.217C155.767 108.217 157.077 109.182 157.077 110.564ZM155.858 110.574C155.858 109.741 155.035 109.182 153.755 109.182C152.485 109.182 151.662 109.741 151.662 110.574C151.662 111.407 152.485 111.966 153.755 111.966C155.025 111.966 155.858 111.407 155.858 110.574ZM165.858 113.144H163.115V114.557H166.63V115.502H158.451V114.557H161.926V113.144H159.498V110.147H164.415V109.101H159.447V108.156H165.594V111.092H160.676V112.189H165.858V113.144ZM176.992 107.577V110.157H178.283V111.143H176.992V114.14H175.783V107.577H176.992ZM177.206 116.365H171.12V113.47H172.309V115.42H177.206V116.365ZM174.412 112.535H170.175V108.268H174.412V112.535ZM173.233 111.6V109.192H171.354V111.6H173.233ZM185.926 110.625H179.789V107.729H185.854V108.674H180.978V109.68H185.926V110.625ZM186.881 112.139H178.702V111.184H186.881V112.139ZM186.129 116.589H179.748V114.232H184.615V113.683H179.687V112.748H185.804V115.085H180.927V115.613H186.129V116.589ZM195.671 115.359H187.493V114.414H190.429V111.366H191.617V114.414H195.671V115.359ZM194.737 108.369C194.777 110.645 194.665 112.301 194.351 113.5L193.213 113.358C193.497 112.311 193.568 110.574 193.538 109.324H188.366V108.369H194.737ZM204.51 111.326L203.819 112.24C203.138 111.996 202.193 111.265 201.797 110.432C201.533 111.356 200.517 112.2 199.674 112.494L198.962 111.549C200.273 111.072 201.177 110.005 201.177 108.633V107.932H202.397V108.572C202.397 109.985 203.453 110.991 204.51 111.326ZM206.593 116.477H200.243V115.532H201.523C201.431 115.105 201.34 114.699 201.259 114.282L202.427 114.14L202.651 115.532H204.175C204.256 115.065 204.327 114.607 204.398 114.14C204.794 114.181 205.191 114.242 205.587 114.293C205.495 114.709 205.394 115.105 205.292 115.532H206.593V116.477ZM206.44 112.535H205.251V107.577H206.44V112.535ZM206.521 113.886H200.314V112.941H206.521V113.886ZM214.814 107.577V110.991H216.115V111.976H214.814V116.629H213.626V107.577H214.814ZM209.267 113.551C210.557 113.551 211.817 113.51 212.843 113.277C212.894 113.591 212.925 113.917 212.975 114.221C212.102 114.445 210.73 114.526 208.962 114.526H208.089V108.41H212.224V109.365H209.267V113.551Z" fill="white"/>
<path d="M84.3422 165.441H76.8603V164.834H84.3422V165.441ZM83.2706 159.305C83.2706 161.211 83.1568 162.937 82.9008 164.208L82.1801 164.113C82.4077 163.06 82.531 161.259 82.531 159.903H77.6379V159.305H83.2706ZM92.5469 165.611H85.0651V165.004H88.4314V163.591H85.9849V161.003H90.8969V159.675H85.9754V159.068H91.6176V161.6H86.7056V162.985H91.8547V163.591H89.1521V165.004H92.5469V165.611ZM94.1232 163.98H96.6361V162.814H93.2698V162.207H100.752V162.814H97.3568V163.98H99.7939V166.721H99.0732V164.587H94.1232V163.98ZM100.552 160.908L100.135 161.439C99.5568 161.202 98.9689 160.652 98.7508 160.121C98.5706 160.652 97.9637 161.306 97.2904 161.6L96.8732 161.097C97.7172 160.756 98.3904 159.969 98.3904 159.049V158.49H99.0827V159.03C99.0827 159.95 99.7559 160.633 100.552 160.908ZM96.968 160.642L96.5508 161.154C96.0956 160.946 95.6025 160.538 95.4129 160.121C95.2137 160.652 94.6258 161.278 93.9051 161.581L93.4784 161.06C94.4172 160.718 95.062 159.884 95.062 159.011V158.566H95.7543V159.03C95.7543 159.865 96.3137 160.415 96.968 160.642ZM103.428 159.097C104.575 159.097 105.192 160.149 105.249 161.657H106.14V158.537H106.842V166.266H106.14V162.254H105.249C105.173 163.753 104.566 164.767 103.428 164.767C102.224 164.767 101.607 163.601 101.607 161.932C101.607 160.272 102.224 159.097 103.428 159.097ZM104.537 161.932C104.537 160.595 104.101 159.732 103.428 159.732C102.764 159.732 102.337 160.595 102.337 161.932C102.337 163.278 102.764 164.132 103.428 164.132C104.101 164.132 104.537 163.278 104.537 161.932ZM108.463 166.664H107.752V158.376H108.463V166.664ZM118.941 166.664H118.22V158.376H118.941V166.664ZM116.504 159.258C116.466 161.951 114.816 164.009 112.673 165.023L112.256 164.454C114.351 163.535 115.584 161.733 115.736 159.865H112.559V159.258H116.504ZM127.041 162.027H124.462V162.899H127.857V163.506H120.375V162.899H123.741V162.027H121.314V160.073H126.178V159.277H121.304V158.698H126.899V160.614H122.035V161.448H127.041V162.027ZM121.172 164.227H126.918V166.721H126.188V164.824H121.172V164.227ZM136.299 162.482H134.952V166.664H134.231V158.376H134.952V161.875H136.299V162.482ZM132.212 159.561H129.775V158.945H132.212V159.561ZM133.435 160.965H128.542V160.367H133.435V160.965ZM132.942 163.212C132.942 164.17 132.164 164.919 131.007 164.919C129.85 164.919 129.073 164.179 129.073 163.212C129.073 162.245 129.85 161.496 131.007 161.496C132.164 161.496 132.942 162.235 132.942 163.212ZM132.221 163.212C132.221 162.558 131.709 162.103 131.007 162.103C130.315 162.103 129.794 162.558 129.794 163.212C129.794 163.857 130.315 164.322 131.007 164.322C131.719 164.322 132.221 163.857 132.221 163.212ZM144.266 165.469H136.784V164.862H139.639V161.866H140.359V164.862H144.266V165.469ZM143.261 159.239V160.282C143.252 161.543 143.176 162.833 142.929 163.885L142.218 163.772C142.408 162.994 142.512 161.742 142.512 160.652V159.846H137.553V159.239H143.261ZM154.355 166.588H148.391V164.663H153.322V163.971H148.362V163.383H154.042V165.203H149.121V165.991H154.355V166.588ZM154.222 161.524H148.191V160.927H149.51L149.301 159.713L150.05 159.618L150.192 160.927H152.212L152.383 159.599L153.132 159.694L152.904 160.927H154.222V161.524ZM154.962 162.747H147.48V162.141H154.962V162.747ZM154.222 159.296H148.182V158.698H154.222V159.296ZM162.674 164.568H161.953V161.439H160.938V164.284H160.246V158.528H160.938V160.832H161.953V158.376H162.674V164.568ZM159.706 162.539L159.772 163.136C158.871 163.288 157.743 163.383 156.576 163.383H156.036V160.86H158.558V159.675H156.007V159.078H159.279V161.448H156.757V162.785C157.61 162.785 158.833 162.728 159.706 162.539ZM162.892 166.389H157.145V163.933H157.866V165.791H162.892V166.389ZM171.372 162.567H163.89V161.96H171.372V162.567ZM170.537 159.931C170.537 160.841 169.437 161.363 167.635 161.363C165.853 161.363 164.753 160.841 164.753 159.931C164.753 159.021 165.853 158.49 167.635 158.49C169.437 158.49 170.537 159.021 170.537 159.931ZM167.635 159.078C166.336 159.078 165.492 159.41 165.492 159.931C165.492 160.443 166.336 160.766 167.635 160.766C168.953 160.766 169.807 160.443 169.807 159.931C169.807 159.41 168.953 159.078 167.635 159.078ZM170.708 166.588H164.762V164.616H169.712V163.885H164.743V163.307H170.433V165.166H165.483V166H170.708V166.588ZM182.21 160.822H180.948V162.605H180.228V158.376H180.948V160.216H182.21V160.822ZM181.261 166.578H175.686V164.473H180.228V163.629H175.657V163.041H180.948V165.023H176.406V165.981H181.261V166.578ZM175.543 161.714H175.951C177.108 161.714 178.587 161.619 179.384 161.458L179.46 162.046C178.54 162.197 176.928 162.311 175.496 162.311H174.823V158.916H178.663V159.523H175.543V161.714ZM188.84 160.879H187.057V160.282H188.84V158.376H189.561V163.525H188.84V160.879ZM189.646 165.09C189.646 166.057 188.651 166.654 186.868 166.654C185.095 166.654 184.099 166.057 184.099 165.09C184.099 164.122 185.095 163.525 186.868 163.525C188.651 163.525 189.646 164.122 189.646 165.09ZM186.868 164.113C185.597 164.113 184.829 164.473 184.829 165.09C184.829 165.716 185.597 166.066 186.868 166.066C188.157 166.066 188.916 165.716 188.916 165.09C188.916 164.473 188.157 164.113 186.868 164.113ZM187.503 162.321L187.076 162.88C186.28 162.501 185.455 161.78 185.132 160.955C184.876 161.809 184.089 162.681 183.132 163.165L182.686 162.605C183.881 162.055 184.744 160.993 184.744 159.675V158.85H185.474V159.656C185.474 160.984 186.564 161.979 187.503 162.321ZM198.629 161.79H197.367V164.492H196.647V158.376H197.367V161.183H198.629V161.79ZM197.69 166.398H192.171V164.274H192.892V165.791H197.69V166.398ZM194.532 159.305H192.142V158.67H194.532V159.305ZM195.812 160.529H190.957V159.931H195.812V160.529ZM195.338 162.425C195.338 163.297 194.504 163.876 193.385 163.876C192.285 163.876 191.441 163.297 191.441 162.425C191.441 161.534 192.275 160.974 193.385 160.974C194.504 160.974 195.338 161.534 195.338 162.425ZM194.655 162.425C194.655 161.875 194.058 161.543 193.385 161.543C192.721 161.543 192.123 161.875 192.123 162.425C192.123 162.966 192.721 163.297 193.385 163.297C194.058 163.297 194.655 162.966 194.655 162.425ZM205.591 158.376V161.666H206.938V162.273H205.591V166.664H204.87V158.376H205.591ZM200.252 164.018H200.726C201.798 164.018 203.438 163.923 204.235 163.753L204.311 164.35C203.419 164.521 201.779 164.634 200.338 164.634H199.522V159.239H203.457V159.846H200.252V164.018ZM207.442 165.839V164.995H208.267V165.839H207.442Z" fill="white"/>
<path d="M73.6914 143.435H303.307" stroke="#4A4D63" stroke-width="0.677333"/>
<g clip-path="url(#clip2_4968_62994)">
<path d="M292.174 98.2682C293.954 100.88 296.712 101.12 298.336 100.846C298.764 100.774 299.131 100.497 299.301 100.097C299.918 98.6402 300.181 95.9673 297.652 93.4595C295.694 91.5182 293.473 90.3651 291.798 89.7518C290.766 89.374 289.781 90.1809 289.892 91.2768C290.102 93.3431 290.716 96.129 292.174 98.2682Z" stroke="#23B877" stroke-width="0.677333"/>
<path d="M292.402 92.9984C293.322 95.0854 295.83 97.9842 297.675 98.9736" stroke="#23B877" stroke-width="0.677333" stroke-linecap="round"/>
</g>
<path d="M74.1141 130.781V130.196L75.1788 129.075C75.951 128.262 76.5687 127.571 76.5687 126.872C76.5687 126.197 76.203 125.937 75.4958 125.937C75.1057 125.937 74.6505 126.124 74.3416 126.311L74.1791 125.571C74.553 125.352 75.1219 125.149 75.764 125.149C76.9832 125.149 77.6091 125.734 77.6091 126.742C77.6091 127.733 76.7638 128.619 76.081 129.327L75.4227 130.001H77.6579V130.781H74.1141ZM80.6024 130.879C79.3832 130.879 78.4404 130.099 78.4404 128.205V127.855C78.4404 125.864 79.4645 125.149 80.6106 125.149C81.7647 125.149 82.7563 125.872 82.7563 127.831V128.181C82.7563 130.139 81.7647 130.879 80.6024 130.879ZM80.6024 130.115C81.3502 130.115 81.7241 129.579 81.7241 128.246V127.831C81.7241 126.506 81.3421 125.921 80.6106 125.921C79.8547 125.921 79.4808 126.474 79.4808 127.774V128.205C79.4808 129.497 79.8465 130.115 80.6024 130.115ZM83.5597 130.781V130.196L84.6245 129.075C85.3966 128.262 86.0143 127.571 86.0143 126.872C86.0143 126.197 85.6486 125.937 84.9414 125.937C84.5513 125.937 84.0961 126.124 83.7873 126.311L83.6247 125.571C83.9986 125.352 84.5676 125.149 85.2097 125.149C86.4289 125.149 87.0547 125.734 87.0547 126.742C87.0547 127.733 86.2094 128.619 85.5267 129.327L84.8683 130.001H87.1035V130.781H83.5597ZM89.405 130.863C88.7385 130.863 88.0883 130.676 87.7713 130.473L87.9338 129.749C88.2183 129.928 88.8198 130.066 89.2343 130.066C89.9821 130.066 90.421 129.757 90.421 129.132C90.421 128.538 89.974 128.294 89.2668 128.286L88.6897 128.27V127.547L89.2018 127.538C89.8439 127.522 90.2747 127.23 90.2747 126.709C90.2747 126.149 89.8927 125.945 89.2831 125.945C88.8685 125.945 88.4296 126.084 88.0964 126.238L87.9826 125.498C88.324 125.303 88.9986 125.149 89.5432 125.149C90.5754 125.149 91.2744 125.636 91.2744 126.531C91.2744 127.197 90.8843 127.62 90.2747 127.831C90.9737 127.969 91.4614 128.367 91.4614 129.197C91.4614 130.221 90.673 130.863 89.405 130.863ZM92.3728 130.912V129.961H93.3644V130.912H92.3728ZM95.128 130.814V126.23L94.1933 126.417V125.832L95.6075 125.198H96.1359V130.814H95.128ZM97.3551 130.781V130.196L98.4198 129.075C99.192 128.262 99.8097 127.571 99.8097 126.872C99.8097 126.197 99.444 125.937 98.7368 125.937C98.3467 125.937 97.8915 126.124 97.5826 126.311L97.4201 125.571C97.794 125.352 98.3629 125.149 99.005 125.149C100.224 125.149 100.85 125.734 100.85 126.742C100.85 127.733 100.005 128.619 99.322 129.327L98.6637 130.001H100.899V130.781H97.3551ZM101.81 130.912V129.961H102.802V130.912H101.81ZM103.745 130.781V130.196L104.81 129.075C105.582 128.262 106.199 127.571 106.199 126.872C106.199 126.197 105.834 125.937 105.127 125.937C104.736 125.937 104.281 126.124 103.972 126.311L103.81 125.571C104.184 125.352 104.753 125.149 105.395 125.149C106.614 125.149 107.24 125.734 107.24 126.742C107.24 127.733 106.394 128.619 105.712 129.327L105.053 130.001H107.289V130.781H103.745ZM109.59 130.863C108.924 130.863 108.273 130.676 107.956 130.473L108.119 129.749C108.403 129.928 109.005 130.066 109.419 130.066C110.167 130.066 110.606 129.757 110.606 129.132C110.606 128.538 110.159 128.294 109.452 128.286L108.875 128.27V127.547L109.387 127.538C110.029 127.522 110.46 127.23 110.46 126.709C110.46 126.149 110.078 125.945 109.468 125.945C109.054 125.945 108.615 126.084 108.281 126.238L108.168 125.498C108.509 125.303 109.184 125.149 109.728 125.149C110.76 125.149 111.459 125.636 111.459 126.531C111.459 127.197 111.069 127.62 110.46 127.831C111.159 127.969 111.646 128.367 111.646 129.197C111.646 130.221 110.858 130.863 109.59 130.863Z" fill="#9093A8"/>
<path d="M119.465 125.051V133.179" stroke="#6B6E82" stroke-width="0.677333"/>
<path d="M126.897 130.781V125.206H128.725C130.432 125.206 131.391 126.027 131.391 127.847V128.01C131.391 129.798 130.522 130.781 128.734 130.781H126.897ZM127.896 129.993H128.742C129.831 129.993 130.335 129.457 130.335 128.107V127.839C130.335 126.433 129.725 125.994 128.669 125.994H127.896V129.993ZM132.21 128.92V128.14H134.445V128.92H132.21ZM135.019 130.781V130.196L136.084 129.075C136.856 128.262 137.474 127.571 137.474 126.872C137.474 126.197 137.108 125.937 136.401 125.937C136.011 125.937 135.556 126.124 135.247 126.311L135.084 125.571C135.458 125.352 136.027 125.149 136.669 125.149C137.888 125.149 138.514 125.734 138.514 126.742C138.514 127.733 137.669 128.619 136.986 129.327L136.328 130.001H138.563V130.781H135.019ZM140.19 130.814V126.23L139.255 126.417V125.832L140.669 125.198H141.198V130.814H140.19Z" fill="#FF7E55"/>
<rect x="73.6914" y="84.5068" width="24.8053" height="14.3547" rx="2.70933" fill="#9BE6C5"/>
<path d="M85.1873 92.2903H84.1571V90.1594H82.8187V89.3405H84.1571V87.7115H85.1873V92.2903ZM83.391 91.1896L82.801 91.9909C82.2111 91.7532 81.401 91.128 81.0576 90.3971C80.8198 91.1984 79.9657 91.9381 79.2349 92.1846L78.6185 91.3657C79.7544 90.9519 80.5117 90.0361 80.5117 88.8474V88.0725H81.5771V88.7946C81.5771 90.0097 82.4752 90.8902 83.391 91.1896ZM85.2401 93.9721C85.2401 94.9231 84.2539 95.5483 82.5369 95.5483C80.8463 95.5483 79.8689 94.9231 79.8689 93.9721C79.8689 92.9947 80.8463 92.3783 82.5369 92.3783C84.2539 92.3783 85.2401 92.9947 85.2401 93.9721ZM82.5369 93.206C81.5243 93.206 80.9255 93.4966 80.9255 93.9721C80.9255 94.4388 81.5243 94.7206 82.5369 94.7206C83.5935 94.7206 84.1747 94.4388 84.1747 93.9721C84.1747 93.4966 83.5935 93.206 82.5369 93.206ZM92.5594 93.9721C92.5594 94.9407 91.5556 95.5483 89.821 95.5483C88.0863 95.5483 87.0913 94.9407 87.0913 93.9721C87.0913 92.9947 88.0863 92.396 89.821 92.396C91.5556 92.396 92.5594 92.9947 92.5594 93.9721ZM86.4221 89.1028V88.2574H90.5518V89.1028H89.0637C89.1517 90.2034 89.9354 90.9343 90.7983 91.216L90.2348 92.0261C89.6272 91.7972 88.8788 91.2072 88.5354 90.4852C88.2976 91.2513 87.4699 91.9821 86.7127 92.2463L86.1051 91.445C87.197 91.0487 87.9278 90.2122 87.9894 89.1028H86.4221ZM93.572 90.4324H92.4537V92.2991H91.4147V87.7115H92.4537V89.5871H93.572V90.4324ZM89.821 93.2237C88.7467 93.2237 88.1303 93.4966 88.1303 93.9721C88.1303 94.4476 88.7467 94.7294 89.821 94.7294C90.9128 94.7294 91.5204 94.4476 91.5204 93.9721C91.5204 93.4966 90.9128 93.2237 89.821 93.2237Z" fill="#0B663E"/>
<g clip-path="url(#clip3_4968_62994)">
<rect width="254" height="62.3147" transform="translate(61.5 10)" fill="#1D1F29"/>
<path d="M85.8835 50.6399L80.4648 56.0586L85.8835 61.4772" stroke="white" stroke-width="1.35467" stroke-linecap="round" stroke-linejoin="round"/>
<path d="M176.771 59.6893H175.948V50.2174H176.771V59.6893ZM175.298 56.7957L174.777 57.3701C174.116 56.8065 173.488 55.9287 173.325 55.1268C173.173 55.9829 172.48 57.1642 171.667 57.9228L171.093 57.4026C172.296 56.4272 172.924 54.7258 172.924 53.1002V51.0953H173.715V53.0568C173.715 54.7583 174.257 55.9937 175.298 56.7957ZM171.992 55.6253L171.526 56.2538C171.223 56.0263 170.778 55.4627 170.616 54.9859C170.453 55.7662 169.803 56.7307 169.174 57.3051L168.6 56.8065C169.51 56.0804 170.182 54.8016 170.182 53.1002V51.1928H170.963V53.0677C170.963 54.5415 171.483 55.2676 171.992 55.6253ZM187.015 53.5553H185.574V56.4706H184.75V50.2174H185.574V52.8618H187.015V53.5553ZM180.849 50.9219C182.193 50.9219 183.298 51.843 183.298 53.2302C183.298 54.6608 182.193 55.5386 180.849 55.5386C179.494 55.5386 178.389 54.6608 178.389 53.2411C178.389 51.843 179.494 50.9219 180.849 50.9219ZM180.849 51.583C179.895 51.583 179.191 52.2765 179.191 53.2302C179.191 54.2164 179.895 54.8775 180.849 54.8775C181.835 54.8775 182.507 54.2164 182.507 53.2411C182.507 52.2765 181.846 51.583 180.849 51.583ZM186.365 59.0174L185.953 59.6893C184.718 59.4509 183.136 58.443 182.745 57.5543C182.377 58.4647 180.87 59.44 179.494 59.7218L179.093 59.039C180.621 58.844 182.334 57.7386 182.334 56.3731V55.9829H183.201V56.3731C183.201 57.7386 184.967 58.8223 186.365 59.0174ZM198.329 57.8903C198.329 58.9957 197.18 59.6893 195.143 59.6893C193.116 59.6893 191.978 58.9957 191.978 57.8903C191.978 56.774 193.116 56.0804 195.143 56.0804C197.18 56.0804 198.329 56.774 198.329 57.8903ZM190.764 51.7022V51.0086H195.89V51.7022H193.755C193.755 51.8864 193.755 52.1031 193.766 52.2115C193.842 53.5012 195.056 54.5307 196.215 54.8775L195.728 55.5386C194.742 55.1484 193.723 54.2598 193.333 53.4036C193.073 54.2923 191.935 55.4302 190.916 55.8745L190.472 55.2135C191.664 54.7583 192.867 53.5553 192.91 52.2115C192.921 52.1031 192.921 51.8756 192.921 51.7022H190.764ZM195.143 56.774C193.69 56.774 192.812 57.175 192.812 57.8903C192.812 58.5947 193.69 58.9957 195.143 58.9957C196.627 58.9957 197.483 58.5947 197.483 57.8903C197.483 57.175 196.627 56.774 195.143 56.774ZM197.429 53.3711H195.522V52.6775H197.429V50.2174H198.253V56.1021H197.429V53.3711ZM207.402 55.8854H204.563V57.8144H208.442V58.508H199.892V57.8144H203.739V55.8854H200.921V50.8677H201.756V52.6125H206.578V50.8677H207.402V55.8854ZM206.578 55.2026V53.2953H201.756V55.2026H206.578Z" fill="white"/>
<path d="M289.783 56.0586C289.783 56.4179 289.639 56.7625 289.383 57.0165C289.127 57.2706 288.779 57.4133 288.417 57.4133C288.055 57.4133 287.707 57.2706 287.451 57.0165C287.195 56.7625 287.051 56.4179 287.051 56.0586C287.051 55.6994 287.195 55.3548 287.451 55.1008C287.707 54.8467 288.055 54.704 288.417 54.704C288.779 54.704 289.127 54.8467 289.383 55.1008C289.639 55.3548 289.783 55.6994 289.783 56.0586ZM295.19 56.0586C295.19 56.4179 295.046 56.7625 294.79 57.0165C294.534 57.2706 294.186 57.4133 293.824 57.4133C293.462 57.4133 293.114 57.2706 292.858 57.0165C292.602 56.7625 292.458 56.4179 292.458 56.0586C292.458 55.6994 292.602 55.3548 292.858 55.1008C293.114 54.8467 293.462 54.704 293.824 54.704C294.186 54.704 294.534 54.8467 294.79 55.1008C295.046 55.3548 295.19 55.6994 295.19 56.0586ZM300.597 56.0586C300.597 56.4179 300.454 56.7625 300.197 57.0165C299.941 57.2706 299.594 57.4133 299.231 57.4133C298.869 57.4133 298.522 57.2706 298.265 57.0165C298.009 56.7625 297.865 56.4179 297.865 56.0586C297.865 55.6994 298.009 55.3548 298.265 55.1008C298.522 54.8467 298.869 54.704 299.231 54.704C299.594 54.704 299.941 54.8467 300.197 55.1008C300.454 55.3548 300.597 55.6994 300.597 56.0586Z" fill="white"/>
</g>
<g clip-path="url(#clip4_4968_62994)">
<path d="M113.992 11.6454H262.328C260.902 12.0536 259.902 13.3355 259.853 14.8183L259.833 15.4126C259.833 24.5544 252.422 31.9654 243.28 31.9654H133.04C123.898 31.9654 116.487 24.5544 116.487 15.4126L116.468 14.8183C116.419 13.3355 115.419 12.0536 113.992 11.6454Z" fill="#151515"/>
<path opacity="0.35" d="M289.425 26.5467C289.425 25.7362 290.082 25.0791 290.892 25.0791H302.181C302.992 25.0791 303.649 25.7362 303.649 26.5467V30.6107C303.649 31.4212 302.992 32.0783 302.181 32.0783H290.892C290.082 32.0783 289.425 31.4212 289.425 30.6107V26.5467Z" stroke="white" stroke-width="0.677333"/>
<path opacity="0.4" d="M304.664 27.224V29.9333C305.209 29.7039 305.564 29.1701 305.564 28.5787C305.564 27.9873 305.209 27.4535 304.664 27.224Z" fill="white"/>
<path d="M290.441 26.9982C290.441 26.4994 290.846 26.0951 291.345 26.0951H301.73C302.229 26.0951 302.633 26.4994 302.633 26.9982V30.1591C302.633 30.6579 302.229 31.0622 301.73 31.0622H291.345C290.846 31.0622 290.441 30.6579 290.441 30.1591V26.9982Z" fill="white"/>
<path fill-rule="evenodd" clip-rule="evenodd" d="M280.505 26.2812C282.005 26.2812 283.449 26.8579 284.537 27.8921C284.619 27.9719 284.75 27.9709 284.83 27.8898L285.613 27.0996C285.654 27.0585 285.677 27.0028 285.677 26.9448C285.676 26.8868 285.653 26.8314 285.611 26.7907C282.756 24.0546 278.252 24.0546 275.397 26.7907C275.356 26.8314 275.332 26.8868 275.332 26.9447C275.332 27.0027 275.354 27.0584 275.395 27.0996L276.178 27.8898C276.259 27.971 276.39 27.972 276.472 27.8921C277.56 26.8579 279.004 26.2812 280.505 26.2812ZM280.505 28.8521C281.33 28.8521 282.125 29.1586 282.736 29.7121C282.819 29.7907 282.949 29.7889 283.03 29.7083L283.812 28.918C283.853 28.8766 283.876 28.8204 283.875 28.7619C283.875 28.7035 283.851 28.6477 283.809 28.6071C281.947 26.8756 279.065 26.8756 277.203 28.6071C277.161 28.6477 277.137 28.7035 277.136 28.762C277.136 28.8204 277.159 28.8766 277.2 28.918L277.982 29.7083C278.063 29.7889 278.193 29.7907 278.276 29.7121C278.886 29.1589 279.681 28.8524 280.505 28.8521ZM282.072 30.5819C282.073 30.6405 282.05 30.697 282.008 30.738L280.655 32.1033C280.616 32.1434 280.562 32.166 280.505 32.166C280.449 32.166 280.395 32.1434 280.355 32.1033L279.002 30.738C278.96 30.6969 278.937 30.6404 278.938 30.5818C278.94 30.5232 278.965 30.4678 279.008 30.4285C279.872 29.6977 281.138 29.6977 282.002 30.4285C282.045 30.4678 282.071 30.5233 282.072 30.5819Z" fill="white"/>
<path fill-rule="evenodd" clip-rule="evenodd" d="M271.251 24.9662H270.574C270.2 24.9662 269.897 25.2694 269.897 25.6435V31.5137C269.897 31.8878 270.2 32.1911 270.574 32.1911H271.251C271.625 32.1911 271.929 31.8878 271.929 31.5137V25.6435C271.929 25.2694 271.625 24.9662 271.251 24.9662ZM267.412 26.5466H268.09C268.464 26.5466 268.767 26.8499 268.767 27.224V31.5137C268.767 31.8878 268.464 32.1911 268.09 32.1911H267.412C267.038 32.1911 266.735 31.8878 266.735 31.5137V27.224C266.735 26.8499 267.038 26.5466 267.412 26.5466ZM264.931 28.1271H264.253C263.879 28.1271 263.576 28.4303 263.576 28.8044V31.5138C263.576 31.8878 263.879 32.1911 264.253 32.1911H264.931C265.305 32.1911 265.608 31.8878 265.608 31.5138V28.8044C265.608 28.4303 265.305 28.1271 264.931 28.1271ZM261.769 29.4818H261.091C260.717 29.4818 260.414 29.785 260.414 30.1591V31.5138C260.414 31.8878 260.717 32.1911 261.091 32.1911H261.769C262.143 32.1911 262.446 31.8878 262.446 31.5138V30.1591C262.446 29.785 262.143 29.4818 261.769 29.4818Z" fill="white"/>
<path d="M86.7834 32.139C88.6041 32.139 89.6856 30.7152 89.6856 28.3042C89.6856 27.3964 89.512 26.6324 89.1796 26.042C88.6984 25.1243 87.8699 24.6282 86.8231 24.6282C85.2654 24.6282 84.1641 25.6749 84.1641 27.1434C84.1641 28.5225 85.1563 29.5246 86.5205 29.5246C87.3589 29.5246 88.0386 29.1327 88.3759 28.4531H88.3908C88.3908 28.4531 88.4106 28.4531 88.4156 28.4531C88.4255 28.4531 88.4602 28.4531 88.4602 28.4531C88.4602 30.0902 87.8401 31.0675 86.7934 31.0675C86.1782 31.0675 85.702 30.7301 85.5382 30.1894H84.2633C84.4766 31.3651 85.4737 32.139 86.7834 32.139ZM86.8281 28.5076C86.0046 28.5076 85.4192 27.9222 85.4192 27.1037C85.4192 26.305 86.0343 25.6948 86.833 25.6948C87.6318 25.6948 88.2469 26.3149 88.2469 27.1235C88.2469 27.9222 87.6466 28.5076 86.8281 28.5076Z" fill="white"/>
<path d="M91.7793 32.0696C92.2506 32.0696 92.573 31.7322 92.573 31.2858C92.573 30.8343 92.2506 30.5019 91.7793 30.5019C91.313 30.5019 90.9855 30.8343 90.9855 31.2858C90.9855 31.7322 91.313 32.0696 91.7793 32.0696ZM91.7793 28.3489C92.2506 28.3489 92.573 28.0165 92.573 27.57C92.573 27.1186 92.2506 26.7862 91.7793 26.7862C91.313 26.7862 90.9855 27.1186 90.9855 27.57C90.9855 28.0165 91.313 28.3489 91.7793 28.3489Z" fill="white"/>
<path d="M97.2167 31.9654H98.442V30.6309H99.4094V29.5494H98.442V24.8068H96.6363C95.3712 26.7118 94.3641 28.3042 93.7192 29.4899V30.6309H97.2167V31.9654ZM94.9049 29.5048C95.7383 28.0363 96.4825 26.8606 97.1671 25.8486H97.2365V29.5792H94.9049V29.5048Z" fill="white"/>
<path d="M102.138 31.9654H103.418V24.8068H102.143L100.273 26.1165V27.3468L102.054 26.0966H102.138V31.9654Z" fill="white"/>
</g>
</g>
<path d="M58.5 30C58.5 17.2975 68.7975 7 81.5 7H295.5C308.203 7 318.5 17.2975 318.5 30H312.5C312.5 20.6112 304.889 13 295.5 13H81.5C72.1112 13 64.5 20.6112 64.5 30H58.5ZM315.5 559.995H61.5H315.5ZM81.5 559.995C68.7975 559.995 58.5 549.697 58.5 536.995V30C58.5 17.2975 68.7975 7 81.5 7V13C72.1112 13 64.5 20.6112 64.5 30V539.995C64.5 551.04 72.1112 559.995 81.5 559.995ZM295.5 7C308.203 7 318.5 17.2975 318.5 30V536.995C318.5 549.697 308.203 559.995 295.5 559.995C304.889 559.995 312.5 551.04 312.5 539.995V30C312.5 20.6112 304.889 13 295.5 13V7Z" fill="#4A4D63" mask="url(#path-1-inside-1_4968_62994)"/>
<circle opacity="0.3" cx="71" cy="233.5" r="58.5" fill="#23B877"/>
<circle opacity="0.7" cx="71" cy="233.5" r="44.5" fill="#23B877"/>
<g clip-path="url(#clip5_4968_62994)">
<path d="M47.5 225.04C47.5 216.734 54.2336 210 62.54 210H314.46C322.766 210 329.5 216.734 329.5 225.04V578.48H47.5V225.04Z" fill="#36394F"/>
<rect width="282" height="43.616" transform="translate(47.125 210)" fill="#36394F"/>
<path d="M159.428 232.198C159.428 233.654 158.49 234.725 157.022 234.725C155.554 234.725 154.592 233.654 154.592 232.198C154.592 230.755 155.554 229.696 157.01 229.696C158.478 229.696 159.428 230.743 159.428 232.198ZM163.339 235.315H162.424V232.571H161.161V235.218H160.283V229.311H161.161V231.813H162.424V229.118H163.339V235.315ZM158.526 232.21C158.526 231.212 157.985 230.478 157.01 230.478C156.047 230.478 155.494 231.212 155.494 232.198C155.494 233.197 156.047 233.955 157.01 233.955C157.985 233.955 158.526 233.197 158.526 232.21ZM163.339 239.634H162.412V236.614H156.24V235.856H163.339V239.634ZM170.621 233.678V232.908H172.558V231.477H170.621V230.706H172.558V229.118H173.473V236.722H172.558V233.678H170.621ZM171.018 234.533L170.477 235.255C169.394 234.737 168.359 233.775 167.914 232.704C167.589 233.811 166.47 235.002 165.327 235.591L164.761 234.882C166.169 234.256 167.432 232.8 167.432 231.116V229.732H168.359V231.079C168.359 232.836 169.767 234.075 171.018 234.533ZM173.701 239.309H166.711V236.097H167.625V238.551H173.701V239.309ZM187.176 239.538H179.608V237.095H185.865V236.217H179.572V235.471H186.779V237.781H180.535V238.78H187.176V239.538ZM187.008 233.113H179.355V232.355H181.028L180.763 230.815L181.714 230.694L181.894 232.355H184.457L184.674 230.67L185.624 230.791L185.335 232.355H187.008V233.113ZM187.946 234.665H178.453V233.895H187.946V234.665ZM187.008 230.285H179.343V229.527H187.008V230.285ZM197.731 236.975H196.817V233.005H195.529V236.614H194.651V229.311H195.529V232.235H196.817V229.118H197.731V236.975ZM193.965 234.4L194.049 235.158C192.906 235.351 191.474 235.471 189.994 235.471H189.309V232.271H192.509V230.767H189.273V230.009H193.424V233.017H190.223V234.713C191.306 234.713 192.858 234.641 193.965 234.4ZM198.008 239.285H190.716V236.169H191.631V238.527H198.008V239.285ZM211.435 233.943L211.014 234.713C209.305 234.473 207.717 233.606 207.175 232.644C206.694 233.618 205.178 234.509 203.361 234.737L202.952 233.967C204.637 233.799 206.417 232.981 206.694 231.729H203.325V230.959H211.026V231.729H207.693C207.957 232.981 209.834 233.787 211.435 233.943ZM207.621 239.646H206.706V236.301H202.435V235.531H211.928V236.301H207.621V239.646ZM208.896 230.045H205.467V229.251H208.896V230.045ZM220.931 229.118V233.498H222.651V234.28H220.931V239.634H220.016V229.118H220.931ZM218.199 230.249C218.139 233.666 216.166 236.133 213.459 237.541L212.893 236.819C215.516 235.604 217.02 233.39 217.213 231.019H213.254V230.249H218.199Z" fill="white"/>
<path fill-rule="evenodd" clip-rule="evenodd" d="M298.509 226.324C298.216 226.03 298.216 225.554 298.509 225.26C298.803 224.967 299.279 224.967 299.573 225.26L305.057 230.745L310.541 225.26C310.835 224.967 311.311 224.967 311.605 225.26C311.898 225.554 311.898 226.03 311.605 226.324L306.121 231.808L311.605 237.292C311.898 237.586 311.898 238.062 311.605 238.356C311.311 238.649 310.835 238.649 310.541 238.356L305.057 232.872L299.573 238.356C299.279 238.649 298.803 238.649 298.509 238.356C298.216 238.062 298.216 237.586 298.509 237.292L303.994 231.808L298.509 226.324Z" fill="white"/>
<rect x="60.8482" y="270.348" width="254.552" height="50.76" rx="5.076" fill="#15171E"/>
<rect x="60.8482" y="270.348" width="254.552" height="50.76" rx="5.076" stroke="white" stroke-width="0.376"/>
<path d="M81.4823 291.193H73.0072V290.225H81.4823V291.193ZM80.4084 284.097C80.4084 286.761 80.1979 288.498 79.9768 289.667L78.7766 289.551C78.9872 288.614 79.1872 286.613 79.1767 285.066H73.9758V284.097H80.4084ZM89.7913 288.909H86.9488V290.372H90.5915V291.351H82.1164V290.372H85.717V288.909H83.2008V285.803H88.2964V284.718H83.1482V283.739H89.5176V286.782H84.4221V287.919H89.7913V288.909ZM92.2258 289.403H94.8262V288.424H91.2256V287.435H99.7007V288.424H96.058V289.403H98.6057V292.53H97.3845V290.383H92.2258V289.403ZM99.5954 285.95L98.9426 286.824C98.4689 286.677 97.7425 286.045 97.4687 285.508C97.2161 286.119 96.5317 286.761 95.9422 287.003L95.2157 286.15C96.2264 285.792 96.8686 284.771 96.8686 283.834V283.339H98.0583V283.834C98.0583 284.729 98.5952 285.634 99.5954 285.95ZM95.4263 285.613L94.742 286.487C94.3419 286.308 93.8576 285.898 93.626 285.476C93.3944 285.992 92.7206 286.645 92.0994 286.898L91.373 286.024C92.4363 285.624 93.0364 284.718 93.0364 283.834V283.392H94.2366V283.834C94.2366 284.687 94.6262 285.308 95.4263 285.613ZM106.441 292.088H105.283V287.719H104.483C104.378 289.235 103.767 290.572 102.451 290.572C101.009 290.572 100.43 288.919 100.43 287.193C100.43 285.487 101.009 283.845 102.451 283.845C103.777 283.845 104.378 285.182 104.483 286.708H105.283V283.318H106.441V292.088ZM108.315 292.52H107.157V283.139H108.315V292.52ZM103.356 287.203C103.356 285.95 103.093 284.918 102.461 284.918C101.851 284.918 101.588 285.95 101.588 287.203C101.588 288.456 101.851 289.477 102.461 289.477C103.093 289.477 103.356 288.456 103.356 287.203ZM116.579 285.866C116.579 287.003 115.842 288.045 114.452 288.045C113.062 288.045 112.304 287.003 112.304 285.866C112.304 284.718 113.062 283.676 114.442 283.676C115.831 283.676 116.579 284.718 116.579 285.866ZM120.19 288.645H119.021V286.382H118.295V288.551H117.147V283.308H118.295V285.392H119.021V283.139H120.19V288.645ZM113.663 289.088H120.19V292.53H118.958V290.067H113.663V289.088ZM115.431 285.866C115.431 285.171 115.021 284.676 114.442 284.676C113.873 284.676 113.462 285.171 113.462 285.866C113.462 286.54 113.873 287.056 114.442 287.056C115.021 287.056 115.431 286.54 115.431 285.866ZM127.846 285.424H126.435V284.445H127.846V283.139H129.078V289.94H127.846V287.298H126.435V286.308H127.846V285.424ZM129.278 292.267H122.898V289.319H124.13V291.298H129.278V292.267ZM126.899 287.866L126.204 288.835C125.488 288.572 124.509 287.624 124.098 286.761C123.825 287.708 122.814 288.772 121.919 289.077L121.193 288.098C122.561 287.593 123.456 286.287 123.456 284.866V283.676H124.73V284.813C124.73 286.245 125.814 287.519 126.899 287.866ZM141.669 288.235H133.194V287.245H141.669V288.235ZM140.879 292.478H134.236V290.172H139.374V289.73H134.215V288.761H140.595V291.035H135.468V291.467H140.879V292.478ZM140.795 286.803H134.036V285.834H135.341L135.152 284.75L136.352 284.582L136.499 285.834H138.342L138.542 284.582L139.732 284.75L139.489 285.834H140.795V286.803ZM140.816 284.318H134.004V283.35H140.816V284.318ZM150.273 290.109H149.104V286.771H148.335V289.867H147.188V283.308H148.335V285.782H149.104V283.139H150.273V290.109ZM146.788 288.498C145.998 288.688 144.419 288.782 143.345 288.782H142.692V285.782H145.019V284.824H142.661V283.845H146.251V286.74H143.924V287.793C144.703 287.793 146.03 287.729 146.661 287.572C146.693 287.877 146.746 288.182 146.788 288.498ZM150.504 292.288H143.935V289.414H145.166V291.309H150.504V292.288ZM156.241 291.362C155.42 291.362 154.651 291.151 154.188 290.867L154.42 289.877C154.809 290.109 155.357 290.309 155.915 290.309C156.915 290.309 157.526 289.825 157.526 288.951C157.526 288.035 156.957 287.656 155.967 287.656C155.515 287.656 154.841 287.877 154.504 288.045L154.767 284.076H158.536V285.087H155.757L155.62 286.845C155.862 286.782 156.252 286.719 156.525 286.719C157.968 286.719 158.863 287.456 158.863 288.982C158.863 290.319 157.884 291.362 156.241 291.362ZM167.566 292.52H166.398V287.793H165.566V292.088H164.418V283.308H165.566V286.814H166.398V283.139H167.566V292.52ZM163.565 284.245C163.576 287.045 162.46 289.182 160.165 290.688L159.365 289.835C161.197 288.74 162.218 287.098 162.376 285.234H159.933V284.245H163.565ZM179.104 285.729H176.43C176.788 286.624 178.093 287.161 179.504 287.298L178.967 288.287C177.82 288.193 176.283 287.487 175.693 286.571C175.177 287.508 173.693 288.182 172.387 288.309L171.861 287.319C173.293 287.15 174.619 286.635 174.977 285.729H172.271V284.75H179.104V285.729ZM176.283 292.509H175.051V289.709H171.45V288.73H179.925V289.709H176.283V292.509ZM174.156 284.224V283.245H177.209V284.224H174.156ZM189.245 287.761H187.887V292.52H186.666V283.139H187.887V286.74H189.245V287.761ZM185.423 284.097C185.339 286.929 184.097 289.267 181.223 290.825L180.475 289.898C182.518 288.961 183.918 286.993 184.086 285.119H181.044V284.097H185.423ZM197.649 292.52H196.48V287.919H195.701V292.088H194.554V283.308H195.701V286.929H196.48V283.139H197.649V292.52ZM193.964 288.656C193.964 289.835 193.132 290.604 191.911 290.604C190.7 290.604 189.858 289.772 189.858 288.656C189.858 287.466 190.711 286.708 191.911 286.708C193.132 286.708 193.964 287.477 193.964 288.656ZM189.658 286.361V285.382H194.132V286.361H189.658ZM192.859 288.656C192.859 288.077 192.459 287.677 191.911 287.677C191.374 287.677 190.974 288.077 190.974 288.656C190.974 289.245 191.374 289.635 191.911 289.635C192.459 289.635 192.859 289.224 192.859 288.656ZM190.679 284.845V283.866H193.206V284.845H190.679ZM207.253 291.351H198.778V290.372H202.378V288.551H199.799V283.781H201.02V285.234H205.01V283.76H206.242V288.551H203.61V290.372H207.253V291.351ZM205.01 287.572V286.182H201.02V287.572H205.01ZM215.646 292.52H214.414V283.139H215.646V292.52ZM212.761 284.118C212.688 286.95 211.435 289.267 208.571 290.825L207.813 289.898C209.866 288.961 211.266 287.003 211.435 285.14H208.382V284.118H212.761Z" fill="white"/>
<path d="M287.361 333.893V333.434L288.925 331.811C289.854 330.843 290.479 330.13 290.479 329.191C290.479 328.321 290.059 327.891 289.13 327.891C288.573 327.891 288.045 328.165 287.664 328.429L287.439 327.813C287.849 327.549 288.514 327.216 289.257 327.216C290.577 327.216 291.291 327.95 291.291 329.123C291.291 330.257 290.606 331.039 289.472 332.192L288.446 333.229H291.437V333.893H287.361ZM294.558 327.226C296.024 327.226 296.836 328.233 296.836 330.091V330.521C296.836 332.808 295.917 334.011 294.333 334.011C293.658 334.011 293.043 333.805 292.739 333.6L292.955 333.033C293.238 333.199 293.766 333.356 294.294 333.356C295.369 333.356 295.985 332.671 296.054 330.834C295.702 331.234 295.164 331.557 294.44 331.557C293.336 331.557 292.436 330.755 292.436 329.504C292.436 328.272 293.228 327.226 294.558 327.226ZM294.568 327.871C293.717 327.871 293.209 328.526 293.209 329.436C293.209 330.462 293.805 330.902 294.597 330.902C295.223 330.902 295.78 330.462 296.054 330.081V329.895C296.054 328.673 295.614 327.871 294.568 327.871ZM297.373 334.891L299.67 326.757H300.345L298.047 334.891H297.373ZM303.56 334.05V332.515H300.461V331.928L303.667 327.246H304.274V331.88H305.369V332.515H304.274V334.05H303.56ZM301.292 331.88H303.56V328.478L301.292 331.88ZM308.689 334.011C307.34 334.011 306.284 333.092 306.284 330.873V330.325C306.284 328.008 307.409 327.226 308.699 327.226C309.98 327.226 311.036 328.008 311.036 330.286V330.882C311.036 333.102 310.019 334.011 308.689 334.011ZM308.689 333.366C309.696 333.366 310.244 332.681 310.244 331V330.276C310.244 328.624 309.706 327.871 308.699 327.871C307.673 327.871 307.115 328.585 307.115 330.227V330.951C307.115 332.583 307.663 333.366 308.689 333.366Z" fill="#6B6E82"/>
</g>
<rect width="375" height="98" transform="matrix(1 0 0 -1 0.75 425)" fill="url(#paint0_linear_4968_62994)"/>
</g>
<defs>
<linearGradient id="paint0_linear_4968_62994" x1="187.5" y1="49.4188" x2="187.5" y2="98" gradientUnits="userSpaceOnUse">
<stop stop-color="#292C3B"/>
<stop offset="1" stop-color="#292C3B" stop-opacity="0"/>
</linearGradient>
<clipPath id="clip0_4968_62994">
<rect width="375" height="378" fill="white" transform="translate(0.75)"/>
</clipPath>
<clipPath id="clip1_4968_62994">
<path d="M61.5 30C61.5 18.9543 70.4543 10 81.5 10H295.5C306.546 10 315.5 18.9543 315.5 30V539.995C315.5 551.04 306.546 559.995 295.5 559.995H81.5C70.4543 559.995 61.5 551.04 61.5 539.995V30Z" fill="white"/>
</clipPath>
<clipPath id="clip2_4968_62994">
<rect width="14.9013" height="14.9013" fill="white" transform="translate(287.055 87.8934)"/>
</clipPath>
<clipPath id="clip3_4968_62994">
<rect width="254" height="62.3147" fill="white" transform="translate(61.5 10)"/>
</clipPath>
<clipPath id="clip4_4968_62994">
<rect width="254" height="29.8027" fill="white" transform="translate(61.5 13)"/>
</clipPath>
<clipPath id="clip5_4968_62994">
<path d="M47.5 225.04C47.5 216.734 54.2336 210 62.54 210H314.46C322.766 210 329.5 216.734 329.5 225.04V578.48H47.5V225.04Z" fill="white"/>
</clipPath>
</defs>
</svg>
