<svg width="102" height="44" viewBox="0 0 102 44" fill="none" xmlns="http://www.w3.org/2000/svg">
<path d="M45.8514 21.752L45.3474 22.52C43.5834 21.992 41.8794 20.504 41.4474 19.436C41.0754 20.504 39.4074 21.992 37.5834 22.508L37.1034 21.728C38.8074 21.392 40.9914 19.772 40.9914 18.056V17.228H41.9394V18.056C41.9394 19.772 44.2434 21.392 45.8514 21.752ZM46.1994 25.4H36.7314V24.632H46.1994V25.4ZM55.3702 17.504V18.848C55.3582 20.252 55.2022 22.652 54.8902 23.984L54.0142 23.864C54.1222 23.372 54.2542 22.292 54.3262 21.2L48.1222 21.524L47.9422 20.72L54.3742 20.492C54.3982 20.072 54.4222 19.688 54.4222 19.34V18.26H48.2662V17.504H55.3702ZM56.5822 25.316H47.1142V24.548H56.5822V25.316ZM66.341 26.696H59.453V22.688H60.365V23.936H65.417V22.676H66.341V26.696ZM62.549 20.888L62.669 21.644C61.529 21.836 60.149 21.992 58.673 21.992H58.001V19.112H61.001V17.792H57.965V17.036H61.913V19.856H58.913V21.224C59.981 21.224 61.445 21.128 62.549 20.888ZM66.341 22.1H65.429V19.64H64.145V22.004H63.269V16.544H64.145V18.872H65.429V16.352H66.341V22.1ZM65.417 25.94V24.668H60.365V25.94H65.417ZM73.2078 22.136H68.2398V17.276H73.2078V22.136ZM72.2958 21.38V18.032H69.1518V21.38H72.2958ZM77.5398 20.252H75.9438V23.972H75.0318V16.352H75.9438V19.484H77.5398V20.252ZM76.3518 26.48H69.3798V23.252H70.2918V25.724H76.3518V26.48ZM89.731 22.628H86.587V24.764H90.883V25.532H81.415V24.764H85.675V22.628H82.555V17.072H83.479V19.004H88.819V17.072H89.731V22.628ZM88.819 21.872V19.76H83.479V21.872H88.819ZM100.366 26.84H99.4538V16.352H100.366V26.84ZM97.2818 17.468C97.2338 20.876 95.1458 23.48 92.4338 24.764L91.9058 24.044C94.5578 22.88 96.1178 20.6 96.3098 18.236H92.2898V17.468H97.2818Z" fill="#C3C4CE"/>
<path fill-rule="evenodd" clip-rule="evenodd" d="M28.5978 27.1693C27.0722 27.4262 24.4808 27.2007 22.8086 24.7472C21.4389 22.7373 20.8616 20.12 20.6643 18.1786C20.5597 17.149 21.486 16.3909 22.4554 16.7459C24.0286 17.3221 26.1155 18.4054 27.9548 20.2293C30.3308 22.5854 30.0841 25.0966 29.504 26.4652C29.3445 26.8415 28.9999 27.1016 28.5978 27.1693ZM23.2634 19.6343C23.1949 19.4789 23.0134 19.4085 22.8581 19.477C22.7027 19.5455 22.6322 19.727 22.7007 19.8824C23.1352 20.8679 23.9342 22.026 24.8294 23.0471C25.7227 24.066 26.739 24.9797 27.6233 25.4541C27.773 25.5344 27.9593 25.4781 28.0396 25.3285C28.1199 25.1789 28.0637 24.9925 27.914 24.9122C27.1237 24.4883 26.1644 23.637 25.2918 22.6417C24.4213 21.6487 23.6642 20.5435 23.2634 19.6343Z" fill="#C3C4CE"/>
</svg>
