<svg width="24" height="24" viewBox="0 0 24 24" fill="none" xmlns="http://www.w3.org/2000/svg">
<path d="M8.55841 16.0309C11.186 19.8865 15.2582 20.2408 17.6557 19.8371C18.2875 19.7307 18.829 19.322 19.0796 18.7307C19.9913 16.5801 20.3789 12.6338 16.6452 8.93141C13.7549 6.06535 10.4755 4.36289 8.00328 3.4575C6.47999 2.89963 5.0244 4.091 5.18879 5.7089C5.49875 8.75957 6.40598 12.8726 8.55841 16.0309Z" stroke="#23B877"/>
<path d="M8.5584 16.0309C11.186 19.8865 15.2582 20.2408 17.6557 19.8371C18.2875 19.7307 18.829 19.322 19.0796 18.7307C19.9913 16.5801 20.3789 12.6338 16.6452 8.93141C13.7549 6.06534 10.4755 4.36289 8.00328 3.4575C6.47999 2.89963 5.0244 4.091 5.18879 5.7089C5.49875 8.75957 6.40598 12.8726 8.5584 16.0309Z" stroke="#23B877"/>
<path d="M8.89848 8.25097C10.2568 11.3321 13.9591 15.6118 16.6822 17.0726" stroke="#23B877" stroke-linecap="round"/>
</svg>
