<svg width="68" height="68" viewBox="0 0 68 68" fill="none" xmlns="http://www.w3.org/2000/svg">
<g filter="url(#filter0_d_3977_60589)">
<rect x="2.97266" y="18.9429" width="57.1531" height="39.8658" rx="11" fill="url(#paint0_linear_3977_60589)"/>
<ellipse opacity="0.3" cx="47.8189" cy="56.9801" rx="10.6587" ry="10.7804" fill="#FF916E"/>
<ellipse opacity="0.4" cx="47.8194" cy="56.9802" rx="9.59287" ry="9.70236" fill="#FF916E"/>
<ellipse cx="47.8205" cy="56.9799" rx="7.46112" ry="7.54628" fill="#FF916E"/>
<path d="M7.89844 57.812H53.1705C55.9226 57.812 58.1537 60.0431 58.1537 62.7952C58.1537 65.5474 55.9226 67.7785 53.1705 67.7785H12.8984C10.137 67.7785 7.89844 65.5399 7.89844 62.7785V57.812Z" fill="url(#paint1_linear_3977_60589)"/>
<path d="M8.88199 50.8358C8.65956 55.2225 10.6408 59.3072 10.9931 60.8022C11.3455 62.2972 11.426 62.9094 10.3601 62.9094H5.84298C4.05082 62.9094 2.59766 61.4566 2.59766 59.6644V41.7531C2.59766 24.2635 16.7757 10.0854 34.2653 10.0854H39.521C54.1079 10.0854 65.933 21.9105 65.933 36.4974V48.2305C65.933 56.3374 59.361 62.9094 51.2541 62.9094C50.5207 62.9094 57.6592 48.8425 49.2833 41.3676C37.6004 30.9416 9.86738 31.4012 8.88199 50.8358Z" fill="url(#paint2_linear_3977_60589)"/>
<path d="M60.3356 50.8357C60.3356 39.8726 54.9384 28.4925 45.3455 27.4145C7.87751 26.4551 7.71708 49.0395 11.842 61.3004C12.9845 63.5223 14.3457 66.2836 13.8128 66.2836C8.02478 66.2836 3.39593 61.3359 3.61378 55.552L4.30632 37.1653C4.88708 21.7465 17.5553 9.54639 32.985 9.54639H34.0491C50.7441 9.54639 63.6623 24.1768 61.595 40.7433L60.3356 50.8357C60.3356 51.8346 61.0862 52.0952 59.9544 53.8899L59.2222 59.7576C58.8438 62.7897 58.9509 65.0654 55.8952 65.0654C55.1618 65.0654 49.0352 65.6572 54.8685 59.7252C57.7653 56.7794 59.2375 55.0268 59.9544 53.8899L60.3356 50.8357Z" fill="url(#paint3_linear_3977_60589)"/>
<path d="M8.00866 57.5191C9.37588 61.8811 11.5783 62.9093 13.71 65.6044C14.8139 67 13.5329 67.7604 13 67.7604C6.37258 67.7604 1 62.3879 1 55.7604V34.4501C1 16.5284 15.5284 2 33.4501 2H34.5499C52.4716 2 67 16.5284 67 34.4501V52.9669C67 62.0904 61.3408 68.0723 52.2195 67.8742C49.5578 67.8164 47.5546 67.7604 47.3655 67.7604C46.6322 67.7604 47.6896 63.7828 51.5073 61.8811C56.675 59.307 58.6458 56.8154 59.6311 49.8389C63.8832 19.735 31.4472 13.4614 13.71 23.9262C0.809043 31.5376 7.02356 52.6341 8.00866 57.5191Z" fill="url(#paint4_linear_3977_60589)"/>
<path d="M47.3655 67.7604C47.5545 67.7604 49.5578 67.8164 52.2195 67.8742C61.3408 68.0723 67 62.0904 67 52.9669V34.4501C67 16.5284 52.4716 2 34.5499 2H33.4501C15.5284 2 1 16.5284 1 34.4501V55.0358C1 62.0634 6.69701 67.7604 13.7246 67.7604V67.7604" stroke="url(#paint5_linear_3977_60589)" stroke-width="0.2"/>
</g>
<defs>
<filter id="filter0_d_3977_60589" x="0" y="0" width="68" height="68" filterUnits="userSpaceOnUse" color-interpolation-filters="sRGB">
<feFlood flood-opacity="0" result="BackgroundImageFix"/>
<feColorMatrix in="SourceAlpha" type="matrix" values="0 0 0 0 0 0 0 0 0 0 0 0 0 0 0 0 0 0 127 0" result="hardAlpha"/>
<feOffset dy="-1"/>
<feComposite in2="hardAlpha" operator="out"/>
<feColorMatrix type="matrix" values="0 0 0 0 1 0 0 0 0 1 0 0 0 0 1 0 0 0 1 0"/>
<feBlend mode="normal" in2="BackgroundImageFix" result="effect1_dropShadow_3977_60589"/>
<feBlend mode="normal" in="SourceGraphic" in2="effect1_dropShadow_3977_60589" result="shape"/>
</filter>
<linearGradient id="paint0_linear_3977_60589" x1="38.5346" y1="24.3791" x2="41.1126" y2="58.7104" gradientUnits="userSpaceOnUse">
<stop stop-color="#FDA777"/>
<stop offset="1" stop-color="#E8FFC2"/>
</linearGradient>
<linearGradient id="paint1_linear_3977_60589" x1="17.7714" y1="63.7019" x2="45.3207" y2="54.7616" gradientUnits="userSpaceOnUse">
<stop stop-color="#71EFD1"/>
<stop offset="1" stop-color="#1DBFD6"/>
</linearGradient>
<linearGradient id="paint2_linear_3977_60589" x1="49.4961" y1="26.256" x2="33.9692" y2="62.7835" gradientUnits="userSpaceOnUse">
<stop stop-color="#3E4158"/>
<stop offset="1" stop-color="#6B6E82"/>
</linearGradient>
<linearGradient id="paint3_linear_3977_60589" x1="27.6495" y1="37.5754" x2="18.9814" y2="23.6487" gradientUnits="userSpaceOnUse">
<stop stop-color="#36394F"/>
<stop offset="1" stop-color="#24263A"/>
</linearGradient>
<linearGradient id="paint4_linear_3977_60589" x1="2.06588" y1="18.1706" x2="55.9331" y2="68.767" gradientUnits="userSpaceOnUse">
<stop stop-color="#1D1F29"/>
<stop offset="1" stop-color="#333642"/>
</linearGradient>
<linearGradient id="paint5_linear_3977_60589" x1="33.5181" y1="33.3943" x2="34.0111" y2="67.9998" gradientUnits="userSpaceOnUse">
<stop stop-color="white"/>
<stop offset="1" stop-color="white" stop-opacity="0"/>
</linearGradient>
</defs>
</svg>
