<svg width="48" height="60" viewBox="0 0 48 60" fill="none" xmlns="http://www.w3.org/2000/svg">
<path d="M26.667 46.665C26.667 47.457 25.765 47.908 24.159 47.963V48.667H28.097V49.36H19.418V48.667H23.323V47.963C21.739 47.897 20.87 47.446 20.87 46.665C20.87 45.796 21.904 45.356 23.763 45.356C25.622 45.356 26.667 45.796 26.667 46.665ZM26.953 52.649H20.562V49.899H26.953V52.649ZM26.117 51.978V50.581H21.398V51.978H26.117ZM27.558 45.015H19.957V44.333H27.558V45.015ZM25.798 46.665C25.798 46.192 24.94 46.016 23.763 46.016C22.597 46.016 21.728 46.192 21.728 46.665C21.728 47.138 22.597 47.314 23.763 47.314C24.94 47.314 25.798 47.138 25.798 46.665ZM25.446 43.86H22.135V43.167H25.446V43.86Z" fill="#4A4D63"/>
<path fill-rule="evenodd" clip-rule="evenodd" d="M24.0039 13C16.2719 13 10.0039 19.268 10.0039 27V34C10.0039 34.5523 10.4516 35 11.0039 35H17V33C17 29.134 20.134 26 24 26C27.866 26 31 29.134 31 33V35H37.0039C37.5562 35 38.0039 34.5523 38.0039 34V27C38.0039 19.268 31.7359 13 24.0039 13Z" fill="#4A4D63"/>
<path fill-rule="evenodd" clip-rule="evenodd" d="M26.1574 35.8267C25.1666 35.9936 23.4837 35.8472 22.3978 34.2538C21.5083 32.9485 21.1334 31.2488 21.0053 29.988C20.9373 29.3194 21.5389 28.827 22.1684 29.0576C23.1901 29.4318 24.5453 30.1353 25.7398 31.3198C27.2828 32.8499 27.1226 34.4807 26.7459 35.3695C26.6423 35.6138 26.4185 35.7828 26.1574 35.8267ZM22.6947 30.9334C22.6502 30.8325 22.5323 30.7868 22.4314 30.8312C22.3305 30.8757 22.2848 30.9936 22.3293 31.0945C22.6114 31.7346 23.1303 32.4866 23.7117 33.1497C24.2918 33.8114 24.9518 34.4048 25.5261 34.7129C25.6233 34.765 25.7443 34.7285 25.7964 34.6313C25.8486 34.5341 25.8121 34.4131 25.7149 34.361C25.2016 34.0857 24.5786 33.5328 24.012 32.8865C23.4466 32.2416 22.955 31.5238 22.6947 30.9334Z" fill="#4A4D63"/>
</svg>
