<svg width="90" height="48" viewBox="0 0 90 48" fill="none" xmlns="http://www.w3.org/2000/svg">
<rect x="12.5" y="12.5" width="65" height="23" rx="11.5" fill="#15171E"/>
<rect x="12.5" y="12.5" width="65" height="23" rx="11.5" stroke="#23B877"/>
<g clip-path="url(#clip0_3977_60401)">
<path fill-rule="evenodd" clip-rule="evenodd" d="M31.7708 22.1055H32.2917C32.8646 22.1055 33.3333 22.5487 33.3333 23.0904V28.0151C33.3333 28.5568 32.8646 29 32.2917 29H26.0417C25.4687 29 25 28.5568 25 28.0151V23.0904C25 22.5487 25.4687 22.1055 26.0417 22.1055H26.5625V21.4623C26.5625 20.1031 27.7292 19 29.1667 19C30.3475 19 31.3455 19.7443 31.6643 20.7635C31.702 20.884 31.607 21 31.4807 21H30.8494C30.7635 21 30.6884 20.9446 30.6532 20.8662C30.4073 20.3197 29.8337 19.9357 29.1667 19.9357C28.276 19.9357 27.5521 20.6202 27.5521 21.4623V22.1055H30.7813H30.7767H31.7663H31.7708ZM28.125 25.5528C28.125 26.0945 28.5937 26.5377 29.1667 26.5377C29.7396 26.5377 30.2083 26.0945 30.2083 25.5528C30.2083 25.0111 29.7396 24.5678 29.1667 24.5678C28.5937 24.5678 28.125 25.0111 28.125 25.5528Z" fill="#23B877"/>
</g>
<path d="M50.6664 26.955C50.6664 28.033 49.4674 28.682 47.2234 28.682C44.9794 28.682 43.7584 28.033 43.7584 26.955C43.7584 25.877 44.9794 25.217 47.2234 25.217C49.4674 25.217 50.6664 25.877 50.6664 26.955ZM49.8414 26.955C49.8414 26.295 48.8294 25.899 47.2234 25.899C45.5954 25.899 44.5944 26.295 44.5944 26.955C44.5944 27.626 45.5954 28.011 47.2234 28.011C48.8294 28.011 49.8414 27.626 49.8414 26.955ZM51.5794 24.436H42.9004V23.743H46.4754V21.708H47.3114V23.743H51.5794V24.436ZM50.5564 19.684V20.542C50.5564 21.345 50.4354 22.511 50.2814 23.105L49.4564 22.995C49.6104 22.467 49.6764 21.598 49.6874 21.158L49.6984 20.377H43.8574V19.684H50.5564ZM60.525 28.77H59.7V23.633H58.446V28.286H57.621V19.387H58.446V22.94H59.7V19.156H60.525V28.77ZM56.565 20.289C56.532 23.149 55.223 25.393 52.946 26.768L52.385 26.152C54.42 24.997 55.597 22.951 55.685 20.993H52.715V20.289H56.565Z" fill="#23B877"/>
<defs>
<clipPath id="clip0_3977_60401">
<rect width="9" height="10" fill="white" transform="translate(25 19)"/>
</clipPath>
</defs>
</svg>
