<svg width="12" height="15" viewBox="0 0 12 15" fill="none" xmlns="http://www.w3.org/2000/svg">
<path d="M10.5 4.84772H9.75V3.94724C9.75 2.04436 8.07 0.5 6 0.5C3.93 0.5 2.25 2.04436 2.25 3.94724V4.84772H1.5C0.675 4.84772 0 5.46823 0 6.22662V13.1211C0 13.8795 0.675 14.5 1.5 14.5H10.5C11.325 14.5 12 13.8795 12 13.1211V6.22662C12 5.46823 11.325 4.84772 10.5 4.84772ZM6 11.0528C5.175 11.0528 4.5 10.4323 4.5 9.67386C4.5 8.91547 5.175 8.29496 6 8.29496C6.825 8.29496 7.5 8.91547 7.5 9.67386C7.5 10.4323 6.825 11.0528 6 11.0528ZM8.325 4.84772H3.675V3.94724C3.675 2.76828 4.7175 1.80995 6 1.80995C7.2825 1.80995 8.325 2.76828 8.325 3.94724V4.84772Z" fill="white"/>
</svg>
