<svg width="95" height="100" viewBox="0 0 95 100" fill="none" xmlns="http://www.w3.org/2000/svg">
<path fill-rule="evenodd" clip-rule="evenodd" d="M45.3034 60.2012C46.3073 53.5785 45.9017 39.842 44.5331 33.4971C44.4412 33.0709 44.8893 32.7158 45.2706 32.9272C46.3683 33.536 47.8057 34.4152 48.7875 35.3442C49.1385 35.6763 49.9045 35.507 49.975 35.029C50.0951 34.2136 50.2044 33.3624 50.3163 32.492C50.8783 28.1171 51.503 23.2536 53.8762 19.9818C54.1514 19.6024 54.7357 19.8372 54.7655 20.305C55.0207 24.3178 57.3244 30.126 59.3988 32.0585C59.6087 32.2541 59.9327 32.1847 60.0725 31.9341C61.9596 28.5535 62.9693 23.6672 64.1174 18.111C64.8277 14.6735 65.591 10.9796 66.6479 7.22715C66.7463 6.87754 67.1527 6.76958 67.3473 7.07623C68.913 9.54245 70.3795 16.9715 70.7833 20.5459C70.8371 21.0223 71.4389 21.1793 71.6634 20.7556C72.8101 18.5911 74.3859 14.7078 75.9308 10.9008C77.6595 6.64074 79.3494 2.47634 80.3556 0.923491C80.5591 0.609488 80.8974 0.760128 80.9346 1.13243C81.1473 3.25956 82.0641 6.43838 82.7676 8.12001C82.8792 8.38682 83.1965 8.48629 83.4446 8.33769C86.2904 6.63338 91.057 3.13782 94.2032 0.143747C94.5284 -0.165661 95.0514 0.0568102 95 0.50269C94.4 5.71094 90.4544 16.2323 86.1123 20.1853C85.7727 20.4945 85.9277 21.0816 86.3869 21.0913C88.47 21.1352 91.421 20.7717 93.9137 20.2294C94.3477 20.135 94.7027 20.6065 94.4846 20.9934C94.3816 21.1762 94.2769 21.3628 94.1701 21.553C91.3815 26.5206 87.2422 33.8945 77.1662 38.6723C76.6678 38.9087 76.815 39.4869 77.3549 39.3741C80.4284 38.7322 84.7517 37.3037 88.2902 36.0976C88.7734 35.9329 89.1734 36.5188 88.8463 36.9107C88.6671 37.1255 88.4823 37.3475 88.2927 37.5753C85.7815 40.5922 82.4189 44.632 79.8638 46.395C79.5289 46.626 79.5415 47.1501 79.9148 47.312C81.4069 47.9591 83.279 48.5326 84.7145 48.784C85.1659 48.863 85.384 49.4836 85.0413 49.7879C82.332 52.1941 77.591 56.0442 71.9743 56.2939C71.4536 56.317 71.216 57.0358 71.6715 57.2892C73.2931 58.1916 75.4109 59.0478 78.0531 59.2541C78.4886 59.2881 78.6153 59.8931 78.2039 60.04C68.8122 63.3955 51.6415 62.7926 45.6169 60.7358C45.3917 60.6589 45.2678 60.4364 45.3034 60.2012ZM18.8143 61.0916C18.8219 61.4946 18.8367 62.0106 18.8542 62.6207C18.9984 67.6568 19.3262 79.1045 17.3512 86.3064C17.2207 86.7825 17.7848 87.1911 18.1807 86.9136C18.2287 86.9439 18.2859 86.9641 18.3513 86.9701C19.5353 87.0789 21.0105 87.0916 22.7982 87.1071C27.2653 87.1457 33.683 87.2012 42.3807 88.8135C42.7274 88.8778 42.9717 88.5036 42.7452 88.2313C41.4689 86.6969 39.6953 85.5945 38.5323 84.8717L38.5322 84.8716C37.7628 84.3934 37.2607 84.0813 37.3467 83.9201C37.6528 83.3463 52.5004 83.8663 61.8401 84.7945C62.2358 84.8339 62.4346 84.3363 62.1215 84.0879C60.7671 83.0133 58.4097 81.186 56.8813 80.242C56.6069 80.0724 56.61 79.6677 56.9139 79.566C58.1139 79.1643 59.7455 79.124 62.0865 79.0662H62.0867C63.5017 79.0313 65.1758 78.9899 67.1703 78.8585C67.5557 78.8331 67.6656 78.3436 67.3221 78.1628C62.2088 75.4714 54.0574 73.7819 50.3556 73.7817C47.0483 73.7815 55.0886 68.5634 57.8746 66.8155C58.1875 66.6192 58.085 66.1408 57.7174 66.0928C52.2407 65.3778 44.3026 65.9592 36.5429 71.1746C41.9955 62.6716 42.6296 51.0282 42.1481 47.2838C42.091 46.8395 41.7177 46.8888 41.5228 47.2921C40.9273 48.5249 39.5796 49.7532 38.5838 50.6454C38.2502 50.9443 37.6547 50.701 37.5991 50.2565C37.2425 47.4011 35.8234 43.2247 34.5129 40.6757C34.2894 40.2409 33.6987 40.4076 33.6798 40.8961C33.3914 48.3633 31.1104 53.623 29.294 56.6752C29.0794 57.0358 28.5339 56.9727 28.3611 56.5902C27.0007 53.5799 23.8758 49.7538 24.7693 52.4896C25.3976 54.4133 25.7627 64.656 23.7759 68.7115C23.5275 69.2185 22.5341 67.1907 21.4785 65.0362C20.6465 63.3379 19.7759 61.5609 19.2012 60.8845C19.0224 60.674 18.809 60.8155 18.8143 61.0916Z" fill="#36394F"/>
<path fill-rule="evenodd" clip-rule="evenodd" d="M63.7856 40.6139C64.2015 40.9593 64.2744 41.5966 63.9484 42.0373C34.9381 79.2736 16.5345 89.8861 2.77159 98.7026L2.45208 98.9073C1.99987 99.197 1.41162 99.0434 1.13818 98.5643C0.864752 98.0851 1.00968 97.4618 1.4619 97.1721C1.58054 97.0961 1.69964 97.0198 1.8192 96.9432C15.4584 88.2063 33.3052 77.641 62.4422 40.7864C62.7682 40.3457 63.3696 40.2685 63.7856 40.6139Z" fill="#4A4D63" stroke="#4A4D63" stroke-width="0.5" stroke-linecap="round"/>
<ellipse cx="9.42076" cy="60.1909" rx="1.65513" ry="1.65913" fill="#6B6E82"/>
<path fill-rule="evenodd" clip-rule="evenodd" d="M57.5516 95.8347C58.3117 95.8347 58.9404 96.4561 58.9404 97.2382C58.9404 98.0203 58.3117 98.6417 57.5516 98.6417C56.7915 98.6417 56.1627 98.0203 56.1627 97.2382C56.1627 96.4561 56.7915 95.8347 57.5516 95.8347ZM57.5516 94.473C59.0708 94.473 60.3024 95.711 60.3024 97.2382C60.3024 98.7654 59.0708 100.003 57.5516 100.003C56.0324 100.003 54.8008 98.7654 54.8008 97.2382C54.8008 95.711 56.0324 94.473 57.5516 94.473Z" fill="#4A4D63"/>
<ellipse cx="1.10051" cy="1.10609" rx="1.10051" ry="1.10609" transform="matrix(1 0 0 -1 62.1758 93.9204)" fill="#9093A8"/>
</svg>
