<svg width="376" height="378" viewBox="0 0 376 378" fill="none" xmlns="http://www.w3.org/2000/svg">
<g clip-path="url(#clip0_4968_62726)">
<mask id="path-1-inside-1_4968_62726" fill="white">
<path d="M38 28H338V180C338 191.046 329.046 200 318 200H58C46.9543 200 38 191.046 38 180V28Z"/>
</mask>
<path d="M38 28H338V180C338 191.046 329.046 200 318 200H58C46.9543 200 38 191.046 38 180V28Z" fill="#1D1F29"/>
<g clip-path="url(#clip1_4968_62726)">
<g clip-path="url(#clip2_4968_62726)">
<rect x="52.418" y="-19.6516" width="271.494" height="48.0521" rx="9.61042" fill="#15171E"/>
</g>
</g>
<g clip-path="url(#clip3_4968_62726)">
<rect x="52.418" y="38.011" width="271.494" height="48.0521" rx="9.61042" fill="#15171E"/>
<path d="M100.073 57.1137H98.6678V54.2065H96.8419V53.0893H98.6678V50.8669H100.073V57.1137ZM97.6227 55.612L96.8178 56.7052C96.013 56.3809 94.9078 55.5279 94.4393 54.5309C94.1149 55.624 92.9496 56.6331 91.9526 56.9695L91.1116 55.8523C92.6613 55.2877 93.6944 54.0383 93.6944 52.4166V51.3594H95.148V52.3445C95.148 54.0023 96.3734 55.2036 97.6227 55.612ZM100.145 59.4081C100.145 60.7056 98.8 61.5585 96.4574 61.5585C94.1509 61.5585 92.8175 60.7056 92.8175 59.4081C92.8175 58.0747 94.1509 57.2338 96.4574 57.2338C98.8 57.2338 100.145 58.0747 100.145 59.4081ZM96.4574 58.363C95.0759 58.363 94.2591 58.7594 94.2591 59.4081C94.2591 60.0448 95.0759 60.4293 96.4574 60.4293C97.899 60.4293 98.6919 60.0448 98.6919 59.4081C98.6919 58.7594 97.899 58.363 96.4574 58.363ZM110.131 59.4081C110.131 60.7296 108.762 61.5585 106.395 61.5585C104.028 61.5585 102.671 60.7296 102.671 59.4081C102.671 58.0747 104.028 57.2578 106.395 57.2578C108.762 57.2578 110.131 58.0747 110.131 59.4081ZM101.758 52.7649V51.6117H107.392V52.7649H105.362C105.482 54.2666 106.551 55.2637 107.728 55.6481L106.96 56.7533C106.131 56.4409 105.11 55.6361 104.641 54.651C104.317 55.6961 103.188 56.6932 102.154 57.0536L101.326 55.9604C102.815 55.4198 103.812 54.2786 103.896 52.7649H101.758ZM111.513 54.5789H109.987V57.1257H108.569V50.8669H109.987V53.4257H111.513V54.5789ZM106.395 58.387C104.929 58.387 104.089 58.7594 104.089 59.4081C104.089 60.0568 104.929 60.4413 106.395 60.4413C107.885 60.4413 108.714 60.0568 108.714 59.4081C108.714 58.7594 107.885 58.387 106.395 58.387ZM125.002 55.2396H123.645V58.8195H122.251V50.8669H123.645V54.0744H125.002V55.2396ZM123.921 61.2822H116.605V58.1348H118.023V60.165H123.921V61.2822ZM121.759 57.0776C120.99 57.1617 119.56 57.3059 118.431 57.3419C117.194 57.39 115.812 57.45 115.104 57.45L114.923 56.3088C115.56 56.3088 116.281 56.2968 116.978 56.2848V54.1344H118.371V56.2487C119.332 56.2247 120.942 56.1166 121.651 56.0085L121.759 57.0776ZM121.05 51.6237C121.05 53.3896 120.978 54.5909 120.75 55.4318L119.416 55.2396C119.56 54.699 119.633 53.75 119.633 52.7409H115.584V51.6237H121.05ZM131.192 57.1857C130.267 57.39 128.777 57.474 127.36 57.474H125.942V53.9783H129.246V52.837H125.942V51.7198H130.663V55.0354H127.36V56.3568H127.768C128.969 56.3568 130.291 56.3088 131.012 56.1046C131.084 56.465 131.132 56.8253 131.192 57.1857ZM134.399 58.7715H132.994V56.1046H131.432V54.9874H132.994V53.786H131.42V52.6448H132.994V50.8669H134.399V58.7715ZM134.64 61.3302H127.288V58.1468H128.681V60.225H134.64V61.3302ZM147.601 56.6451H144.622V59.1198H148.778V60.225H139.108V59.1198H143.216V56.6451H140.357V51.6477H147.541V52.7649H141.763V55.5279H147.601V56.6451ZM158.367 61.5705H156.95V55.6721H155.016V54.4828H156.95V50.8669H158.367V61.5705ZM156.013 58.1348L155.208 59.1919C154.319 58.6513 153.106 57.3059 152.745 56.1887C152.397 57.414 151.304 58.7715 150.186 59.3721L149.346 58.339C151.063 57.2218 152 55.5279 152 53.4016V51.7679H153.442V53.3296C153.442 55.4438 154.403 57.1016 156.013 58.1348ZM171.893 56.5731H170.5V50.8669H171.893V56.5731ZM168.517 57.1257H171.917V61.6185H170.5V58.1588H168.517V57.1257ZM168.806 61.2822C167.869 61.4624 166.824 61.5465 165.634 61.5465H164.469V58.8916H166.643V58.1588H164.421V57.1257H168.025V59.8166H165.839V60.5133C166.8 60.5133 167.977 60.4653 168.65 60.2851L168.806 61.2822ZM163.388 53.8221C163.388 52.4045 164.601 51.2994 166.223 51.2994C167.857 51.2994 169.058 52.3805 169.058 53.8221C169.058 55.2516 167.857 56.2367 166.223 56.2367C164.661 56.2367 163.388 55.2877 163.388 53.8221ZM164.769 53.8101C164.769 54.5188 165.394 55.0955 166.223 55.0955C167.112 55.0955 167.677 54.4828 167.677 53.8101C167.677 53.0893 167.136 52.4526 166.223 52.4526C165.43 52.4526 164.769 53.1013 164.769 53.8101ZM183.116 60.0689H173.446V58.9516H176.917V55.3477H178.323V58.9516H183.116V60.0689ZM182.011 51.8039C182.059 54.4948 181.927 56.4529 181.554 57.8705L180.209 57.7023C180.545 56.465 180.629 54.4107 180.593 52.9331H174.479V51.8039H182.011ZM196.666 60.0568H186.995V58.9516H196.666V60.0568ZM195.441 51.9601C195.441 54.9994 195.2 56.9815 194.948 58.315L193.579 58.1828C193.819 57.1137 194.047 54.8312 194.035 53.0653H188.101V51.9601H195.441ZM206.147 57.45H202.904V59.1198H207.06V60.237H197.39V59.1198H201.498V57.45H198.627V53.9062H204.441V52.6688H198.567V51.5516H205.835V55.0234H200.02V56.3208H206.147V57.45ZM208.925 58.0146H211.892V56.8974H207.784V55.7682H217.454V56.8974H213.298V58.0146H216.205V61.5825H214.811V59.1318H208.925V58.0146ZM217.334 54.0744L216.589 55.0714C216.049 54.9033 215.22 54.1825 214.907 53.5698C214.619 54.2666 213.838 54.9994 213.165 55.2757L212.337 54.3026C213.49 53.8942 214.223 52.7289 214.223 51.6597V51.0951H215.58V51.6597C215.58 52.6808 216.193 53.714 217.334 54.0744ZM212.577 53.6899L211.796 54.687C211.34 54.4828 210.787 54.0143 210.523 53.5338C210.258 54.1224 209.49 54.8672 208.781 55.1555L207.952 54.1585C209.165 53.702 209.85 52.6688 209.85 51.6597V51.1552H211.219V51.6597C211.219 52.6328 211.664 53.3416 212.577 53.6899ZM225.145 61.078H223.824V56.0925H222.911C222.791 57.8224 222.094 59.3481 220.592 59.3481C218.947 59.3481 218.286 57.462 218.286 55.4919C218.286 53.5458 218.947 51.6718 220.592 51.6718C222.106 51.6718 222.791 53.1974 222.911 54.9393H223.824V51.0711H225.145V61.078ZM227.284 61.5705H225.962V50.8669H227.284V61.5705ZM221.625 55.5039C221.625 54.0744 221.325 52.8971 220.604 52.8971C219.908 52.8971 219.607 54.0744 219.607 55.5039C219.607 56.9335 219.908 58.0987 220.604 58.0987C221.325 58.0987 221.625 56.9335 221.625 55.5039ZM240.101 50.8669V54.9753H241.686V56.1406H240.101V61.5705H238.671V50.8669H240.101ZM231.812 55.4318C231.812 53.1734 232.845 51.5997 234.587 51.5997C236.341 51.5997 237.362 53.1734 237.362 55.4318C237.362 57.6663 236.341 59.24 234.587 59.24C232.845 59.24 231.812 57.6783 231.812 55.4318ZM236.016 55.4318C236.016 53.738 235.416 52.7289 234.587 52.7289C233.782 52.7289 233.181 53.738 233.181 55.4318C233.181 57.1137 233.782 58.1107 234.587 58.1107C235.416 58.1107 236.016 57.1137 236.016 55.4318ZM247.6 51.9481C247.6 55.552 246.038 58.1228 242.842 59.7805L241.978 58.7835C243.467 58.0987 244.692 56.9935 245.425 55.588L242.458 55.9124C242.398 55.5039 242.338 55.1075 242.266 54.699L245.894 54.4348C246.002 54.0143 246.086 53.5698 246.122 53.1133H242.794V51.9481H247.6ZM250.483 50.8669V54.9753H251.984V56.1406H250.483V61.5705H249.089V50.8669H250.483ZM261.357 61.5705H259.964V50.8669H261.357V61.5705ZM252.816 55.4318C252.816 53.1734 253.837 51.5997 255.579 51.5997C257.333 51.5997 258.354 53.1734 258.354 55.4318C258.354 57.6663 257.333 59.24 255.579 59.24C253.837 59.24 252.816 57.6783 252.816 55.4318ZM257.009 55.4318C257.009 53.738 256.408 52.7289 255.579 52.7289C254.774 52.7289 254.186 53.738 254.186 55.4318C254.186 57.1137 254.774 58.1107 255.579 58.1107C256.408 58.1107 257.009 57.1137 257.009 55.4318ZM271.751 57.1257H270.358V50.8669H271.751V57.1257ZM268.484 56.477H263.414V51.4795H264.82V52.9812H267.078V51.4555H268.484V56.477ZM267.078 55.3718V54.0864H264.82V55.3718H267.078ZM271.836 59.4081C271.836 60.7056 270.49 61.5585 268.148 61.5585C265.841 61.5585 264.508 60.7056 264.508 59.4081C264.508 58.0747 265.841 57.2338 268.148 57.2338C270.49 57.2338 271.836 58.0747 271.836 59.4081ZM268.148 58.363C266.766 58.363 265.937 58.7594 265.937 59.4081C265.937 60.0448 266.766 60.4293 268.148 60.4293C269.577 60.4293 270.382 60.0448 270.382 59.4081C270.382 58.7594 269.577 58.363 268.148 58.363ZM279.467 54.5309H273.256V53.4136H279.467V54.5309ZM274.757 52.6688V51.5636H278.061V52.6688H274.757ZM281.677 50.8669V55.2036H283.167V56.3688H281.677V61.5705H280.259V50.8669H281.677ZM273.784 57.2098C273.784 55.9003 274.83 54.9033 276.367 54.9033C277.905 54.9033 278.95 55.8643 278.95 57.2098C278.95 58.5192 277.905 59.5163 276.367 59.5163C274.83 59.5163 273.784 58.5672 273.784 57.2098ZM275.154 57.2098C275.154 57.9065 275.658 58.375 276.367 58.375C277.148 58.375 277.581 57.9065 277.581 57.2098C277.581 56.501 277.064 56.0325 276.367 56.0325C275.67 56.0325 275.154 56.501 275.154 57.2098ZM292.552 61.5705H291.146V50.8669H292.552V61.5705ZM289.26 51.9841C289.176 55.2156 287.746 57.8585 284.479 59.6364L283.614 58.5792C285.956 57.5101 287.554 55.2757 287.746 53.1494H284.263V51.9841H289.26Z" fill="#9093A8"/>
<path d="M94.8237 70.2137C94.8237 71.2797 94.1365 72.0638 93.0618 72.0638C91.987 72.0638 91.2822 71.2797 91.2822 70.2137C91.2822 69.1566 91.987 68.3814 93.053 68.3814C94.1277 68.3814 94.8237 69.1478 94.8237 70.2137ZM97.6868 72.4954H97.0173V70.4868H96.0922V72.4249H95.4492V68.0995H96.0922V69.9318H97.0173V67.9585H97.6868V72.4954ZM94.163 70.2226C94.163 69.4914 93.7665 68.954 93.053 68.954C92.3482 68.954 91.9429 69.4914 91.9429 70.2137C91.9429 70.9449 92.3482 71.4999 93.053 71.4999C93.7665 71.4999 94.163 70.9449 94.163 70.2226ZM97.6868 75.6581H97.0084V73.4469H92.4891V72.8919H97.6868V75.6581ZM103.019 71.2973V70.7335H104.437V69.6852H103.019V69.1214H104.437V67.9585H105.106V73.5261H104.437V71.2973H103.019ZM103.309 71.9228L102.913 72.4514C102.12 72.0726 101.362 71.3678 101.036 70.5837C100.799 71.3942 99.9793 72.2664 99.1424 72.698L98.7284 72.1783C99.7591 71.7202 100.684 70.6542 100.684 69.4209V68.4078H101.362V69.3945C101.362 70.6807 102.393 71.588 103.309 71.9228ZM105.274 75.4202H100.156V73.068H100.825V74.8652H105.274V75.4202ZM115.316 74.2221C115.316 75.0942 114.338 75.6404 112.691 75.6404C111.044 75.6404 110.074 75.0942 110.074 74.2221C110.074 73.3499 111.044 72.8038 112.691 72.8038C114.338 72.8038 115.316 73.3499 115.316 74.2221ZM115.246 72.8214H114.576V70.5573H113.616V72.4426H112.964V68.0995H113.616V69.9935H114.576V67.9585H115.246V72.8214ZM112.691 73.3676C111.519 73.3676 110.779 73.7023 110.779 74.2221C110.779 74.7507 111.519 75.0854 112.691 75.0854C113.871 75.0854 114.603 74.7507 114.603 74.2221C114.603 73.7023 113.871 73.3676 112.691 73.3676ZM112.647 71.6321L112.286 72.143C111.599 71.8171 110.938 71.1388 110.674 70.5397C110.48 71.1652 109.81 71.9933 109.097 72.4073L108.683 71.8964C109.502 71.4559 110.33 70.5221 110.33 69.368V68.4078H110.982V69.3504C110.982 70.5309 111.916 71.3149 112.647 71.6321ZM121.996 70.2842H120.34V69.7292H121.996V67.9585H122.665V72.7421H121.996V70.2842ZM122.745 74.1957C122.745 75.0942 121.82 75.6492 120.163 75.6492C118.516 75.6492 117.591 75.0942 117.591 74.1957C117.591 73.2971 118.516 72.7421 120.163 72.7421C121.82 72.7421 122.745 73.2971 122.745 74.1957ZM120.163 73.2883C118.983 73.2883 118.269 73.623 118.269 74.1957C118.269 74.7771 118.983 75.103 120.163 75.103C121.362 75.103 122.066 74.7771 122.066 74.1957C122.066 73.623 121.362 73.2883 120.163 73.2883ZM120.754 71.6233L120.357 72.143C119.617 71.7907 118.851 71.1211 118.551 70.3547C118.313 71.1476 117.582 71.958 116.692 72.4073L116.278 71.8876C117.388 71.3766 118.19 70.3899 118.19 69.1654V68.399H118.868V69.1478C118.868 70.3811 119.882 71.3061 120.754 71.6233ZM131.113 72.5747C130.558 72.6364 129.589 72.7421 128.673 72.7949C127.81 72.8478 126.832 72.883 126.285 72.883L126.18 72.2928C126.717 72.3016 127.466 72.2928 128.224 72.2576V71.4823C127.255 71.359 126.611 70.7511 126.611 69.9054C126.611 68.9892 127.422 68.3021 128.576 68.3021C129.739 68.3021 130.532 68.9892 130.532 69.9142C130.532 70.7687 129.88 71.3678 128.893 71.4823V72.2311C129.721 72.1871 130.593 72.099 131.06 72.0373L131.113 72.5747ZM133.412 71.1564H132.25V73.7728H131.571V67.9585H132.25V70.5926H133.412V71.1564ZM129.889 69.9054C129.889 69.3152 129.386 68.8747 128.576 68.8747C127.765 68.8747 127.281 69.3328 127.281 69.9054C127.281 70.5397 127.765 70.9361 128.576 70.9361C129.386 70.9361 129.889 70.5045 129.889 69.9054ZM132.452 75.4907H127.36V73.3852H128.03V74.9357H132.452V75.4907ZM140.233 72.6188H138.991V74.1164H140.885V74.6802H133.934V74.1164H135.872V72.6188H134.78V70.2754H139.343V69.0949H134.806V68.5311H140.013V70.8304H135.458V72.0638H140.233V72.6188ZM136.542 72.6188V74.1164H138.33V72.6188H136.542ZM142.112 73.3411L142.006 68.443H142.808L142.702 73.3411H142.112ZM142.032 74.8388V74.0547H142.79V74.8388H142.032Z" fill="#9093A8"/>
<g clip-path="url(#clip4_4968_62726)">
<g clip-path="url(#clip5_4968_62726)">
<path d="M69.6822 65.4684C71.7866 68.5562 75.0479 68.8399 76.9679 68.5167C77.474 68.4315 77.9076 68.1041 78.1083 67.6306C78.8384 65.9082 79.1489 62.7478 76.1586 59.7826C73.8439 57.4873 71.2175 56.1238 69.2376 55.3987C68.0177 54.952 66.8519 55.9061 66.9836 57.2018C67.2318 59.645 67.9584 62.939 69.6822 65.4684Z" fill="#0B663E" stroke="#36394F" stroke-width="0.800868"/>
<path d="M69.9571 59.2374C71.0449 61.705 74.0099 65.1325 76.1908 66.3024" stroke="#36394F" stroke-width="0.800868" stroke-linecap="round"/>
</g>
</g>
</g>
<g opacity="0.7">
<mask id="path-11-inside-2_4968_62726" fill="white">
<path d="M38 126.907H338.326V213.401H38V126.907Z"/>
</mask>
<path d="M38 126.907H338.326V213.401H38V126.907Z" fill="#1D1F29"/>
<path d="M38 127.308H338.326V126.507H38V127.308Z" fill="#4A4D63" mask="url(#path-11-inside-2_4968_62726)"/>
<path fill-rule="evenodd" clip-rule="evenodd" d="M90.8606 140.522C84.6683 140.522 79.6484 145.542 79.6484 151.734V157.34C79.6484 157.783 80.007 158.141 80.4493 158.141H84.4504V156.539C84.4504 153.001 87.3189 150.132 90.8573 150.132C94.3958 150.132 97.2643 153.001 97.2643 156.539V158.141H101.272C101.714 158.141 102.073 157.783 102.073 157.34V151.734C102.073 145.542 97.0529 140.522 90.8606 140.522Z" fill="#23B877"/>
<path fill-rule="evenodd" clip-rule="evenodd" d="M92.5874 158.803C91.7939 158.937 90.4462 158.82 89.5765 157.544C88.8641 156.498 88.5638 155.137 88.4612 154.127C88.4068 153.592 88.8886 153.197 89.3928 153.382C90.211 153.682 91.2964 154.245 92.253 155.194C93.4887 156.419 93.3605 157.725 93.0587 158.437C92.9758 158.633 92.7966 158.768 92.5874 158.803ZM89.815 154.884C89.7794 154.804 89.685 154.767 89.6042 154.803C89.5234 154.838 89.4868 154.933 89.5224 155.013C89.7484 155.526 90.1639 156.128 90.6295 156.659C91.0941 157.189 91.6227 157.664 92.0826 157.911C92.1604 157.953 92.2574 157.924 92.2991 157.846C92.3409 157.768 92.3116 157.671 92.2338 157.629C91.8228 157.409 91.3238 156.966 90.87 156.448C90.4172 155.932 90.0235 155.357 89.815 154.884Z" fill="#23B877"/>
<path d="M92.9918 166.873C92.9918 167.507 92.2694 167.868 90.9832 167.912V168.476H94.1371V169.031H87.1863V168.476H90.3137V167.912C89.0451 167.86 88.3492 167.498 88.3492 166.873C88.3492 166.177 89.1773 165.825 90.6661 165.825C92.1549 165.825 92.9918 166.177 92.9918 166.873ZM93.2209 171.665H88.1025V169.463H93.2209V171.665ZM92.5513 171.128V170.009H88.772V171.128H92.5513ZM93.7054 165.551H87.618V165.005H93.7054V165.551ZM92.2959 166.873C92.2959 166.494 91.6087 166.353 90.6661 166.353C89.7323 166.353 89.0363 166.494 89.0363 166.873C89.0363 167.252 89.7323 167.393 90.6661 167.393C91.6087 167.393 92.2959 167.252 92.2959 166.873ZM92.014 164.626H89.3623V164.071H92.014V164.626Z" fill="#23B877"/>
<g clip-path="url(#clip6_4968_62726)">
<g clip-path="url(#clip7_4968_62726)">
<path d="M184.039 142.925H197.253" stroke="#4A4D63" stroke-width="2.00217" stroke-linecap="round"/>
<path d="M184.039 149.332H197.253" stroke="#4A4D63" stroke-width="2.00217" stroke-linecap="round"/>
<path d="M184.039 155.739H197.253" stroke="#4A4D63" stroke-width="2.00217" stroke-linecap="round"/>
<mask id="path-19-inside-3_4968_62726" fill="white">
<path fill-rule="evenodd" clip-rule="evenodd" d="M180.152 144.741C180.676 144.2 180.742 142.992 180.032 142.046C179.339 141.123 177.189 140.266 176.752 140.593C176.315 140.92 176.639 143.354 177.232 144.143C177.974 145.132 179.248 145.259 179.888 144.936C179.78 144.719 179.501 144.212 178.887 143.355C178.342 142.594 177.824 141.985 177.523 141.647C177.511 141.633 177.532 141.612 177.546 141.625C178.234 142.287 179.3 143.438 180.152 144.741Z"/>
</mask>
<path fill-rule="evenodd" clip-rule="evenodd" d="M180.152 144.741C180.676 144.2 180.742 142.992 180.032 142.046C179.339 141.123 177.189 140.266 176.752 140.593C176.315 140.92 176.639 143.354 177.232 144.143C177.974 145.132 179.248 145.259 179.888 144.936C179.78 144.719 179.501 144.212 178.887 143.355C178.342 142.594 177.824 141.985 177.523 141.647C177.511 141.633 177.532 141.612 177.546 141.625C178.234 142.287 179.3 143.438 180.152 144.741Z" fill="#4A4D63"/>
<path d="M180.032 142.046L180.078 142.011H180.078L180.032 142.046ZM180.152 144.741L180.193 144.781L180.143 144.833L180.103 144.773L180.152 144.741ZM176.752 140.593L176.718 140.547V140.547L176.752 140.593ZM177.232 144.143L177.186 144.178V144.178L177.232 144.143ZM179.888 144.936L179.94 144.91L179.965 144.961L179.914 144.987L179.888 144.936ZM178.887 143.355L178.934 143.322L178.887 143.355ZM177.523 141.647L177.48 141.685L177.48 141.685L177.523 141.647ZM177.546 141.625L177.505 141.667L177.505 141.667L177.546 141.625ZM180.078 142.011C180.441 142.494 180.606 143.045 180.612 143.544C180.619 144.043 180.469 144.497 180.193 144.781L180.11 144.701C180.358 144.444 180.503 144.023 180.497 143.546C180.49 143.07 180.333 142.543 179.985 142.081L180.078 142.011ZM176.718 140.547C176.785 140.496 176.88 140.472 176.987 140.466C177.095 140.46 177.222 140.47 177.362 140.495C177.641 140.545 177.977 140.652 178.319 140.798C179 141.088 179.722 141.538 180.078 142.011L179.985 142.081C179.648 141.632 178.949 141.192 178.273 140.904C177.937 140.761 177.61 140.657 177.342 140.609C177.207 140.585 177.09 140.576 176.994 140.582C176.897 140.587 176.829 140.608 176.787 140.639L176.718 140.547ZM177.186 144.178C177.031 143.973 176.898 143.665 176.79 143.319C176.682 142.971 176.599 142.579 176.548 142.203C176.498 141.826 176.48 141.462 176.502 141.17C176.513 141.025 176.534 140.895 176.568 140.79C176.601 140.686 176.649 140.598 176.718 140.547L176.787 140.639C176.747 140.67 176.709 140.73 176.678 140.825C176.648 140.918 176.628 141.039 176.617 141.179C176.596 141.46 176.613 141.816 176.663 142.187C176.713 142.558 176.795 142.944 176.9 143.284C177.007 143.626 177.136 143.919 177.278 144.109L177.186 144.178ZM179.914 144.987C179.579 145.156 179.087 145.205 178.585 145.088C178.082 144.97 177.566 144.684 177.186 144.178L177.278 144.109C177.64 144.591 178.132 144.863 178.612 144.975C179.093 145.088 179.557 145.038 179.862 144.884L179.914 144.987ZM179.836 144.961C179.73 144.748 179.452 144.243 178.84 143.389L178.934 143.322C179.549 144.18 179.83 144.69 179.94 144.91L179.836 144.961ZM178.84 143.389C178.296 142.63 177.78 142.023 177.48 141.685L177.566 141.608C177.868 141.948 178.387 142.558 178.934 143.322L178.84 143.389ZM177.48 141.685C177.465 141.669 177.459 141.648 177.462 141.628C177.464 141.61 177.474 141.595 177.484 141.584C177.495 141.574 177.51 141.565 177.529 141.563C177.549 141.561 177.57 141.568 177.586 141.583L177.505 141.667C177.514 141.675 177.527 141.68 177.54 141.678C177.552 141.677 177.56 141.672 177.565 141.667C177.57 141.662 177.575 141.654 177.577 141.643C177.578 141.631 177.575 141.618 177.566 141.608L177.48 141.685ZM177.586 141.583C178.276 142.247 179.345 143.402 180.2 144.709L180.103 144.773C179.255 143.475 178.192 142.327 177.505 141.667L177.586 141.583Z" fill="#4A4D63" mask="url(#path-19-inside-3_4968_62726)"/>
<mask id="path-21-inside-4_4968_62726" fill="white">
<path fill-rule="evenodd" clip-rule="evenodd" d="M180.152 151.265C180.676 150.723 180.742 149.515 180.032 148.57C179.339 147.647 177.189 146.789 176.752 147.117C176.315 147.444 176.639 149.877 177.232 150.667C177.974 151.655 179.248 151.783 179.888 151.459C179.78 151.243 179.501 150.735 178.887 149.879C178.342 149.118 177.824 148.509 177.523 148.17C177.511 148.156 177.532 148.135 177.546 148.148C178.234 148.811 179.3 149.962 180.152 151.265Z"/>
</mask>
<path fill-rule="evenodd" clip-rule="evenodd" d="M180.152 151.265C180.676 150.723 180.742 149.515 180.032 148.57C179.339 147.647 177.189 146.789 176.752 147.117C176.315 147.444 176.639 149.877 177.232 150.667C177.974 151.655 179.248 151.783 179.888 151.459C179.78 151.243 179.501 150.735 178.887 149.879C178.342 149.118 177.824 148.509 177.523 148.17C177.511 148.156 177.532 148.135 177.546 148.148C178.234 148.811 179.3 149.962 180.152 151.265Z" fill="#4A4D63"/>
<path d="M180.032 148.57L180.078 148.535H180.078L180.032 148.57ZM180.152 151.265L180.193 151.305L180.143 151.357L180.103 151.296L180.152 151.265ZM176.752 147.117L176.718 147.07V147.07L176.752 147.117ZM177.232 150.667L177.186 150.702V150.702L177.232 150.667ZM179.888 151.459L179.94 151.433L179.965 151.485L179.914 151.511L179.888 151.459ZM178.887 149.879L178.934 149.845L178.887 149.879ZM177.523 148.17L177.48 148.209L177.48 148.209L177.523 148.17ZM177.546 148.148L177.505 148.19L177.505 148.19L177.546 148.148ZM180.078 148.535C180.441 149.018 180.606 149.568 180.612 150.068C180.619 150.566 180.469 151.02 180.193 151.305L180.11 151.224C180.358 150.968 180.503 150.547 180.497 150.069C180.49 149.593 180.333 149.067 179.985 148.604L180.078 148.535ZM176.718 147.07C176.785 147.019 176.88 146.996 176.987 146.989C177.095 146.983 177.222 146.994 177.362 147.019C177.641 147.069 177.977 147.176 178.319 147.321C179 147.611 179.722 148.061 180.078 148.535L179.985 148.604C179.648 148.155 178.949 147.715 178.273 147.428C177.937 147.284 177.61 147.181 177.342 147.133C177.207 147.109 177.09 147.099 176.994 147.105C176.897 147.111 176.829 147.132 176.787 147.163L176.718 147.07ZM177.186 150.702C177.031 150.496 176.898 150.189 176.79 149.842C176.682 149.494 176.599 149.103 176.548 148.726C176.498 148.35 176.48 147.986 176.502 147.694C176.513 147.548 176.534 147.418 176.568 147.313C176.601 147.209 176.649 147.122 176.718 147.07L176.787 147.163C176.747 147.193 176.709 147.253 176.678 147.348C176.648 147.442 176.628 147.562 176.617 147.703C176.596 147.984 176.613 148.339 176.663 148.711C176.713 149.082 176.795 149.467 176.9 149.808C177.007 150.15 177.136 150.443 177.278 150.632L177.186 150.702ZM179.914 151.511C179.579 151.68 179.087 151.729 178.585 151.611C178.082 151.494 177.566 151.208 177.186 150.702L177.278 150.632C177.64 151.114 178.132 151.386 178.612 151.499C179.093 151.611 179.557 151.562 179.862 151.407L179.914 151.511ZM179.836 151.485C179.73 151.272 179.452 150.767 178.84 149.913L178.934 149.845C179.549 150.703 179.83 151.214 179.94 151.433L179.836 151.485ZM178.84 149.913C178.296 149.153 177.78 148.546 177.48 148.209L177.566 148.132C177.868 148.471 178.387 149.082 178.934 149.845L178.84 149.913ZM177.48 148.209C177.465 148.192 177.459 148.172 177.462 148.151C177.464 148.133 177.474 148.118 177.484 148.108C177.495 148.097 177.51 148.089 177.529 148.087C177.549 148.085 177.57 148.091 177.586 148.107L177.505 148.19C177.514 148.199 177.527 148.203 177.54 148.202C177.552 148.201 177.56 148.196 177.565 148.191C177.57 148.186 177.575 148.178 177.577 148.167C177.578 148.154 177.575 148.141 177.566 148.132L177.48 148.209ZM177.586 148.107C178.276 148.771 179.345 149.925 180.2 151.233L180.103 151.296C179.255 149.998 178.192 148.85 177.505 148.19L177.586 148.107Z" fill="#4A4D63" mask="url(#path-21-inside-4_4968_62726)"/>
<mask id="path-23-inside-5_4968_62726" fill="white">
<path fill-rule="evenodd" clip-rule="evenodd" d="M180.152 157.671C180.676 157.13 180.742 155.922 180.032 154.977C179.339 154.054 177.189 153.196 176.752 153.523C176.315 153.851 176.639 156.284 177.232 157.074C177.974 158.062 179.248 158.19 179.888 157.866C179.78 157.65 179.501 157.142 178.887 156.286C178.342 155.524 177.824 154.916 177.523 154.577C177.511 154.563 177.532 154.542 177.546 154.555C178.234 155.218 179.3 156.368 180.152 157.671Z"/>
</mask>
<path fill-rule="evenodd" clip-rule="evenodd" d="M180.152 157.671C180.676 157.13 180.742 155.922 180.032 154.977C179.339 154.054 177.189 153.196 176.752 153.523C176.315 153.851 176.639 156.284 177.232 157.074C177.974 158.062 179.248 158.19 179.888 157.866C179.78 157.65 179.501 157.142 178.887 156.286C178.342 155.524 177.824 154.916 177.523 154.577C177.511 154.563 177.532 154.542 177.546 154.555C178.234 155.218 179.3 156.368 180.152 157.671Z" fill="#4A4D63"/>
<path d="M180.032 154.977L180.078 154.942H180.078L180.032 154.977ZM180.152 157.671L180.193 157.712L180.143 157.764L180.103 157.703L180.152 157.671ZM176.752 153.523L176.718 153.477V153.477L176.752 153.523ZM177.232 157.074L177.186 157.109V157.109L177.232 157.074ZM179.888 157.866L179.94 157.84L179.965 157.892L179.914 157.918L179.888 157.866ZM178.887 156.286L178.934 156.252L178.887 156.286ZM177.523 154.577L177.48 154.616L177.48 154.616L177.523 154.577ZM177.546 154.555L177.505 154.597L177.505 154.597L177.546 154.555ZM180.078 154.942C180.441 155.425 180.606 155.975 180.612 156.475C180.619 156.973 180.469 157.427 180.193 157.712L180.11 157.631C180.358 157.375 180.503 156.954 180.497 156.476C180.49 156 180.333 155.474 179.985 155.011L180.078 154.942ZM176.718 153.477C176.785 153.426 176.88 153.403 176.987 153.396C177.095 153.39 177.222 153.401 177.362 153.426C177.641 153.475 177.977 153.582 178.319 153.728C179 154.018 179.722 154.468 180.078 154.942L179.985 155.011C179.648 154.562 178.949 154.122 178.273 153.835C177.937 153.691 177.61 153.587 177.342 153.54C177.207 153.516 177.09 153.506 176.994 153.512C176.897 153.518 176.829 153.539 176.787 153.57L176.718 153.477ZM177.186 157.109C177.031 156.903 176.898 156.596 176.79 156.249C176.682 155.901 176.599 155.51 176.548 155.133C176.498 154.756 176.48 154.393 176.502 154.101C176.513 153.955 176.534 153.825 176.568 153.72C176.601 153.616 176.649 153.529 176.718 153.477L176.787 153.57C176.747 153.6 176.709 153.66 176.678 153.755C176.648 153.849 176.628 153.969 176.617 154.11C176.596 154.391 176.613 154.746 176.663 155.118C176.713 155.489 176.795 155.874 176.9 156.215C177.007 156.557 177.136 156.849 177.278 157.039L177.186 157.109ZM179.914 157.918C179.579 158.087 179.087 158.135 178.585 158.018C178.082 157.9 177.566 157.615 177.186 157.109L177.278 157.039C177.64 157.521 178.132 157.793 178.612 157.905C179.093 158.018 179.557 157.969 179.862 157.814L179.914 157.918ZM179.836 157.892C179.73 157.679 179.452 157.174 178.84 156.32L178.934 156.252C179.549 157.11 179.83 157.621 179.94 157.84L179.836 157.892ZM178.84 156.32C178.296 155.56 177.78 154.953 177.48 154.616L177.566 154.539C177.868 154.878 178.387 155.489 178.934 156.252L178.84 156.32ZM177.48 154.616C177.465 154.599 177.459 154.578 177.462 154.558C177.464 154.54 177.474 154.525 177.484 154.515C177.495 154.504 177.51 154.495 177.529 154.494C177.549 154.492 177.57 154.498 177.586 154.513L177.505 154.597C177.514 154.606 177.527 154.61 177.54 154.609C177.552 154.608 177.56 154.603 177.565 154.598C177.57 154.593 177.575 154.585 177.577 154.574C177.578 154.561 177.575 154.548 177.566 154.539L177.48 154.616ZM177.586 154.513C178.276 155.178 179.345 156.332 180.2 157.64L180.103 157.703C179.255 156.405 178.192 155.257 177.505 154.597L177.586 154.513Z" fill="#4A4D63" mask="url(#path-23-inside-5_4968_62726)"/>
</g>
<path d="M172.951 166.318C172.951 167.384 172.264 168.168 171.19 168.168C170.115 168.168 169.41 167.384 169.41 166.318C169.41 165.261 170.115 164.485 171.181 164.485C172.255 164.485 172.951 165.252 172.951 166.318ZM175.815 168.6H175.145V166.591H174.22V168.529H173.577V164.204H174.22V166.036H175.145V164.063H175.815V168.6ZM172.291 166.327C172.291 165.595 171.894 165.058 171.181 165.058C170.476 165.058 170.071 165.595 170.071 166.318C170.071 167.049 170.476 167.604 171.181 167.604C171.894 167.604 172.291 167.049 172.291 166.327ZM175.815 171.762H175.136V169.551H170.617V168.996H175.815V171.762ZM181.146 167.401V166.838H182.565V165.789H181.146V165.225H182.565V164.063H183.234V169.63H182.565V167.401H181.146ZM181.437 168.027L181.041 168.555C180.248 168.177 179.49 167.472 179.164 166.688C178.926 167.498 178.107 168.37 177.27 168.802L176.856 168.282C177.887 167.824 178.812 166.758 178.812 165.525V164.512H179.49V165.499C179.49 166.785 180.521 167.692 181.437 168.027ZM183.402 171.524H178.283V169.172H178.953V170.969H183.402V171.524ZM190.222 164.063H190.892V171.762H190.222V164.063ZM189.518 169.111L189.579 169.666C188.778 169.789 187.456 169.921 185.765 169.921H184.981V166.952H187.897V165.331H184.945V164.776H188.575V167.507H185.65V169.348H185.835C187.06 169.348 188.584 169.278 189.518 169.111ZM198.884 168.027L198.514 168.591C197.219 168.203 195.968 167.111 195.651 166.327C195.378 167.111 194.153 168.203 192.814 168.582L192.462 168.009C193.713 167.763 195.316 166.573 195.316 165.314V164.706H196.012V165.314C196.012 166.573 197.704 167.763 198.884 168.027ZM199.14 170.705H192.189V170.141H199.14V170.705ZM205.705 167.049H201.335V168.247H205.934V168.811H200.657V164.803H205.855V165.366H201.335V166.485H205.705V167.049ZM206.762 170.784H199.811V170.221H206.762V170.784Z" fill="#4A4D63"/>
</g>
<g clip-path="url(#clip8_4968_62726)">
<g clip-path="url(#clip9_4968_62726)">
<path d="M290.532 139.721C291.376 139.721 292.2 139.979 292.894 140.461C293.588 140.942 294.118 141.624 294.414 142.415C294.709 143.206 294.756 144.068 294.548 144.887C294.34 145.705 293.887 146.44 293.25 146.994C293.585 147.91 293.756 148.877 293.755 149.852C293.755 150.941 293.541 152.019 293.124 153.024C292.708 154.03 292.097 154.944 291.327 155.713C290.558 156.483 289.644 157.094 288.638 157.51C287.633 157.927 286.555 158.141 285.466 158.141C284.378 158.141 283.3 157.927 282.294 157.51C281.288 157.094 280.375 156.483 279.605 155.713C278.835 154.944 278.225 154.03 277.808 153.024C277.392 152.019 277.177 150.941 277.177 149.852C277.177 148.848 277.356 147.885 277.684 146.994C277.233 146.602 276.872 146.117 276.625 145.572C276.379 145.028 276.254 144.436 276.258 143.838C276.262 143.241 276.395 142.651 276.649 142.109C276.902 141.568 277.269 141.088 277.726 140.702C278.182 140.316 278.717 140.033 279.293 139.873C279.869 139.713 280.472 139.679 281.063 139.774C281.653 139.87 282.215 140.091 282.712 140.425C283.208 140.758 283.626 141.194 283.938 141.704C284.949 141.516 285.985 141.516 286.996 141.704C287.366 141.098 287.885 140.597 288.504 140.25C289.124 139.903 289.822 139.721 290.532 139.721Z" fill="#4A4D63"/>
</g>
<path d="M270.422 169.824H266.819V164.855H270.422V169.824ZM269.752 169.269V165.41H267.488V169.269H269.752ZM273.761 167.727H272.501V171.762H271.831V164.063H272.501V167.164H273.761V167.727ZM280.537 171.762H279.868V164.063H280.537V171.762ZM274.459 167.357C274.459 165.736 275.181 164.644 276.441 164.644C277.718 164.644 278.432 165.736 278.432 167.366C278.432 168.996 277.718 170.088 276.441 170.088C275.181 170.088 274.459 168.996 274.459 167.357ZM277.797 167.366C277.797 166.098 277.26 165.225 276.441 165.225C275.63 165.225 275.093 166.098 275.093 167.366C275.093 168.626 275.63 169.507 276.441 169.507C277.26 169.507 277.797 168.626 277.797 167.366ZM285.649 169.621C285.235 169.683 284.556 169.745 283.878 169.78C283.165 169.824 282.486 169.851 281.834 169.851L281.729 169.269H282.583L282.354 166.089L283.024 166.001C283.076 167.084 283.156 168.168 283.217 169.251L283.834 169.225C283.887 169.225 283.94 169.225 284.001 169.216C284.063 168.15 284.134 167.067 284.204 166.001L284.874 166.071C284.786 167.102 284.697 168.141 284.592 169.181C284.971 169.146 285.314 169.119 285.587 169.075C285.605 169.26 285.622 169.436 285.649 169.621ZM286.882 171.366H286.23V167.578H285.173V167.023H286.23V164.248H286.882V171.366ZM288.318 171.762H287.657V164.063H288.318V171.762ZM285.402 165.578H281.922V165.023H285.402V165.578ZM295.782 171.762H295.112V164.063H295.782V171.762ZM289.703 167.357C289.703 165.736 290.426 164.644 291.685 164.644C292.963 164.644 293.676 165.736 293.676 167.366C293.676 168.996 292.963 170.088 291.685 170.088C290.426 170.088 289.703 168.996 289.703 167.357ZM293.042 167.366C293.042 166.098 292.505 165.225 291.685 165.225C290.875 165.225 290.338 166.098 290.338 167.366C290.338 168.626 290.875 169.507 291.685 169.507C292.505 169.507 293.042 168.626 293.042 167.366ZM301.827 169.428L301.413 169.93C300.691 169.463 299.713 168.494 299.449 167.586C299.193 168.547 298.348 169.533 297.458 170.106L297.044 169.613C298.171 168.952 299.096 167.639 299.096 166.186V165.393H297.299V164.838H301.589V165.393H299.792V166.177C299.792 167.613 300.77 168.855 301.827 169.428ZM302.717 164.063H303.387V171.762H302.717V164.063Z" fill="#4A4D63"/>
</g>
</g>
</g>
<path d="M38 28H338H38ZM341 180C341 192.703 330.703 203 318 203H58C45.2975 203 35 192.703 35 180H41C41 189.389 48.6112 197 58 197H318C327.389 197 335 189.389 335 180H341ZM58 203C45.2975 203 35 192.703 35 180V28H41V180C41 189.389 48.6112 197 58 197V203ZM341 28V180C341 192.703 330.703 203 318 203V197C327.389 197 335 189.389 335 180V28H341Z" fill="#4A4D63" mask="url(#path-1-inside-1_4968_62726)"/>
<path opacity="0.4" d="M8 274.5L262.5 72.5L346.5 91.5L349.5 274.5H8Z" fill="url(#paint0_linear_4968_62726)"/>
<rect x="23" y="27" width="330" height="60" fill="url(#paint1_linear_4968_62726)"/>
<g filter="url(#filter0_d_4968_62726)">
<rect x="252.762" y="68" width="93.9999" height="49.0434" rx="24.5217" fill="#23B877"/>
<path d="M317.08 98.6521V92.5798H311V90.4827H317.08V84.3478H319.352V90.4827H325.304V92.5798H319.352V98.6521H317.08Z" fill="white"/>
<path d="M289.046 98.5523H287.133V83.9864H289.046V98.5523ZM286.692 93.7624L285.482 95.0376C284.844 94.449 284.06 93.3374 283.733 92.471C283.422 93.5826 282.229 95.2664 281.379 95.8223L280.185 94.5798C282.163 93.1576 282.801 90.5419 282.801 87.632V85.1635H284.632V87.5503C284.632 90.5746 285.188 92.4546 286.692 93.7624ZM281.804 91.768L280.757 93.223C280.381 92.945 279.924 92.3729 279.711 91.9315C279.4 92.9614 278.599 94.1875 277.684 94.8741L276.458 93.6643C278.06 92.4056 278.747 90.3621 278.747 86.8473V85.327H280.578V86.831C280.578 90.1986 280.986 91.016 281.804 91.768ZM304.351 89.2995H302.291V93.4191H300.346V83.921H302.291V87.7301H304.351V89.2995ZM290.979 88.433C290.979 86.3732 292.466 84.7548 294.755 84.7548C297.044 84.7548 298.531 86.3732 298.531 88.433C298.531 90.5256 297.044 92.0132 294.755 92.0132C292.466 92.0132 290.979 90.5256 290.979 88.433ZM292.891 88.433C292.891 89.5937 293.611 90.4438 294.755 90.4438C295.916 90.4438 296.635 89.5937 296.635 88.433C296.635 87.2233 295.916 86.3405 294.755 86.3405C293.611 86.3405 292.891 87.2723 292.891 88.433ZM303.288 97.1464L302.389 98.6504C300.477 98.3235 298.368 96.9176 297.665 95.577C297.011 96.9339 294.967 98.3071 292.908 98.6504L292.025 97.1137C294.559 96.8195 296.7 95.2501 296.7 93.272V92.7489H298.662V93.272C298.662 95.2501 300.836 96.7377 303.288 97.1464Z" fill="white"/>
</g>
<ellipse cx="85.5" cy="241.492" rx="2.5" ry="2.49215" fill="#23B877"/>
<rect x="29.2353" y="270.935" width="318.53" height="63.3168" rx="6.35177" fill="#15171E"/>
<rect x="29.2353" y="270.935" width="318.53" height="63.3168" rx="6.35177" stroke="white" stroke-width="0.470501"/>
<path d="M54.146 295.645H52.6178V287.135H54.146V295.645ZM54.4095 298.557H46.2679V294.802H47.8225V297.345H54.4095V298.557ZM44.8188 290.903C44.8188 289.243 46.0703 288.004 47.9937 288.004C49.9303 288.004 51.1687 289.243 51.1687 290.903C51.1687 292.589 49.9303 293.788 47.9937 293.788C46.0703 293.788 44.8188 292.589 44.8188 290.903ZM46.3997 290.903C46.3997 291.838 47.0057 292.523 47.9937 292.523C49.0081 292.523 49.601 291.838 49.601 290.903C49.601 290.007 49.0081 289.322 47.9937 289.322C47.0057 289.322 46.3997 290.007 46.3997 290.903ZM65.0177 287.135V291.654H66.704V292.918H65.0177V298.873H63.4895V287.135H65.0177ZM62.9098 294.921C62.5937 295.303 62.317 295.685 62.0008 296.067C61.0391 295.448 59.6822 294.064 59.287 292.787C58.9049 294.117 57.7193 295.593 56.5072 296.304C56.1911 295.922 55.8881 295.553 55.5587 295.184C57.469 293.959 58.4702 292.075 58.4702 289.73V288.123H60.0642V289.651C60.0642 291.97 61.1313 293.788 62.9098 294.921ZM76.9433 298.873H75.4151V287.135H76.9433V298.873ZM67.5765 292.141C67.5765 289.664 68.6963 287.939 70.6066 287.939C72.53 287.939 73.6498 289.664 73.6498 292.141C73.6498 294.591 72.53 296.317 70.6066 296.317C68.6963 296.317 67.5765 294.605 67.5765 292.141ZM72.1743 292.141C72.1743 290.283 71.5156 289.177 70.6066 289.177C69.7239 289.177 69.0784 290.283 69.0784 292.141C69.0784 293.985 69.7239 295.079 70.6066 295.079C71.5156 295.079 72.1743 293.985 72.1743 292.141ZM87.6437 291.799H81.5309V293.076H88.0389V294.288H80.0027V288.057H87.9203V289.269H81.5309V290.586H87.6437V291.799ZM89.2509 296.185V297.397H78.6458V296.185H89.2509ZM100.65 293.63H90.0444V292.497H100.65V293.63ZM99.5693 298.741H91.3882V296.014H97.7644V295.395H91.3355V294.288H99.2926V297.029H92.9296V297.635H99.5693V298.741ZM99.4771 291.878H91.4409V289.216H97.6722V288.597H91.4145V287.504H99.2268V290.178H92.9823V290.784H99.4771V291.878ZM114.06 287.135V291.601H115.746V292.879H114.06V298.873H112.518V287.135H114.06ZM111.728 295.461C110.318 295.843 107.815 296.014 106.419 296.014H105.352V288.307H106.88V294.697C108.514 294.697 110.318 294.539 111.57 294.236L111.728 295.461ZM118.344 290.692C118.344 291.561 118.977 292.233 120.031 292.233C121.098 292.233 121.73 291.561 121.73 290.692C121.73 289.862 121.098 289.19 120.031 289.19C118.977 289.19 118.344 289.862 118.344 290.692ZM126.209 287.135V298.873H124.681V287.135H126.209ZM116.764 290.705C116.764 289.058 118.055 287.886 120.031 287.886C122.02 287.886 123.285 289.058 123.285 290.705C123.285 292.339 122.02 293.524 120.031 293.524C118.055 293.524 116.764 292.339 116.764 290.705ZM124.194 295.869C123.074 296.014 121.48 296.146 120.228 296.212C118.924 296.265 117.528 296.317 116.54 296.304L116.316 294.987C117.673 294.987 118.806 294.973 120.136 294.921C121.598 294.868 123.021 294.763 124.062 294.631L124.194 295.869ZM140.858 294.96H139.33V291.614H137.156V290.31H139.33V287.135H140.858V294.96ZM141.464 297.793L140.739 299.005C139.198 298.728 137.485 297.608 136.932 296.515C136.418 297.621 134.772 298.728 133.098 299.005L132.374 297.766C134.429 297.516 136.168 296.265 136.168 294.657V294.143H137.736V294.657C137.736 296.265 139.488 297.463 141.464 297.793ZM137.143 288.044C137.064 291.311 135.035 293.537 131.965 294.473L131.175 293.234C133.296 292.8 135.206 291.206 135.483 289.322H131.728V288.044H137.143ZM153.166 297.332H142.56V296.12H153.166V297.332ZM152.178 291.008C152.178 292.8 150.478 294.051 147.87 294.051C145.274 294.051 143.562 292.8 143.562 291.008C143.562 289.216 145.274 287.965 147.87 287.965C150.478 287.965 152.178 289.216 152.178 291.008ZM150.597 291.021C150.597 289.941 149.53 289.216 147.87 289.216C146.223 289.216 145.156 289.941 145.156 291.021C145.156 292.102 146.223 292.826 147.87 292.826C149.516 292.826 150.597 292.102 150.597 291.021ZM163.563 294.354H160.006V296.185H164.564V297.411H153.959V296.185H158.465V294.354H155.316V290.468H161.692V289.111H155.25V287.886H163.22V291.693H156.844V293.116H163.563V294.354ZM178.001 287.135V290.481H179.674V291.759H178.001V295.645H176.433V287.135H178.001ZM178.277 298.53H170.386V294.776H171.928V297.305H178.277V298.53ZM174.655 293.564H169.161V288.031H174.655V293.564ZM173.126 292.352V289.23H170.689V292.352H173.126ZM189.584 291.087H181.627V287.333H189.492V288.558H183.168V289.862H189.584V291.087ZM190.822 293.05H180.217V291.812H190.822V293.05ZM189.847 298.82H181.574V295.764H187.884V295.052H181.495V293.84H189.426V296.871H183.102V297.556H189.847V298.82ZM202.221 297.226H191.616V296.001H195.423V292.049H196.964V296.001H202.221V297.226ZM201.009 288.162C201.062 291.113 200.917 293.261 200.508 294.815L199.033 294.631C199.402 293.274 199.494 291.021 199.454 289.401H192.749V288.162H201.009ZM213.681 291.996L212.786 293.182C211.903 292.866 210.678 291.917 210.164 290.837C209.821 292.036 208.504 293.129 207.411 293.511L206.488 292.286C208.188 291.667 209.36 290.283 209.36 288.505V287.596H210.941V288.426C210.941 290.257 212.311 291.561 213.681 291.996ZM216.382 298.675H208.148V297.45H209.808C209.69 296.897 209.571 296.37 209.466 295.83L210.981 295.645L211.271 297.45H213.247C213.352 296.844 213.444 296.251 213.536 295.645C214.05 295.698 214.564 295.777 215.078 295.843C214.959 296.383 214.828 296.897 214.696 297.45H216.382V298.675ZM216.184 293.564H214.643V287.135H216.184V293.564ZM216.29 295.316H208.241V294.091H216.29V295.316ZM227.043 287.135V291.561H228.729V292.839H227.043V298.873H225.502V287.135H227.043ZM219.85 294.881C221.523 294.881 223.157 294.829 224.487 294.526C224.553 294.934 224.593 295.355 224.658 295.751C223.525 296.041 221.747 296.146 219.455 296.146H218.322V288.215H223.684V289.454H219.85V294.881Z" fill="white"/>
<path d="M316.279 350.774V343.495L314.763 343.85V343.288L316.695 342.382H317.209V350.774H316.279ZM321.973 350.872C320.138 350.872 319.159 349.526 319.159 347.19V346.554C319.159 343.655 320.444 342.382 322.34 342.382C323.16 342.382 323.918 342.664 324.261 342.872L323.979 343.581C323.686 343.41 322.964 343.202 322.438 343.202C321.043 343.202 320.26 343.911 320.138 346.468C320.578 346.016 321.251 345.587 322.169 345.587C323.539 345.587 324.64 346.529 324.64 348.095C324.64 349.661 323.637 350.872 321.973 350.872ZM321.961 350.065C323.025 350.065 323.661 349.367 323.661 348.193C323.661 346.909 322.964 346.407 321.973 346.407C321.19 346.407 320.481 346.957 320.138 347.447V347.532C320.138 349.062 320.652 350.065 321.961 350.065ZM325.346 351.973L328.221 341.795H329.065L326.19 351.973H325.346ZM332.004 350.848C331.05 350.848 330.231 350.578 329.778 350.26L329.986 349.49C330.451 349.796 331.27 350.028 331.882 350.028C333.24 350.028 333.998 349.429 333.998 348.413C333.998 347.361 333.191 346.86 331.943 346.86H331.148V346.028H331.882C332.946 346.028 333.668 345.489 333.668 344.572C333.668 343.569 333.02 343.214 332.017 343.214C331.344 343.214 330.708 343.508 330.194 343.801L330.047 343.018C330.536 342.688 331.503 342.382 332.212 342.382C333.68 342.382 334.683 343.129 334.683 344.413C334.683 345.428 334.047 346.028 333.118 346.334C334.182 346.542 334.989 347.141 334.989 348.413C334.989 349.844 333.827 350.848 332.004 350.848ZM339.578 350.872C337.89 350.872 336.569 349.722 336.569 346.945V346.26C336.569 343.361 337.976 342.382 339.59 342.382C341.193 342.382 342.514 343.361 342.514 346.211V346.957C342.514 349.734 341.242 350.872 339.578 350.872ZM339.578 350.065C340.838 350.065 341.523 349.208 341.523 347.104V346.199C341.523 344.132 340.85 343.19 339.59 343.19C338.306 343.19 337.609 344.083 337.609 346.138V347.043C337.609 349.086 338.294 350.065 339.578 350.065Z" fill="#6B6E82"/>
<path d="M43.5777 254.277H41.9404V245.159H43.5777V254.277ZM43.8601 257.396H35.137V253.374H36.8025V256.098H43.8601V257.396ZM33.5843 249.196C33.5843 247.417 34.9252 246.09 36.986 246.09C39.0609 246.09 40.3877 247.417 40.3877 249.196C40.3877 251.002 39.0609 252.287 36.986 252.287C34.9252 252.287 33.5843 251.002 33.5843 249.196ZM35.2781 249.196C35.2781 250.198 35.9274 250.932 36.986 250.932C38.0729 250.932 38.7081 250.198 38.7081 249.196C38.7081 248.236 38.0729 247.502 36.986 247.502C35.9274 247.502 35.2781 248.236 35.2781 249.196ZM55.226 245.159V250H57.0327V251.355H55.226V257.735H53.5886V245.159H55.226ZM52.9676 253.501C52.6288 253.91 52.3324 254.319 51.9936 254.729C50.9632 254.065 49.5094 252.583 49.0859 251.214C48.6766 252.64 47.4062 254.22 46.1077 254.983C45.7689 254.573 45.4442 254.178 45.0914 253.783C47.138 252.47 48.2108 250.452 48.2108 247.939V246.217H49.9187V247.855C49.9187 250.339 51.062 252.287 52.9676 253.501ZM68.0034 257.735H66.366V245.159H68.0034V257.735ZM57.9676 250.522C57.9676 247.869 59.1674 246.02 61.2141 246.02C63.2749 246.02 64.4746 247.869 64.4746 250.522C64.4746 253.148 63.2749 254.997 61.2141 254.997C59.1674 254.997 57.9676 253.162 57.9676 250.522ZM62.8937 250.522C62.8937 248.532 62.188 247.346 61.2141 247.346C60.2683 247.346 59.5767 248.532 59.5767 250.522C59.5767 252.498 60.2683 253.67 61.2141 253.67C62.188 253.67 62.8937 252.498 62.8937 250.522ZM79.4681 250.155H72.9187V251.525H79.8916V252.823H71.2814V246.147H79.7645V247.445H72.9187V248.857H79.4681V250.155ZM81.1902 254.856V256.154H69.8275V254.856H81.1902Z" fill="white"/>
<defs>
<filter id="filter0_d_4968_62726" x="250.762" y="66" width="106" height="61.0435" filterUnits="userSpaceOnUse" color-interpolation-filters="sRGB">
<feFlood flood-opacity="0" result="BackgroundImageFix"/>
<feColorMatrix in="SourceAlpha" type="matrix" values="0 0 0 0 0 0 0 0 0 0 0 0 0 0 0 0 0 0 127 0" result="hardAlpha"/>
<feOffset dx="4" dy="4"/>
<feGaussianBlur stdDeviation="3"/>
<feComposite in2="hardAlpha" operator="out"/>
<feColorMatrix type="matrix" values="0 0 0 0 0 0 0 0 0 0 0 0 0 0 0 0 0 0 0.25 0"/>
<feBlend mode="normal" in2="BackgroundImageFix" result="effect1_dropShadow_4968_62726"/>
<feBlend mode="normal" in="SourceGraphic" in2="effect1_dropShadow_4968_62726" result="shape"/>
</filter>
<linearGradient id="paint0_linear_4968_62726" x1="191.25" y1="94" x2="191.25" y2="245.5" gradientUnits="userSpaceOnUse">
<stop stop-color="#23B877"/>
<stop offset="1" stop-color="#23B877" stop-opacity="0"/>
</linearGradient>
<linearGradient id="paint1_linear_4968_62726" x1="188" y1="27" x2="188" y2="87" gradientUnits="userSpaceOnUse">
<stop stop-color="#292C3B"/>
<stop offset="1" stop-color="#292C3B" stop-opacity="0"/>
</linearGradient>
<clipPath id="clip0_4968_62726">
<path d="M38 28H338V180C338 191.046 329.046 200 318 200H58C46.9543 200 38 191.046 38 180V28Z" fill="white"/>
</clipPath>
<clipPath id="clip1_4968_62726">
<rect x="52.418" y="-19.6516" width="271.494" height="48.0521" rx="9.61042" fill="white"/>
</clipPath>
<clipPath id="clip2_4968_62726">
<rect x="52.418" y="-19.6516" width="271.494" height="48.0521" rx="9.61042" fill="white"/>
</clipPath>
<clipPath id="clip3_4968_62726">
<rect x="52.418" y="38.011" width="271.494" height="48.0521" rx="9.61042" fill="white"/>
</clipPath>
<clipPath id="clip4_4968_62726">
<rect width="38.4417" height="38.4417" fill="white" transform="translate(52.418 42.7902)"/>
</clipPath>
<clipPath id="clip5_4968_62726">
<rect width="17.6191" height="17.6191" fill="white" transform="translate(63.6289 53.2014)"/>
</clipPath>
<clipPath id="clip6_4968_62726">
<rect width="38.4417" height="48.0521" fill="white" transform="translate(168.543 130.111)"/>
</clipPath>
<clipPath id="clip7_4968_62726">
<rect width="22.4243" height="17.6191" fill="white" transform="translate(176.551 140.522)"/>
</clipPath>
<clipPath id="clip8_4968_62726">
<rect width="38.4417" height="48.0521" fill="white" transform="translate(266.246 130.111)"/>
</clipPath>
<clipPath id="clip9_4968_62726">
<rect width="19.2208" height="18.42" fill="white" transform="translate(275.859 139.721)"/>
</clipPath>
</defs>
</svg>
