<svg width="48" height="61" viewBox="0 0 48 61" fill="none" xmlns="http://www.w3.org/2000/svg">
<g clip-path="url(#clip0_3084_25523)">
<path d="M22.4865 13.0361C22.914 12.6893 23.4478 12.5 23.9983 12.5C24.5488 12.5 25.0826 12.6893 25.5101 13.0361L34.6624 20.4511C35.0786 20.7881 35.4143 21.2137 35.6451 21.6969C35.8759 22.1801 35.996 22.7088 35.9966 23.2443V34.1003C35.9966 34.7368 35.7438 35.3471 35.2938 35.7972C34.8438 36.2472 34.2334 36.5 33.597 36.5H29.9975C29.361 36.5 28.7507 36.2472 28.3007 35.7972C27.8506 35.3471 27.5978 34.7368 27.5978 34.1003V28.1012C27.5978 27.783 27.4714 27.4778 27.2464 27.2528C27.0214 27.0278 26.7162 26.9014 26.398 26.9014H21.5987C21.2804 26.9014 20.9753 27.0278 20.7502 27.2528C20.5252 27.4778 20.3988 27.783 20.3988 28.1012V34.1003C20.3988 34.7368 20.146 35.3471 19.696 35.7972C19.246 36.2472 18.6356 36.5 17.9992 36.5H14.3997C13.7632 36.5 13.1529 36.2472 12.7028 35.7972C12.2528 35.3471 12 34.7368 12 34.1003V23.2467C11.9999 22.7103 12.1196 22.1808 12.3505 21.6967C12.5813 21.2126 12.9174 20.7862 13.3342 20.4487L22.4865 13.0361Z" fill="#23B877"/>
</g>
<path d="M26.667 47.165C26.667 47.957 25.765 48.408 24.159 48.463V49.167H28.097V49.86H19.418V49.167H23.323V48.463C21.739 48.397 20.87 47.946 20.87 47.165C20.87 46.296 21.904 45.856 23.763 45.856C25.622 45.856 26.667 46.296 26.667 47.165ZM26.953 53.149H20.562V50.399H26.953V53.149ZM26.117 52.478V51.081H21.398V52.478H26.117ZM27.558 45.515H19.957V44.833H27.558V45.515ZM25.798 47.165C25.798 46.692 24.94 46.516 23.763 46.516C22.597 46.516 21.728 46.692 21.728 47.165C21.728 47.638 22.597 47.814 23.763 47.814C24.94 47.814 25.798 47.638 25.798 47.165ZM25.446 44.36H22.135V43.667H25.446V44.36Z" fill="#23B877"/>
<defs>
<clipPath id="clip0_3084_25523">
<rect width="24" height="24" fill="white" transform="translate(12 12.5)"/>
</clipPath>
</defs>
</svg>
