<svg width="376" height="378" viewBox="0 0 376 378" fill="none" xmlns="http://www.w3.org/2000/svg">
<g clip-path="url(#clip0_4968_62924)">
<g clip-path="url(#clip1_4968_62924)">
<mask id="path-1-inside-1_4968_62924" fill="white">
<path d="M24.75 51.003C24.75 39.9574 33.7043 31.0031 44.75 31.0031H259.113C270.159 31.0031 279.113 39.9574 279.113 51.0031V581.784H24.75V51.003Z"/>
</mask>
<path d="M24.75 51.003C24.75 39.9574 33.7043 31.0031 44.75 31.0031H259.113C270.159 31.0031 279.113 39.9574 279.113 51.0031V581.784H24.75V51.003Z" fill="#1D1F29"/>
<rect x="37.1305" y="238.733" width="229.605" height="32.2193" rx="4.57854" fill="#15171E"/>
<rect x="37.1305" y="238.733" width="229.605" height="32.2193" rx="4.57854" stroke="white" stroke-width="0.339151"/>
<path d="M55.0961 255.287H53.985V252.989H52.5416V252.106H53.985V250.349H55.0961V255.287ZM53.1589 254.1L52.5226 254.964C51.8864 254.708 51.0127 254.033 50.6424 253.245C50.386 254.109 49.4648 254.907 48.6767 255.173L48.0119 254.29C49.2369 253.843 50.0536 252.856 50.0536 251.574V250.738H51.2027V251.517C51.2027 252.827 52.1713 253.777 53.1589 254.1ZM55.1531 257.101C55.1531 258.126 54.0895 258.8 52.2377 258.8C50.4145 258.8 49.3604 258.126 49.3604 257.101C49.3604 256.047 50.4145 255.382 52.2377 255.382C54.0895 255.382 55.1531 256.047 55.1531 257.101ZM52.2377 256.274C51.1457 256.274 50.4999 256.588 50.4999 257.101C50.4999 257.604 51.1457 257.908 52.2377 257.908C53.3773 257.908 54.004 257.604 54.004 257.101C54.004 256.588 53.3773 256.274 52.2377 256.274ZM63.0467 257.101C63.0467 258.145 61.9641 258.8 60.0934 258.8C58.2226 258.8 57.1495 258.145 57.1495 257.101C57.1495 256.047 58.2226 255.401 60.0934 255.401C61.9641 255.401 63.0467 256.047 63.0467 257.101ZM56.4278 251.849V250.938H60.8815V251.849H59.2767C59.3716 253.036 60.2168 253.824 61.1474 254.128L60.5397 255.002C59.8844 254.755 59.0773 254.119 58.7069 253.34C58.4505 254.166 57.5579 254.954 56.7412 255.239L56.0859 254.375C57.2635 253.948 58.0517 253.046 58.1181 251.849H56.4278ZM64.1387 253.283H62.9327V255.296H61.8122V250.349H62.9327V252.372H64.1387V253.283ZM60.0934 256.293C58.9348 256.293 58.2701 256.588 58.2701 257.101C58.2701 257.613 58.9348 257.917 60.0934 257.917C61.2709 257.917 61.9261 257.613 61.9261 257.101C61.9261 256.588 61.2709 256.293 60.0934 256.293Z" fill="white"/>
<path d="M252.636 282.465V282.05L254.047 280.587C254.885 279.714 255.449 279.07 255.449 278.223C255.449 277.439 255.07 277.051 254.232 277.051C253.73 277.051 253.254 277.298 252.91 277.536L252.707 276.98C253.077 276.742 253.677 276.442 254.347 276.442C255.537 276.442 256.181 277.104 256.181 278.162C256.181 279.185 255.564 279.89 254.541 280.931L253.615 281.865H256.313V282.465H252.636ZM256.871 283.364L258.943 276.028H259.551L257.479 283.364H256.871ZM260.75 282.5L263.078 277.165H260.071V276.574H263.845V277.024L261.526 282.5H260.75Z" fill="#6B6E82"/>
<rect x="37.1305" y="316.738" width="229.605" height="45.7854" rx="4.57854" fill="#15171E"/>
<rect x="37.1305" y="316.738" width="229.605" height="45.7854" rx="4.57854" stroke="white" stroke-width="0.339151"/>
<path d="M54.6973 328.353V331.573H55.9128V332.494H54.6973V336.815H53.5862V328.353H54.6973ZM53.0164 334.355C52.0003 334.63 50.1961 334.754 49.1895 334.754H48.4203V329.199H49.5218V333.804C50.6994 333.804 52.0003 333.69 52.9025 333.472L53.0164 334.355ZM57.7858 330.917C57.7858 331.544 58.2416 332.028 59.0013 332.028C59.7705 332.028 60.2263 331.544 60.2263 330.917C60.2263 330.319 59.7705 329.835 59.0013 329.835C58.2416 329.835 57.7858 330.319 57.7858 330.917ZM63.455 328.353V336.815H62.3535V328.353H63.455ZM56.6462 330.927C56.6462 329.74 57.5768 328.895 59.0013 328.895C60.4352 328.895 61.3469 329.74 61.3469 330.927C61.3469 332.104 60.4352 332.959 59.0013 332.959C57.5768 332.959 56.6462 332.104 56.6462 330.927ZM62.0021 334.649C61.1949 334.754 60.0459 334.849 59.1437 334.896C58.2036 334.934 57.197 334.972 56.4848 334.963L56.3233 334.013C57.3015 334.013 58.1181 334.004 59.0773 333.966C60.1313 333.928 61.1569 333.852 61.9071 333.757L62.0021 334.649ZM74.0237 333.291H72.9126V330.993H71.4692V330.11H72.9126V328.353H74.0237V333.291ZM72.0864 332.104L71.4502 332.969C70.8139 332.712 69.9403 332.038 69.5699 331.25C69.3135 332.114 68.3924 332.912 67.6042 333.178L66.9395 332.294C68.1645 331.848 68.9812 330.86 68.9812 329.578V328.743H70.1302V329.521C70.1302 330.832 71.0988 331.782 72.0864 332.104ZM74.0806 335.105C74.0806 336.131 73.0171 336.805 71.1653 336.805C69.342 336.805 68.2879 336.131 68.2879 335.105C68.2879 334.051 69.342 333.386 71.1653 333.386C73.0171 333.386 74.0806 334.051 74.0806 335.105ZM71.1653 334.279C70.0732 334.279 69.4275 334.592 69.4275 335.105C69.4275 335.609 70.0732 335.912 71.1653 335.912C72.3048 335.912 72.9316 335.609 72.9316 335.105C72.9316 334.592 72.3048 334.279 71.1653 334.279ZM81.9742 335.105C81.9742 336.15 80.8916 336.805 79.0209 336.805C77.1501 336.805 76.0771 336.15 76.0771 335.105C76.0771 334.051 77.1501 333.405 79.0209 333.405C80.8916 333.405 81.9742 334.051 81.9742 335.105ZM75.3553 329.854V328.942H79.8091V329.854H78.2042C78.2992 331.041 79.1443 331.829 80.075 332.133L79.4672 333.007C78.812 332.76 78.0048 332.123 77.6344 331.345C77.378 332.171 76.4854 332.959 75.6687 333.244L75.0135 332.38C76.191 331.953 76.9792 331.05 77.0457 329.854H75.3553ZM83.0663 331.288H81.8603V333.301H80.7397V328.353H81.8603V330.376H83.0663V331.288ZM79.0209 334.298C77.8624 334.298 77.1976 334.592 77.1976 335.105C77.1976 335.618 77.8624 335.922 79.0209 335.922C80.1984 335.922 80.8537 335.618 80.8537 335.105C80.8537 334.592 80.1984 334.298 79.0209 334.298ZM91.1023 332.807H83.4579V331.924H91.1023V332.807ZM90.3996 336.777H84.3695V334.621H88.9942V334.137H84.379V333.273H90.0957V335.4H85.4806V335.865H90.3996V336.777ZM85.4521 329.996C85.4521 330.376 86.1168 330.68 87.2943 330.68C88.4719 330.68 89.1461 330.376 89.1461 329.996C89.1461 329.607 88.4719 329.322 87.2943 329.322C86.1168 329.322 85.4521 329.607 85.4521 329.996ZM84.303 329.996C84.303 329.075 85.3761 328.477 87.2943 328.477C89.2031 328.477 90.2856 329.075 90.2856 329.996C90.2856 330.908 89.2031 331.516 87.2943 331.516C85.3761 331.516 84.303 330.908 84.303 329.996ZM99.107 330.557C99.107 331.573 98.1858 332.313 96.8944 332.313C95.5744 332.313 94.7007 331.573 94.7007 330.557C94.7007 329.512 95.5744 328.752 96.8944 328.752C98.2238 328.752 99.107 329.512 99.107 330.557ZM101.215 328.353V336.815H100.114V328.353H101.215ZM97.4831 336.568H96.3531V333.766C95.5459 333.804 94.8906 333.823 94.2639 333.823L94.1025 332.912C96.2581 332.912 98.4707 332.779 99.6673 332.655L99.7622 333.51C99.1355 333.595 98.2903 333.662 97.4831 333.709V336.568ZM97.9959 330.547C97.9959 330.034 97.5401 329.654 96.8944 329.654C96.2676 329.654 95.8118 330.034 95.8118 330.547C95.8118 331.05 96.2581 331.402 96.8944 331.402C97.5591 331.402 97.9959 331.05 97.9959 330.547ZM107.228 330.737H102.319V329.873H107.228V330.737ZM106.82 332.532C106.82 333.434 105.965 334.07 104.826 334.07C103.667 334.07 102.813 333.434 102.813 332.532C102.813 331.639 103.658 330.974 104.826 330.974C105.965 330.974 106.82 331.639 106.82 332.532ZM103.572 329.474V328.629H106.089V329.474H103.572ZM109.004 328.353V331.088H110.182V332.01H109.004V334.64H107.893V328.353H109.004ZM109.204 336.615H103.42V334.384H104.541V335.732H109.204V336.615ZM103.914 332.532C103.914 332.912 104.332 333.178 104.826 333.178C105.31 333.178 105.738 332.912 105.738 332.532C105.738 332.133 105.31 331.858 104.826 331.858C104.332 331.858 103.914 332.133 103.914 332.532ZM119.715 328.353V331.601H120.969V332.522H119.715V336.815H118.585V328.353H119.715ZM113.163 331.962C113.163 330.177 113.98 328.933 115.357 328.933C116.743 328.933 117.55 330.177 117.55 331.962C117.55 333.728 116.743 334.972 115.357 334.972C113.98 334.972 113.163 333.738 113.163 331.962ZM116.487 331.962C116.487 330.623 116.012 329.825 115.357 329.825C114.72 329.825 114.246 330.623 114.246 331.962C114.246 333.291 114.72 334.08 115.357 334.08C116.012 334.08 116.487 333.291 116.487 331.962ZM125.643 329.208C125.643 332.057 124.409 334.089 121.883 335.4L121.199 334.611C122.377 334.07 123.345 333.197 123.924 332.085L121.579 332.342C121.531 332.019 121.484 331.706 121.427 331.383L124.295 331.174C124.38 330.841 124.447 330.49 124.475 330.129H121.845V329.208H125.643ZM127.922 328.353V331.601H129.109V332.522H127.922V336.815H126.821V328.353H127.922ZM136.519 336.815H135.417V328.353H136.519V336.815ZM129.767 331.962C129.767 330.177 130.574 328.933 131.951 328.933C133.337 328.933 134.145 330.177 134.145 331.962C134.145 333.728 133.337 334.972 131.951 334.972C130.574 334.972 129.767 333.738 129.767 331.962ZM133.081 331.962C133.081 330.623 132.606 329.825 131.951 329.825C131.315 329.825 130.849 330.623 130.849 331.962C130.849 333.291 131.315 334.08 131.951 334.08C132.606 334.08 133.081 333.291 133.081 331.962ZM144.735 333.301H143.634V328.353H144.735V333.301ZM142.152 332.788H138.145V328.838H139.256V330.025H141.041V328.819H142.152V332.788ZM141.041 331.915V330.898H139.256V331.915H141.041ZM144.802 335.105C144.802 336.131 143.738 336.805 141.886 336.805C140.063 336.805 139.009 336.131 139.009 335.105C139.009 334.051 140.063 333.386 141.886 333.386C143.738 333.386 144.802 334.051 144.802 335.105ZM141.886 334.279C140.794 334.279 140.139 334.592 140.139 335.105C140.139 335.609 140.794 335.912 141.886 335.912C143.016 335.912 143.653 335.609 143.653 335.105C143.653 334.592 143.016 334.279 141.886 334.279Z" fill="white"/>
<path d="M242.751 374.141C241.535 374.141 240.582 373.312 240.582 371.311V370.817C240.582 368.727 241.596 368.022 242.76 368.022C243.915 368.022 244.868 368.727 244.868 370.782V371.32C244.868 373.321 243.951 374.141 242.751 374.141ZM242.751 373.559C243.66 373.559 244.154 372.942 244.154 371.425V370.773C244.154 369.283 243.669 368.604 242.76 368.604C241.834 368.604 241.332 369.247 241.332 370.729V371.381C241.332 372.854 241.826 373.559 242.751 373.559ZM248.306 374.141C247.089 374.141 246.137 373.312 246.137 371.311V370.817C246.137 368.727 247.151 368.022 248.315 368.022C249.47 368.022 250.422 368.727 250.422 370.782V371.32C250.422 373.321 249.505 374.141 248.306 374.141ZM248.306 373.559C249.214 373.559 249.708 372.942 249.708 371.425V370.773C249.708 369.283 249.223 368.604 248.315 368.604C247.389 368.604 246.886 369.247 246.886 370.729V371.381C246.886 372.854 247.38 373.559 248.306 373.559ZM251.067 374.935L253.139 367.598H253.747L251.675 374.935H251.067ZM254.428 374.036V373.621L255.838 372.157C256.676 371.284 257.24 370.641 257.24 369.794C257.24 369.009 256.861 368.621 256.024 368.621C255.521 368.621 255.045 368.868 254.701 369.106L254.498 368.551C254.868 368.313 255.468 368.013 256.138 368.013C257.329 368.013 257.972 368.674 257.972 369.732C257.972 370.755 257.355 371.461 256.332 372.501L255.406 373.436H258.105V374.036H254.428ZM261.326 374.141C260.109 374.141 259.157 373.312 259.157 371.311V370.817C259.157 368.727 260.171 368.022 261.335 368.022C262.49 368.022 263.442 368.727 263.442 370.782V371.32C263.442 373.321 262.525 374.141 261.326 374.141ZM261.326 373.559C262.234 373.559 262.728 372.942 262.728 371.425V370.773C262.728 369.283 262.243 368.604 261.335 368.604C260.409 368.604 259.906 369.247 259.906 370.729V371.381C259.906 372.854 260.4 373.559 261.326 373.559Z" fill="#6B6E82"/>
<path d="M46.875 300.736L46.2035 301.86C44.7139 301.518 42.8581 300.382 42.2354 298.954C41.6738 300.419 39.7691 301.53 38.2796 301.86L37.6325 300.7C39.4028 300.443 41.5028 299.076 41.5028 297.135V296.475H42.9924V297.135C42.9924 299.052 45.2267 300.468 46.875 300.736ZM47.1558 305.437H37.3272V304.314H41.4906V301.725H42.9314V304.314H47.1558V305.437ZM57.1582 306.792H55.803V301.31H54.8384V306.292H53.5076V296.109H54.8384V300.175H55.803V295.914H57.1582V306.792ZM52.5186 297.196C52.5308 300.443 51.2366 302.922 48.575 304.668L47.6471 303.679C49.7715 302.409 50.9558 300.504 51.139 298.343H48.3064V297.196H52.5186Z" fill="#23B877"/>
<path d="M46.3134 228.787H44.8971V217.909H46.3134V228.787ZM37.6325 222.548C37.6325 220.253 38.6703 218.654 40.4406 218.654C42.2232 218.654 43.261 220.253 43.261 222.548C43.261 224.819 42.2232 226.419 40.4406 226.419C38.6703 226.419 37.6325 224.832 37.6325 222.548ZM41.8936 222.548C41.8936 220.827 41.2831 219.801 40.4406 219.801C39.6226 219.801 39.0243 220.827 39.0243 222.548C39.0243 224.258 39.6226 225.271 40.4406 225.271C41.2831 225.271 41.8936 224.258 41.8936 222.548ZM57.7198 224.612H47.8912V223.476H57.7198V224.612ZM56.4745 228.653H49.1366V225.308H56.4745V228.653ZM55.0338 227.554V226.394H50.5529V227.554H55.0338ZM56.6576 222.805H49.1854V220.045H54.9727V219.386H49.1732V218.324H56.4134V221.059H50.614V221.73H56.6576V222.805Z" fill="#23B877"/>
<path d="M48.2368 174.984H47.4737V170.355H46.3444V174.536H45.5914V166.305H46.3444V169.714H47.4737V166.092H48.2368V174.984ZM45.2353 172.176L44.7368 172.725C44.0551 172.227 43.2106 171.199 42.9359 170.192C42.7324 171.209 41.949 172.39 41.0638 173.031L40.5551 172.471C41.5623 171.83 42.5594 170.273 42.5594 168.533V166.926H43.3225V168.513C43.3225 170.243 44.2688 171.535 45.2353 172.176ZM57.5693 173.855H49.5415V173.204H53.1535V171.688H50.5285V168.91H55.7989V167.485H50.5183V166.834H56.5722V169.551H51.3017V171.036H56.8265V171.688H53.9268V173.204H57.5693V173.855ZM65.4569 168.106C65.4569 169.235 64.297 169.866 62.3537 169.866C60.4205 169.866 59.2708 169.235 59.2708 168.106C59.2708 166.987 60.4307 166.366 62.3638 166.366C64.297 166.366 65.4569 166.987 65.4569 168.106ZM62.3638 167.007C60.9598 167.007 60.0441 167.374 60.0441 168.116C60.0441 168.839 60.9496 169.215 62.3537 169.215C63.7679 169.215 64.6938 168.839 64.6938 168.116C64.6938 167.374 63.7781 167.007 62.3638 167.007ZM62.781 173.061H62.0077V171.26H58.3449V170.619H66.3726V171.26H62.781V173.061ZM65.4671 174.73H59.4031V172.135H60.1763V174.079H65.4671V174.73ZM76.8924 173.427C76.8924 174.424 75.7833 174.984 73.8298 174.984C71.8865 174.984 70.7876 174.414 70.7876 173.427C70.7876 172.461 71.8865 171.881 73.8298 171.881C75.7833 171.881 76.8924 172.42 76.8924 173.427ZM76.8822 169.459H74.2165V170.589H77.8488V171.23H69.8211V170.589H73.4432V169.459H70.7978V166.519H76.8415V167.16H71.5813V168.818H76.8822V169.459ZM73.8298 172.512C72.4359 172.512 71.5813 172.858 71.5813 173.427C71.5813 174.017 72.4359 174.343 73.8298 174.343C75.2441 174.343 76.0987 174.017 76.0987 173.427C76.0987 172.858 75.2441 172.512 73.8298 172.512ZM85.5736 166.519C85.5736 167.76 85.5024 168.564 85.3294 169.347H86.6521V169.978H83.0198V171.189H85.594V173.315H80.3948V174.231H85.9399V174.862H79.6215V172.725H84.8207V171.82H79.5605V171.189H82.2465V169.978H78.6244V169.347H84.5562C84.7088 168.727 84.78 168.086 84.78 167.16H79.6826V166.519H85.5736ZM95.4555 170.589H87.4278V169.938H95.4555V170.589ZM94.5601 167.76C94.5601 168.737 93.3799 169.297 91.4467 169.297C89.5339 169.297 88.3536 168.737 88.3536 167.76C88.3536 166.783 89.5339 166.214 91.4467 166.214C93.3799 166.214 94.5601 166.783 94.5601 167.76ZM91.4467 166.844C90.0528 166.844 89.1473 167.201 89.1473 167.76C89.1473 168.31 90.0528 168.656 91.4467 168.656C92.861 168.656 93.7767 168.31 93.7767 167.76C93.7767 167.201 92.861 166.844 91.4467 166.844ZM94.7433 174.903H88.3638V172.786H93.6749V172.003H88.3435V171.382H94.4482V173.376H89.1371V174.272H94.7433V174.903ZM103.421 170.996H99.2092V166.875H103.421V170.996ZM102.648 170.355V167.516H99.9824V170.355H102.648ZM107.094 169.398H105.741V172.552H104.968V166.092H105.741V168.747H107.094V169.398ZM106.087 174.679H100.176V171.942H100.949V174.038H106.087V174.679ZM115.735 170.528H107.707V169.907H115.735V170.528ZM114.972 174.831H108.654V172.725H113.924V171.901H108.643V171.291H114.697V173.295H109.427V174.221H114.972V174.831ZM114.829 169.164H108.684V166.488H114.728V167.119H109.467V168.544H114.829V169.164ZM116.623 169.856C116.623 167.974 117.437 166.712 118.871 166.712C120.214 166.712 120.998 167.821 121.099 169.51H123.002V166.092H123.775V174.984H123.002V170.172H121.099C121.018 171.881 120.224 173 118.871 173C117.437 173 116.623 171.749 116.623 169.856ZM120.346 169.866C120.346 168.401 119.746 167.384 118.871 167.384C117.986 167.384 117.396 168.401 117.396 169.866C117.396 171.311 117.986 172.329 118.871 172.329C119.746 172.329 120.346 171.311 120.346 169.866ZM125.121 175.167L125.497 173.183H126.423L125.67 175.167H125.121ZM46.0391 186.677L46.151 187.329C45.0624 187.583 42.9257 187.735 41.5725 187.735H41.0333V181.977H41.8065V187.054C43.3327 187.044 45.0725 186.911 46.0391 186.677ZM47.5653 181.092V184.622H49.0203V185.283H47.5653V189.984H46.792V181.092H47.5653ZM54.059 185.996H49.8468V181.875H54.059V185.996ZM53.2858 185.355V182.516H50.62V185.355H53.2858ZM57.732 184.398H56.3788V187.552H55.6056V181.092H56.3788V183.747H57.732V184.398ZM56.7248 189.679H50.8134V186.942H51.5866V189.038H56.7248V189.679ZM64.877 181.092H65.6502V189.984H64.877V181.092ZM63.4729 183.9C63.4729 185.161 62.4452 185.965 61.1632 185.965C59.8507 185.965 58.8435 185.09 58.8435 183.9C58.8435 182.648 59.8711 181.783 61.1632 181.783C62.4758 181.783 63.4729 182.597 63.4729 183.9ZM62.72 183.9C62.72 183.004 62.0281 182.445 61.1632 182.445C60.3086 182.445 59.5964 183.065 59.5964 183.9C59.5964 184.724 60.2984 185.314 61.1632 185.314C62.0077 185.314 62.72 184.734 62.72 183.9ZM64.3581 187.725C63.595 187.817 62.3231 187.898 61.1938 187.949C60.1458 188 59.169 188.031 58.4975 188.041L58.3551 187.359C59.1182 187.369 60.1661 187.349 61.2446 187.288C62.4859 187.247 63.6357 187.176 64.2868 187.095L64.3581 187.725ZM77.0857 187.583H76.3124V181.092H77.0857V187.583ZM77.3095 189.689H71.2862V186.942H72.0595V189.048H77.3095V189.689ZM72.4054 181.682C73.7586 181.682 74.8066 182.577 74.8066 183.9C74.8066 185.222 73.7688 186.108 72.4156 186.108C71.0624 186.108 70.0144 185.233 70.0144 183.91C70.0144 182.587 71.0624 181.682 72.4054 181.682ZM72.4054 182.353C71.4693 182.353 70.7571 182.994 70.7571 183.9C70.7571 184.795 71.4795 185.426 72.4156 185.426C73.3923 185.426 74.074 184.795 74.074 183.91C74.074 182.994 73.3923 182.353 72.4054 182.353ZM86.8963 185.334H85.4617V189.984H84.6884V181.092H85.4617V184.683H86.8963V185.334ZM83.8439 187.227L83.3556 187.817C82.4399 187.186 81.4428 186.128 81.0867 185.049C80.7712 186.158 79.9064 187.288 78.8584 188.02L78.3599 187.42C79.652 186.626 80.7 185.029 80.7 183.452V181.875H81.4936V183.432C81.4936 185.049 82.6128 186.504 83.8439 187.227ZM94.7433 189.984H93.97V181.092H94.7433V189.984ZM87.7228 184.897C87.7228 183.025 88.5571 181.763 90.0121 181.763C91.4874 181.763 92.3115 183.025 92.3115 184.907C92.3115 186.789 91.4874 188.051 90.0121 188.051C88.5571 188.051 87.7228 186.789 87.7228 184.897ZM91.579 184.907C91.579 183.442 90.9583 182.435 90.0121 182.435C89.076 182.435 88.4554 183.442 88.4554 184.907C88.4554 186.362 89.076 187.379 90.0121 187.379C90.9583 187.379 91.579 186.362 91.579 184.907ZM103.038 184.541H97.9913V185.924H103.302V186.576H97.2079V181.946H103.211V182.597H97.9913V183.89H103.038V184.541ZM104.259 188.855H96.2311V188.204H104.259V188.855ZM113.062 185.833H105.034V185.233H113.062V185.833ZM112.391 189.821H105.96V187.847H111.343V187.105H105.971V186.535H112.116V188.397H106.734V189.211H112.391V189.821ZM112.238 184.531H106.052V182.689H111.292V181.997H106.042V181.387H112.065V183.249H106.825V183.951H112.238V184.531ZM120.947 187.746H116.785V182.007H120.947V187.746ZM120.173 187.105V182.648H117.559V187.105H120.173ZM124.803 185.324H123.348V189.984H122.575V181.092H123.348V184.673H124.803V185.324ZM133.342 186.036H125.314V185.385H133.342V186.036ZM132.365 189.862H126.301V186.962H132.365V189.862ZM131.592 189.221V187.593H127.074V189.221H131.592ZM132.436 182.994C132.436 184.001 131.276 184.663 129.323 184.663C127.379 184.663 126.23 184.001 126.23 182.994C126.23 181.987 127.379 181.326 129.323 181.326C131.276 181.326 132.436 181.987 132.436 182.994ZM131.683 182.994C131.683 182.333 130.747 181.946 129.323 181.946C127.898 181.946 126.983 182.333 126.983 182.994C126.983 183.645 127.898 184.042 129.323 184.042C130.747 184.042 131.683 183.645 131.683 182.994ZM140.629 184.429H139.154V183.767H140.629V181.092H141.382V187.074H140.629V184.429ZM136.722 181.814C136.722 183.859 135.623 185.08 134.636 185.802L134.087 185.294C135.247 184.592 135.837 183.462 135.928 182.465H134.382V181.814H136.722ZM139.093 181.814C139.093 183.92 138.299 185.365 137.088 186.321L136.519 185.823C137.75 184.978 138.269 183.605 138.299 182.465H137.048V181.814H139.093ZM141.891 189.445L141.463 190.076C140.293 189.842 138.859 188.834 138.482 188.01C138.146 188.906 136.753 189.811 135.43 190.076L135.023 189.455C136.447 189.272 138.096 188.193 138.096 186.901V186.484H138.91V186.901C138.91 188.153 140.588 189.252 141.891 189.445ZM153.774 183.981H152.421V186.158H151.647V181.092H152.421V183.33H153.774V183.981ZM152.431 189.852H146.845V186.626H152.431V189.852ZM151.658 189.211V187.267H147.618V189.211H151.658ZM146.713 184.876H147.15C148.381 184.876 149.745 184.744 150.61 184.571L150.681 185.212C149.694 185.385 148.188 185.517 146.662 185.517H145.929V181.733H149.897V182.384H146.713V184.876ZM162.689 185.324H161.234V189.984H160.461V181.092H161.234V184.673H162.689V185.324ZM154.519 184.897C154.519 183.025 155.353 181.763 156.798 181.763C158.243 181.763 159.067 183.025 159.067 184.907C159.067 186.789 158.243 188.051 156.798 188.051C155.353 188.051 154.519 186.789 154.519 184.897ZM158.314 184.907C158.314 183.442 157.724 182.435 156.798 182.435C155.872 182.435 155.272 183.442 155.272 184.907C155.272 186.362 155.872 187.379 156.798 187.379C157.724 187.379 158.314 186.362 158.314 184.907ZM170.251 186.413H167.585V188.224H171.228V188.875H163.2V188.224H166.812V186.413H164.167V181.702H164.95V183.34H169.478V181.702H170.251V186.413ZM169.478 185.772V183.981H164.95V185.772H169.478ZM179.533 189.984H178.77V181.092H179.533V189.984ZM177.773 189.536H177.02V184.948H175.443V184.297H177.02V181.305H177.773V189.536ZM176.48 187.176L176.002 187.746C175.32 187.257 174.384 186.199 174.1 185.192C173.906 186.209 173.174 187.369 172.288 188.01L171.81 187.43C172.818 186.789 173.713 185.273 173.713 183.533V181.916H174.476V183.513C174.476 185.243 175.514 186.535 176.48 187.176ZM188.021 183.991C188.021 185.365 186.739 186.281 184.806 186.281C182.893 186.281 181.611 185.365 181.611 183.991C181.611 182.618 182.893 181.682 184.806 181.682C186.749 181.682 188.021 182.618 188.021 183.991ZM187.278 183.991C187.278 182.994 186.301 182.323 184.806 182.323C183.33 182.323 182.353 182.994 182.353 183.991C182.353 184.988 183.33 185.66 184.806 185.66C186.291 185.66 187.278 184.988 187.278 183.991ZM188.835 188.855H180.807V188.204H182.791V186.545L183.564 186.525V188.204H186.047V186.525L186.82 186.545V188.204H188.835V188.855ZM189.651 189.099V188.193H190.536V189.099H189.651Z" fill="white"/>
<path d="M53.1796 144.965H51.3726V137.688H50.168V144.297H48.3935V130.72H50.168V136.158H51.3726V130.46H53.1796V144.965ZM48.0516 140.081L46.9609 141.432C46.033 140.846 44.7958 139.413 44.4051 137.981C44.0144 139.495 42.9237 140.993 41.5562 141.806L40.4655 140.504C42.2888 139.316 43.4772 137.134 43.4772 134.041V131.86H45.3167V134.025C45.3167 136.825 46.2935 139.039 48.0516 140.081ZM70.7763 135.848H66.6902V137.248H72.3066V138.762H59.2018V137.248H64.7693V135.848H60.9437V130.785H70.6624V132.316H62.8483V134.334H70.7763V135.848ZM70.8089 142.262C70.8089 143.939 68.9693 144.981 65.7623 144.981C62.5553 144.981 60.7158 143.939 60.7158 142.262C60.7158 140.618 62.5553 139.56 65.746 139.56C68.9693 139.56 70.8089 140.618 70.8089 142.262ZM68.8554 142.279C68.8554 141.53 67.6344 141.074 65.746 141.074C63.8739 141.074 62.6693 141.53 62.6693 142.279C62.6693 143.027 63.8739 143.467 65.746 143.467C67.6344 143.467 68.8554 143.027 68.8554 142.279ZM84.7152 130.948C84.7152 132.869 84.5687 134.253 84.2756 135.49H86.392V137.004H80.7919V138.42H84.764V142.246H76.7709V143.255H85.3012V144.786H74.8825V140.927H82.8756V139.918H74.7686V138.42H78.8872V137.004H73.2872V135.49H82.4524C82.664 134.692 82.8268 133.406 82.8105 132.462H74.9639V130.948H84.7152ZM100.472 141.041C98.763 141.334 94.8072 141.579 91.5676 141.579C91.5025 141.025 91.4048 140.488 91.3234 139.951H93.3258L92.8374 134.383C93.4723 134.318 94.0909 134.22 94.7095 134.139C94.8235 136.092 94.9049 138.013 95.0188 139.951L96.6467 139.902C96.7607 137.981 96.8746 136.044 96.9723 134.106L98.7956 134.318L98.2909 139.788C99.1212 139.723 99.8049 139.658 100.342 139.544C100.391 140.032 100.44 140.553 100.472 141.041ZM102.979 130.46V136.044H105.031V137.623H102.979V144.965H101.075V130.46H102.979ZM99.9026 133.211H91.7955V131.697H99.9026V133.211ZM117.732 144.965H115.828V130.46H117.732V144.965ZM113.272 131.974C113.158 136.353 111.22 139.934 106.793 142.344L105.62 140.911C108.795 139.462 110.96 136.434 111.22 133.553H106.499V131.974H113.272Z" fill="white"/>
<g clip-path="url(#clip2_4968_62924)">
<rect width="254.363" height="62.4038" transform="translate(24.75 31.0031)" fill="#1D1F29"/>
<path fill-rule="evenodd" clip-rule="evenodd" d="M249.527 71.9016C249.262 71.6367 249.262 71.2072 249.527 70.9423C249.792 70.6774 250.221 70.6774 250.486 70.9423L255.433 75.8891L260.38 70.9423C260.645 70.6774 261.074 70.6774 261.339 70.9423C261.604 71.2072 261.604 71.6367 261.339 71.9016L256.392 76.8484L261.339 81.7952C261.604 82.06 261.604 82.4895 261.339 82.7544C261.074 83.0193 260.645 83.0193 260.38 82.7544L255.433 77.8076L250.486 82.7544C250.221 83.0193 249.792 83.0193 249.527 82.7544C249.262 82.4895 249.262 82.06 249.527 81.7952L254.474 76.8484L249.527 71.9016Z" fill="white"/>
</g>
<g clip-path="url(#clip3_4968_62924)">
<path d="M77.1367 31.6465H225.685C224.256 32.0553 223.255 33.339 223.206 34.824L223.186 35.4191C223.186 44.574 215.765 51.9955 206.61 51.9955H96.2117C87.0568 51.9955 79.6352 44.574 79.6352 35.4191L79.6156 34.824C79.5666 33.339 78.5651 32.0553 77.1367 31.6465Z" fill="#151515"/>
<path opacity="0.35" d="M252.636 46.5692C252.636 45.7575 253.294 45.0995 254.106 45.0995H265.411C266.222 45.0995 266.88 45.7575 266.88 46.5692V50.639C266.88 51.4507 266.222 52.1086 265.411 52.1086H254.106C253.294 52.1086 252.636 51.4507 252.636 50.639V46.5692Z" stroke="white" stroke-width="0.678302"/>
<path opacity="0.4" d="M267.898 47.2474V49.9606C268.444 49.7309 268.799 49.1963 268.799 48.604C268.799 48.0118 268.444 47.4772 267.898 47.2474Z" fill="white"/>
<path d="M253.652 47.0213C253.652 46.5219 254.057 46.1169 254.557 46.1169H264.957C265.457 46.1169 265.862 46.5219 265.862 47.0213V50.1868C265.862 50.6862 265.457 51.0912 264.957 51.0912H254.557C254.057 51.0912 253.652 50.6862 253.652 50.1868V47.0213Z" fill="white"/>
<path fill-rule="evenodd" clip-rule="evenodd" d="M243.703 46.3033C245.206 46.3033 246.652 46.8809 247.741 47.9165C247.823 47.9964 247.954 47.9954 248.035 47.9142L248.819 47.1229C248.86 47.0817 248.883 47.0259 248.883 46.9678C248.882 46.9098 248.859 46.8543 248.818 46.8136C245.958 44.0735 241.448 44.0735 238.589 46.8136C238.547 46.8542 238.524 46.9098 238.523 46.9678C238.523 47.0258 238.546 47.0817 238.587 47.1229L239.371 47.9142C239.452 47.9956 239.583 47.9966 239.665 47.9165C240.754 46.8808 242.2 46.3033 243.703 46.3033ZM243.704 48.8779C244.53 48.8778 245.326 49.1848 245.938 49.7391C246.021 49.8178 246.151 49.8161 246.232 49.7353L247.015 48.9439C247.057 48.9024 247.079 48.8461 247.079 48.7876C247.078 48.7291 247.054 48.6732 247.012 48.6326C245.148 46.8986 242.261 46.8986 240.397 48.6326C240.355 48.6732 240.331 48.7291 240.33 48.7876C240.33 48.8462 240.353 48.9025 240.394 48.9439L241.177 49.7353C241.258 49.8161 241.388 49.8178 241.471 49.7391C242.083 49.1852 242.879 48.8782 243.704 48.8779ZM245.273 50.6101C245.274 50.6688 245.251 50.7254 245.209 50.7665L243.854 52.1337C243.815 52.1739 243.76 52.1965 243.704 52.1965C243.647 52.1965 243.593 52.1739 243.554 52.1337L242.199 50.7665C242.157 50.7254 242.134 50.6688 242.135 50.6101C242.136 50.5514 242.162 50.4959 242.205 50.4565C243.07 49.7247 244.338 49.7247 245.203 50.4565C245.246 50.4959 245.272 50.5515 245.273 50.6101Z" fill="white"/>
<path fill-rule="evenodd" clip-rule="evenodd" d="M234.435 44.9863H233.757C233.382 44.9863 233.078 45.29 233.078 45.6646V51.5432C233.078 51.9179 233.382 52.2215 233.757 52.2215H234.435C234.809 52.2215 235.113 51.9179 235.113 51.5432V45.6646C235.113 45.29 234.809 44.9863 234.435 44.9863ZM230.59 46.569H231.269C231.643 46.569 231.947 46.8727 231.947 47.2473V51.5432C231.947 51.9179 231.643 52.2215 231.269 52.2215H230.59C230.216 52.2215 229.912 51.9179 229.912 51.5432V47.2473C229.912 46.8727 230.216 46.569 230.59 46.569ZM228.105 48.1518H227.427C227.052 48.1518 226.748 48.4554 226.748 48.8301V51.5433C226.748 51.9179 227.052 52.2216 227.427 52.2216H228.105C228.48 52.2216 228.783 51.9179 228.783 51.5433V48.8301C228.783 48.4554 228.48 48.1518 228.105 48.1518ZM224.939 49.5084H224.26C223.886 49.5084 223.582 49.812 223.582 50.1867V51.5433C223.582 51.9179 223.886 52.2216 224.26 52.2216H224.939C225.313 52.2216 225.617 51.9179 225.617 51.5433V50.1867C225.617 49.812 225.313 49.5084 224.939 49.5084Z" fill="white"/>
<path d="M50.0606 52.1694C51.8839 52.1694 52.9669 50.7436 52.9669 48.3291C52.9669 47.42 52.793 46.6549 52.4602 46.0637C51.9783 45.1446 51.1486 44.6478 50.1004 44.6478C48.5404 44.6478 47.4375 45.6961 47.4375 47.1666C47.4375 48.5477 48.4311 49.5513 49.7973 49.5513C50.6369 49.5513 51.3175 49.1588 51.6554 48.4782H51.6703C51.6703 48.4782 51.6901 48.4782 51.6951 48.4782C51.705 48.4782 51.7398 48.4782 51.7398 48.4782C51.7398 50.1176 51.1188 51.0963 50.0706 51.0963C49.4545 51.0963 48.9776 50.7585 48.8136 50.217H47.5369C47.7505 51.3944 48.7491 52.1694 50.0606 52.1694ZM50.1053 48.5328C49.2806 48.5328 48.6944 47.9466 48.6944 47.1269C48.6944 46.327 49.3104 45.716 50.1103 45.716C50.9102 45.716 51.5262 46.337 51.5262 47.1467C51.5262 47.9466 50.9251 48.5328 50.1053 48.5328Z" fill="white"/>
<path d="M55.0636 52.0999C55.5356 52.0999 55.8585 51.762 55.8585 51.3149C55.8585 50.8628 55.5356 50.53 55.0636 50.53C54.5966 50.53 54.2687 50.8628 54.2687 51.3149C54.2687 51.762 54.5966 52.0999 55.0636 52.0999ZM55.0636 48.3739C55.5356 48.3739 55.8585 48.041 55.8585 47.5939C55.8585 47.1418 55.5356 46.8089 55.0636 46.8089C54.5966 46.8089 54.2687 47.1418 54.2687 47.5939C54.2687 48.041 54.5966 48.3739 55.0636 48.3739Z" fill="white"/>
<path d="M60.5088 51.9955H61.7359V50.6591H62.7047V49.5761H61.7359V44.8267H59.9275C58.6607 46.7344 57.6522 48.3291 57.0063 49.5165V50.6591H60.5088V51.9955ZM58.1937 49.5314C59.0283 48.0609 59.7735 46.8834 60.4591 45.87H60.5287V49.6059H58.1937V49.5314Z" fill="white"/>
<path d="M65.4373 51.9955H66.719V44.8267H65.4422L63.5693 46.1382V47.3703L65.3528 46.1184H65.4373V51.9955Z" fill="white"/>
</g>
</g>
<path d="M22.204 51.0031C22.204 38.5512 32.2982 28.4571 44.75 28.4571H259.113C271.565 28.4571 281.659 38.5512 281.659 51.0031H276.567C276.567 41.3635 268.753 33.549 259.113 33.549H44.75C35.1104 33.549 27.296 41.3635 27.296 51.0031H22.204ZM279.113 581.784H24.75H279.113ZM22.204 581.784V51.0031C22.204 38.5512 32.2982 28.4571 44.75 28.4571V33.549C35.1104 33.549 27.296 41.3635 27.296 51.0031V581.784H22.204ZM259.113 28.4571C271.565 28.4571 281.659 38.5512 281.659 51.0031V581.784H276.567V51.0031C276.567 41.3635 268.753 33.549 259.113 33.549V28.4571Z" fill="#4A4D63" mask="url(#path-1-inside-1_4968_62924)"/>
<path d="M113.285 73.0031C113.285 43.475 137.222 19.5379 166.75 19.5379H422.25C447.084 19.5379 467.215 39.6695 467.215 64.5031C467.215 89.3366 447.084 109.468 422.25 109.468H114.889C114.003 109.468 113.285 108.75 113.285 107.864V73.0031Z" fill="#15171E"/>
<path d="M113.285 73.0031C113.285 43.475 137.222 19.5379 166.75 19.5379H422.25C447.084 19.5379 467.215 39.6695 467.215 64.5031C467.215 89.3366 447.084 109.468 422.25 109.468H114.889C114.003 109.468 113.285 108.75 113.285 107.864V73.0031Z" stroke="url(#paint0_linear_4968_62924)" stroke-width="1.06964"/>
<rect x="346.891" y="65.3992" width="50.1077" height="22.2843" fill="url(#paint1_linear_4968_62924)"/>
<rect x="346.891" y="87.6836" width="48.2176" height="7.47537" fill="url(#paint2_linear_4968_62924)"/>
<ellipse cx="360.098" cy="73.0401" rx="0.472721" ry="0.478117" fill="white"/>
<ellipse cx="365.762" cy="73.518" rx="0.472721" ry="0.478117" fill="white"/>
<path d="M366.918 72.683L364.612 74.3531" stroke="url(#paint3_linear_4968_62924)" stroke-width="0.191891"/>
<path d="M366.59 74.6842L364.939 72.3518" stroke="url(#paint4_linear_4968_62924)" stroke-width="0.191891"/>
<path d="M369.932 75.4305C369.932 75.6426 369.762 75.8127 369.555 75.8127C369.348 75.8127 369.178 75.6426 369.178 75.4305C369.178 75.2184 369.348 75.0483 369.555 75.0483C369.762 75.0483 369.932 75.2184 369.932 75.4305Z" stroke="white" stroke-width="0.191891"/>
<mask id="path-30-inside-2_4968_62924" fill="white">
<path fill-rule="evenodd" clip-rule="evenodd" d="M372.3 41.8132C354.627 41.8132 340.281 56.14 340.281 73.8129V90.3911C340.281 93.0242 342.416 95.1588 345.049 95.1588H398.837C401.471 95.1588 403.605 93.0242 403.605 90.3911V73.0991C403.605 55.8204 389.579 41.8132 372.3 41.8132ZM372.325 68.3306C361.833 68.3306 353.328 76.836 353.328 87.3278V94.679C353.328 94.944 353.543 95.1588 353.808 95.1588H390.843C391.108 95.1588 391.322 94.944 391.322 94.679V87.3278C391.322 76.836 382.817 68.3306 372.325 68.3306Z"/>
</mask>
<path fill-rule="evenodd" clip-rule="evenodd" d="M372.3 41.8132C354.627 41.8132 340.281 56.14 340.281 73.8129V90.3911C340.281 93.0242 342.416 95.1588 345.049 95.1588H398.837C401.471 95.1588 403.605 93.0242 403.605 90.3911V73.0991C403.605 55.8204 389.579 41.8132 372.3 41.8132ZM372.325 68.3306C361.833 68.3306 353.328 76.836 353.328 87.3278V94.679C353.328 94.944 353.543 95.1588 353.808 95.1588H390.843C391.108 95.1588 391.322 94.944 391.322 94.679V87.3278C391.322 76.836 382.817 68.3306 372.325 68.3306Z" fill="#36394F"/>
<path d="M340.761 73.8129C340.761 56.4053 354.892 42.293 372.3 42.293V41.3335C354.363 41.3335 339.802 55.8746 339.802 73.8129H340.761ZM340.761 90.3911V73.8129H339.802V90.3911H340.761ZM345.049 94.6791C342.681 94.6791 340.761 92.7593 340.761 90.3911H339.802C339.802 93.2892 342.151 95.6385 345.049 95.6385V94.6791ZM398.837 94.6791H345.049V95.6385H398.837V94.6791ZM403.125 90.3911C403.125 92.7593 401.206 94.6791 398.837 94.6791V95.6385C401.735 95.6385 404.085 93.2892 404.085 90.3911H403.125ZM403.125 73.0991V90.3911H404.085V73.0991H403.125ZM372.3 42.293C389.314 42.293 403.125 56.0857 403.125 73.0991H404.085C404.085 55.5551 389.844 41.3335 372.3 41.3335V42.293ZM353.808 87.3278C353.808 77.1009 362.098 68.8104 372.325 68.8104V67.8509C361.568 67.8509 352.848 76.571 352.848 87.3278H353.808ZM353.808 94.679V87.3278H352.848V94.679H353.808ZM390.843 94.679H353.808V95.6385H390.843V94.679ZM390.843 87.3278V94.679H391.802V87.3278H390.843ZM372.325 68.8104C382.552 68.8104 390.843 77.1009 390.843 87.3278H391.802C391.802 76.571 383.082 67.8509 372.325 67.8509V68.8104ZM390.843 95.6385C391.373 95.6385 391.802 95.2089 391.802 94.679H390.843V95.6385ZM352.848 94.679C352.848 95.2089 353.278 95.6385 353.808 95.6385V94.679H353.808H352.848Z" fill="url(#paint5_linear_4968_62924)" mask="url(#path-30-inside-2_4968_62924)"/>
<path d="M351.919 87.3078C351.919 76.0393 361.054 66.9044 372.322 66.9044C383.591 66.9044 392.726 76.0393 392.726 87.3078V94.6462H351.919V87.3078Z" stroke="url(#paint6_linear_4968_62924)" stroke-width="1.02539"/>
<path d="M371.887 46.1043C348.991 46.1043 341.266 65.4668 340.266 73.6673C340.266 56.0749 354.811 41.8135 372.403 41.8135C389.475 41.8135 403.59 55.6529 403.59 72.7247V73.6673C402.562 65.4668 394.783 46.1043 371.887 46.1043Z" fill="url(#paint7_linear_4968_62924)"/>
<rect x="279.621" y="66.3917" width="49.163" height="21.2918" fill="url(#paint8_linear_4968_62924)"/>
<path opacity="0.4" d="M294.458 82.8446C293.394 81.8566 288.441 81.4829 286.383 81.8946C284.886 82.1517 280.018 85.5997 280.493 88.2598C280.968 90.9199 285.719 88.4498 288.854 88.2598C291.989 88.0698 297.594 88.431 300.919 88.336C304.244 88.241 304.529 84.9159 300.919 84.2508C297.309 83.5858 295.789 84.0796 294.458 82.8446Z" fill="white"/>
<path opacity="0.4" d="M315.937 73.6623C319.079 70.7471 320.945 72.6337 323.003 73.0454C324.5 73.3025 333.797 73.1541 333.322 75.8142C332.847 78.4743 329.193 78.6053 326.058 78.4153C322.923 78.2253 317.293 78.0799 313.992 78.4915C309.545 79.046 307.578 76.4793 311.188 75.8142C314.798 75.1492 314.606 74.8973 315.937 73.6623Z" fill="white"/>
<rect x="280.574" y="86.9912" width="44.4358" height="8.1676" rx="2.87836" fill="url(#paint9_linear_4968_62924)"/>
<mask id="path-38-inside-3_4968_62924" fill="white">
<path fill-rule="evenodd" clip-rule="evenodd" d="M303.144 41.8132C285.471 41.8132 271.125 56.14 271.125 73.8129V90.3911C271.125 93.0242 273.26 95.1588 275.893 95.1588H329.681C332.314 95.1588 334.449 93.0242 334.449 90.3911V73.0991C334.449 55.8204 320.423 41.8132 303.144 41.8132ZM303.169 68.3306C292.677 68.3306 284.172 76.836 284.172 87.3278V94.679C284.172 94.944 284.387 95.1588 284.652 95.1588H321.686C321.951 95.1588 322.166 94.944 322.166 94.679V87.3278C322.166 76.836 313.661 68.3306 303.169 68.3306Z"/>
</mask>
<path fill-rule="evenodd" clip-rule="evenodd" d="M303.144 41.8132C285.471 41.8132 271.125 56.14 271.125 73.8129V90.3911C271.125 93.0242 273.26 95.1588 275.893 95.1588H329.681C332.314 95.1588 334.449 93.0242 334.449 90.3911V73.0991C334.449 55.8204 320.423 41.8132 303.144 41.8132ZM303.169 68.3306C292.677 68.3306 284.172 76.836 284.172 87.3278V94.679C284.172 94.944 284.387 95.1588 284.652 95.1588H321.686C321.951 95.1588 322.166 94.944 322.166 94.679V87.3278C322.166 76.836 313.661 68.3306 303.169 68.3306Z" fill="#36394F"/>
<path d="M271.605 73.8129C271.605 56.4053 285.736 42.293 303.144 42.293V41.3335C285.207 41.3335 270.645 55.8746 270.645 73.8129H271.605ZM271.605 90.3911V73.8129H270.645V90.3911H271.605ZM275.893 94.6791C273.525 94.6791 271.605 92.7593 271.605 90.3911H270.645C270.645 93.2892 272.995 95.6385 275.893 95.6385V94.6791ZM329.681 94.6791H275.893V95.6385H329.681V94.6791ZM333.969 90.3911C333.969 92.7593 332.049 94.6791 329.681 94.6791V95.6385C332.579 95.6385 334.929 93.2892 334.929 90.3911H333.969ZM333.969 73.0991V90.3911H334.929V73.0991H333.969ZM303.144 42.293C320.158 42.293 333.969 56.0857 333.969 73.0991H334.929C334.929 55.5551 320.687 41.3335 303.144 41.3335V42.293ZM284.652 87.3278C284.652 77.1009 292.942 68.8104 303.169 68.8104V67.8509C292.412 67.8509 283.692 76.571 283.692 87.3278H284.652ZM284.652 94.679V87.3278H283.692V94.679H284.652ZM321.686 94.679H284.652V95.6385H321.686V94.679ZM321.686 87.3278V94.679H322.646V87.3278H321.686ZM303.169 68.8104C313.396 68.8104 321.686 77.1009 321.686 87.3278H322.646C322.646 76.571 313.926 67.8509 303.169 67.8509V68.8104ZM321.686 95.6385C322.216 95.6385 322.646 95.2089 322.646 94.679H321.686V95.6385ZM283.692 94.679C283.692 95.2089 284.122 95.6385 284.652 95.6385V94.679H284.652H283.692Z" fill="url(#paint10_linear_4968_62924)" mask="url(#path-38-inside-3_4968_62924)"/>
<path d="M282.767 87.3078C282.767 76.0393 291.902 66.9044 303.17 66.9044C314.438 66.9044 323.573 76.0393 323.573 87.3078V94.6462H282.767V87.3078Z" stroke="url(#paint11_linear_4968_62924)" stroke-width="1.02539"/>
<path d="M302.742 46.1043C279.847 46.1043 272.122 65.4668 271.121 73.6673C271.121 56.0749 285.666 41.8135 303.259 41.8135C320.33 41.8135 334.445 55.6529 334.445 72.7247V73.6673C333.417 65.4668 325.638 46.1043 302.742 46.1043Z" fill="url(#paint12_linear_4968_62924)"/>
<rect x="203.867" y="67.4045" width="54.8357" height="19.3195" rx="9.65976" fill="url(#paint13_linear_4968_62924)"/>
<ellipse opacity="0.3" cx="246.891" cy="84.9694" rx="10.2266" ry="10.3433" fill="#FF916E"/>
<ellipse opacity="0.4" cx="246.891" cy="84.9696" rx="9.2039" ry="9.30895" fill="#FF916E"/>
<ellipse cx="246.901" cy="84.9695" rx="7.15859" ry="7.2403" fill="#FF916E"/>
<rect x="208.598" y="86.724" width="48.2176" height="8.6061" fill="url(#paint14_linear_4968_62924)"/>
<mask id="path-47-inside-4_4968_62924" fill="white">
<path fill-rule="evenodd" clip-rule="evenodd" d="M233.992 41.9847C216.319 41.9847 201.973 56.3115 201.973 73.9844V90.5626C201.973 93.1957 204.107 95.3303 206.74 95.3303H260.529C263.162 95.3303 265.297 93.1958 265.297 90.5626V73.2706C265.297 55.9919 251.27 41.9847 233.992 41.9847ZM234.017 68.5021C223.525 68.5021 215.02 77.0075 215.02 87.4993V94.8505C215.02 95.1155 215.234 95.3303 215.499 95.3303H252.534C252.799 95.3303 253.014 95.1155 253.014 94.8505V87.4993C253.014 77.0075 244.509 68.5021 234.017 68.5021Z"/>
</mask>
<path fill-rule="evenodd" clip-rule="evenodd" d="M233.992 41.9847C216.319 41.9847 201.973 56.3115 201.973 73.9844V90.5626C201.973 93.1957 204.107 95.3303 206.74 95.3303H260.529C263.162 95.3303 265.297 93.1958 265.297 90.5626V73.2706C265.297 55.9919 251.27 41.9847 233.992 41.9847ZM234.017 68.5021C223.525 68.5021 215.02 77.0075 215.02 87.4993V94.8505C215.02 95.1155 215.234 95.3303 215.499 95.3303H252.534C252.799 95.3303 253.014 95.1155 253.014 94.8505V87.4993C253.014 77.0075 244.509 68.5021 234.017 68.5021Z" fill="#36394F"/>
<path d="M202.452 73.9844C202.452 56.5768 216.583 42.4645 233.992 42.4645V41.505C216.054 41.505 201.493 56.0462 201.493 73.9844H202.452ZM202.452 90.5626V73.9844H201.493V90.5626H202.452ZM206.74 94.8506C204.372 94.8506 202.452 92.9308 202.452 90.5626H201.493C201.493 93.4607 203.842 95.81 206.74 95.81V94.8506ZM260.529 94.8506H206.74V95.81H260.529V94.8506ZM264.817 90.5626C264.817 92.9308 262.897 94.8506 260.529 94.8506V95.81C263.427 95.81 265.776 93.4607 265.776 90.5626H264.817ZM264.817 73.2706V90.5626H265.776V73.2706H264.817ZM233.992 42.4645C251.006 42.4645 264.817 56.2572 264.817 73.2706H265.776C265.776 55.7266 251.535 41.505 233.992 41.505V42.4645ZM215.499 87.4993C215.499 77.2724 223.79 68.9819 234.017 68.9819V68.0224C223.26 68.0224 214.54 76.7425 214.54 87.4993H215.499ZM215.499 94.8505V87.4993H214.54V94.8505H215.499ZM252.534 94.8505H215.499V95.81H252.534V94.8505ZM252.534 87.4993V94.8505H253.494V87.4993H252.534ZM234.017 68.9819C244.244 68.9819 252.534 77.2724 252.534 87.4993H253.494C253.494 76.7425 244.773 68.0224 234.017 68.0224V68.9819ZM252.534 95.81C253.064 95.81 253.494 95.3804 253.494 94.8505H252.534V95.81ZM214.54 94.8505C214.54 95.3804 214.969 95.81 215.499 95.81V94.8505H215.499H214.54Z" fill="url(#paint15_linear_4968_62924)" mask="url(#path-47-inside-4_4968_62924)"/>
<path d="M213.622 87.4791C213.622 76.2106 222.757 67.0757 234.025 67.0757C245.294 67.0757 254.429 76.2106 254.429 87.4791V94.8175H213.622V87.4791Z" stroke="url(#paint16_linear_4968_62924)" stroke-width="1.02539"/>
<path d="M233.598 46.2754C210.702 46.2754 202.977 65.6378 201.977 73.8383C201.977 56.2459 216.522 41.9845 234.114 41.9845C251.186 41.9845 265.3 55.8239 265.3 72.8957V73.8383C264.273 65.6378 256.494 46.2754 233.598 46.2754Z" fill="url(#paint17_linear_4968_62924)"/>
<g clip-path="url(#clip4_4968_62924)" filter="url(#filter0_d_4968_62924)">
<rect x="143.035" y="62.1395" width="46.0195" height="25.8582" fill="url(#paint18_linear_4968_62924)"/>
<ellipse opacity="0.3" cx="150.969" cy="85.3565" rx="9.69168" ry="9.8023" fill="#FDFFF4"/>
<ellipse opacity="0.4" cx="150.965" cy="85.3565" rx="8.72252" ry="8.82207" fill="#FDFFF4"/>
<ellipse cx="150.964" cy="85.3565" rx="6.78418" ry="6.86161" fill="#FDFFF4"/>
<rect x="140.387" y="87.1365" width="49.7023" height="8.02231" fill="url(#paint19_linear_4968_62924)"/>
<mask id="path-56-inside-5_4968_62924" fill="white">
<path fill-rule="evenodd" clip-rule="evenodd" d="M164.828 41.8132C147.155 41.8132 132.809 56.14 132.809 73.8129V90.3911C132.809 93.0242 134.943 95.1588 137.576 95.1588H191.365C193.998 95.1588 196.132 93.0242 196.132 90.3911V73.0991C196.132 55.8204 182.106 41.8132 164.828 41.8132ZM164.853 68.3306C154.361 68.3306 145.855 76.836 145.855 87.3278V94.679C145.855 94.944 146.07 95.1588 146.335 95.1588H183.37C183.635 95.1588 183.85 94.944 183.85 94.679V87.3278C183.85 76.836 175.344 68.3306 164.853 68.3306Z"/>
</mask>
<path fill-rule="evenodd" clip-rule="evenodd" d="M164.828 41.8132C147.155 41.8132 132.809 56.14 132.809 73.8129V90.3911C132.809 93.0242 134.943 95.1588 137.576 95.1588H191.365C193.998 95.1588 196.132 93.0242 196.132 90.3911V73.0991C196.132 55.8204 182.106 41.8132 164.828 41.8132ZM164.853 68.3306C154.361 68.3306 145.855 76.836 145.855 87.3278V94.679C145.855 94.944 146.07 95.1588 146.335 95.1588H183.37C183.635 95.1588 183.85 94.944 183.85 94.679V87.3278C183.85 76.836 175.344 68.3306 164.853 68.3306Z" fill="#36394F"/>
<path d="M133.288 73.8129C133.288 56.4053 147.419 42.293 164.828 42.293V41.3335C146.89 41.3335 132.329 55.8746 132.329 73.8129H133.288ZM133.288 90.3911V73.8129H132.329V90.3911H133.288ZM137.576 94.6791C135.208 94.6791 133.288 92.7593 133.288 90.3911H132.329C132.329 93.2892 134.678 95.6385 137.576 95.6385V94.6791ZM191.365 94.6791H137.576V95.6385H191.365V94.6791ZM195.653 90.3911C195.653 92.7593 193.733 94.6791 191.365 94.6791V95.6385C194.263 95.6385 196.612 93.2892 196.612 90.3911H195.653ZM195.653 73.0991V90.3911H196.612V73.0991H195.653ZM164.828 42.293C181.842 42.293 195.653 56.0857 195.653 73.0991H196.612C196.612 55.5551 182.371 41.3335 164.828 41.3335V42.293ZM146.335 87.3278C146.335 77.1009 154.626 68.8104 164.853 68.8104V67.8509C154.096 67.8509 145.376 76.571 145.376 87.3278H146.335ZM146.335 94.679V87.3278H145.376V94.679H146.335ZM183.37 94.679H146.335V95.6385H183.37V94.679ZM183.37 87.3278V94.679H184.33V87.3278H183.37ZM164.853 68.8104C175.08 68.8104 183.37 77.1009 183.37 87.3278H184.33C184.33 76.571 175.609 67.8509 164.853 67.8509V68.8104ZM183.37 95.6385C183.9 95.6385 184.33 95.2089 184.33 94.679H183.37V95.6385ZM145.376 94.679C145.376 95.2089 145.805 95.6385 146.335 95.6385V94.679H146.335H145.376Z" fill="url(#paint20_linear_4968_62924)" mask="url(#path-56-inside-5_4968_62924)"/>
<path d="M144.462 87.3079C144.462 76.0395 153.597 66.9045 164.865 66.9045C176.134 66.9045 185.269 76.0394 185.269 87.3079V94.6463H144.462V87.3079Z" stroke="url(#paint21_linear_4968_62924)" stroke-width="1.02539"/>
<path d="M164.445 46.1043C141.55 46.1043 133.825 65.4668 132.824 73.6673C132.824 56.0749 147.369 41.8135 164.962 41.8135C182.033 41.8135 196.148 55.6529 196.148 72.7247V73.6673C195.12 65.4668 187.341 46.1043 164.445 46.1043Z" fill="url(#paint22_linear_4968_62924)"/>
</g>
<path fill-rule="evenodd" clip-rule="evenodd" d="M117.911 11V20.817H116.331V11H117.911ZM102.91 26.0921H112.659V24.5128L102.91 24.5128V26.0921ZM115.937 29.4019V39.2189H117.516V29.4019H115.937ZM130.934 24.1269H121.185V25.7061H130.934V24.1269Z" fill="#59D7A0"/>
<rect width="375" height="134" transform="matrix(1 0 0 -1 0.75 426)" fill="url(#paint23_linear_4968_62924)"/>
</g>
<defs>
<filter id="filter0_d_4968_62924" x="131.859" y="31.2594" width="65.2422" height="64.2833" filterUnits="userSpaceOnUse" color-interpolation-filters="sRGB">
<feFlood flood-opacity="0" result="BackgroundImageFix"/>
<feColorMatrix in="SourceAlpha" type="matrix" values="0 0 0 0 0 0 0 0 0 0 0 0 0 0 0 0 0 0 127 0" result="hardAlpha"/>
<feOffset dy="-0.959453"/>
<feComposite in2="hardAlpha" operator="out"/>
<feColorMatrix type="matrix" values="0 0 0 0 1 0 0 0 0 1 0 0 0 0 1 0 0 0 1 0"/>
<feBlend mode="normal" in2="BackgroundImageFix" result="effect1_dropShadow_4968_62924"/>
<feBlend mode="normal" in="SourceGraphic" in2="effect1_dropShadow_4968_62924" result="shape"/>
</filter>
<linearGradient id="paint0_linear_4968_62924" x1="112.75" y1="110.003" x2="252.975" y2="-53.0915" gradientUnits="userSpaceOnUse">
<stop stop-color="white"/>
<stop offset="1" stop-color="white" stop-opacity="0"/>
</linearGradient>
<linearGradient id="paint1_linear_4968_62924" x1="378.069" y1="68.4379" x2="378.991" y2="87.6926" gradientUnits="userSpaceOnUse">
<stop stop-color="#21232D"/>
<stop offset="0.0001" stop-color="#211136"/>
<stop offset="1" stop-color="#403A87"/>
</linearGradient>
<linearGradient id="paint2_linear_4968_62924" x1="351.618" y1="91.4213" x2="381.582" y2="81.314" gradientUnits="userSpaceOnUse">
<stop stop-color="#1A2D72"/>
<stop offset="1" stop-color="#151444"/>
</linearGradient>
<linearGradient id="paint3_linear_4968_62924" x1="367.207" y1="73.0911" x2="364.883" y2="74.7362" gradientUnits="userSpaceOnUse">
<stop stop-color="white" stop-opacity="0"/>
<stop offset="0.5" stop-color="white"/>
<stop offset="1" stop-color="white" stop-opacity="0"/>
</linearGradient>
<linearGradient id="paint4_linear_4968_62924" x1="366.185" y1="74.9775" x2="364.509" y2="72.6631" gradientUnits="userSpaceOnUse">
<stop stop-color="white" stop-opacity="0"/>
<stop offset="0.5" stop-color="white"/>
<stop offset="1" stop-color="white" stop-opacity="0"/>
</linearGradient>
<linearGradient id="paint5_linear_4968_62924" x1="371.943" y1="41.8132" x2="371.943" y2="95.1588" gradientUnits="userSpaceOnUse">
<stop stop-color="#36394F"/>
<stop offset="0.701067" stop-color="#36394F" stop-opacity="0"/>
<stop offset="1" stop-color="#16171F"/>
</linearGradient>
<linearGradient id="paint6_linear_4968_62924" x1="379.755" y1="66.3917" x2="373.987" y2="88.0847" gradientUnits="userSpaceOnUse">
<stop stop-color="#9197C6"/>
<stop offset="1" stop-color="#575B75" stop-opacity="0"/>
</linearGradient>
<linearGradient id="paint7_linear_4968_62924" x1="371.928" y1="41.8135" x2="359.68" y2="64.2059" gradientUnits="userSpaceOnUse">
<stop stop-color="#565A78"/>
<stop offset="1" stop-color="#565A78" stop-opacity="0"/>
</linearGradient>
<linearGradient id="paint8_linear_4968_62924" x1="307.039" y1="64.8146" x2="310.151" y2="87.8394" gradientUnits="userSpaceOnUse">
<stop stop-color="#FFE897"/>
<stop offset="1" stop-color="#FF9FB6"/>
</linearGradient>
<linearGradient id="paint9_linear_4968_62924" x1="315.933" y1="86.7841" x2="285.226" y2="100.136" gradientUnits="userSpaceOnUse">
<stop stop-color="#9EC8F8"/>
<stop offset="1" stop-color="#99DCE0"/>
</linearGradient>
<linearGradient id="paint10_linear_4968_62924" x1="302.787" y1="41.8132" x2="302.787" y2="95.1588" gradientUnits="userSpaceOnUse">
<stop stop-color="#36394F"/>
<stop offset="0.701067" stop-color="#36394F" stop-opacity="0"/>
<stop offset="1" stop-color="#16171F"/>
</linearGradient>
<linearGradient id="paint11_linear_4968_62924" x1="310.603" y1="66.3917" x2="304.834" y2="88.0847" gradientUnits="userSpaceOnUse">
<stop stop-color="#9197C6"/>
<stop offset="1" stop-color="#575B75" stop-opacity="0"/>
</linearGradient>
<linearGradient id="paint12_linear_4968_62924" x1="302.783" y1="41.8135" x2="290.535" y2="64.2059" gradientUnits="userSpaceOnUse">
<stop stop-color="#565A78"/>
<stop offset="1" stop-color="#565A78" stop-opacity="0"/>
</linearGradient>
<linearGradient id="paint13_linear_4968_62924" x1="237.987" y1="70.039" x2="238.621" y2="86.7462" gradientUnits="userSpaceOnUse">
<stop stop-color="#FDA777"/>
<stop offset="1" stop-color="#E8FFC2"/>
</linearGradient>
<linearGradient id="paint14_linear_4968_62924" x1="218.07" y1="91.81" x2="243.925" y2="82.4874" gradientUnits="userSpaceOnUse">
<stop stop-color="#71EFD1"/>
<stop offset="1" stop-color="#1DBFD6"/>
</linearGradient>
<linearGradient id="paint15_linear_4968_62924" x1="233.635" y1="41.9847" x2="233.635" y2="95.3303" gradientUnits="userSpaceOnUse">
<stop stop-color="#36394F"/>
<stop offset="0.701067" stop-color="#36394F" stop-opacity="0"/>
<stop offset="1" stop-color="#16171F"/>
</linearGradient>
<linearGradient id="paint16_linear_4968_62924" x1="241.458" y1="66.563" x2="235.69" y2="88.256" gradientUnits="userSpaceOnUse">
<stop stop-color="#9197C6"/>
<stop offset="1" stop-color="#575B75" stop-opacity="0"/>
</linearGradient>
<linearGradient id="paint17_linear_4968_62924" x1="233.638" y1="41.9845" x2="221.391" y2="64.3769" gradientUnits="userSpaceOnUse">
<stop stop-color="#565A78"/>
<stop offset="1" stop-color="#565A78" stop-opacity="0"/>
</linearGradient>
<linearGradient id="paint18_linear_4968_62924" x1="171.67" y1="65.6656" x2="173.019" y2="87.978" gradientUnits="userSpaceOnUse">
<stop stop-color="#61AFF8"/>
<stop offset="1" stop-color="#B5E9FF"/>
</linearGradient>
<linearGradient id="paint19_linear_4968_62924" x1="140.387" y1="92.9709" x2="169.707" y2="82.0646" gradientUnits="userSpaceOnUse">
<stop stop-color="#71ABEF"/>
<stop offset="1" stop-color="#1D72D6"/>
</linearGradient>
<linearGradient id="paint20_linear_4968_62924" x1="164.471" y1="41.8132" x2="164.471" y2="95.1588" gradientUnits="userSpaceOnUse">
<stop stop-color="#36394F"/>
<stop offset="0.701067" stop-color="#36394F" stop-opacity="0"/>
<stop offset="1" stop-color="#16171F"/>
</linearGradient>
<linearGradient id="paint21_linear_4968_62924" x1="172.298" y1="66.3918" x2="166.529" y2="88.0849" gradientUnits="userSpaceOnUse">
<stop stop-color="#9197C6"/>
<stop offset="1" stop-color="#575B75" stop-opacity="0"/>
</linearGradient>
<linearGradient id="paint22_linear_4968_62924" x1="164.486" y1="41.8135" x2="152.238" y2="64.2059" gradientUnits="userSpaceOnUse">
<stop stop-color="#565A78"/>
<stop offset="1" stop-color="#565A78" stop-opacity="0"/>
</linearGradient>
<linearGradient id="paint23_linear_4968_62924" x1="187.5" y1="67.5726" x2="187.5" y2="134" gradientUnits="userSpaceOnUse">
<stop stop-color="#292C3B"/>
<stop offset="1" stop-color="#292C3B" stop-opacity="0"/>
</linearGradient>
<clipPath id="clip0_4968_62924">
<rect width="375" height="378" fill="white" transform="translate(0.75)"/>
</clipPath>
<clipPath id="clip1_4968_62924">
<path d="M24.75 51.003C24.75 39.9574 33.7043 31.0031 44.75 31.0031H259.113C270.159 31.0031 279.113 39.9574 279.113 51.0031V581.784H24.75V51.003Z" fill="white"/>
</clipPath>
<clipPath id="clip2_4968_62924">
<rect width="254.363" height="62.4038" fill="white" transform="translate(24.75 31.0031)"/>
</clipPath>
<clipPath id="clip3_4968_62924">
<rect width="254.363" height="29.8453" fill="white" transform="translate(24.75 33.0031)"/>
</clipPath>
<clipPath id="clip4_4968_62924">
<rect width="65.2428" height="63.3239" fill="white" transform="translate(131.859 32.2189)"/>
</clipPath>
</defs>
</svg>
