<svg width="18" height="19" viewBox="0 0 18 19" fill="none" xmlns="http://www.w3.org/2000/svg">
<path fill-rule="evenodd" clip-rule="evenodd" d="M13.6286 16.1463C11.667 16.4765 8.33519 16.1867 6.18534 13.0321C4.42426 10.448 3.68198 7.08281 3.42838 4.58681C3.29388 3.26307 4.48482 2.28831 5.73114 2.74475C7.75385 3.48553 10.437 4.87844 12.8018 7.22341C15.8566 10.2527 15.5395 13.4814 14.7936 15.241C14.5886 15.7248 14.1455 16.0592 13.6286 16.1463ZM6.99989 6.7204C6.91167 6.51685 6.67791 6.42458 6.47779 6.51431C6.27766 6.60405 6.18695 6.84181 6.27517 7.04536C6.83476 8.33649 7.86379 9.85351 9.01681 11.1912C10.1673 12.5259 11.4762 13.723 12.6152 14.3444C12.8079 14.4496 13.048 14.3759 13.1513 14.1799C13.2547 13.9838 13.1823 13.7397 12.9896 13.6345C11.9717 13.0792 10.7362 11.964 9.61235 10.6601C8.49109 9.35929 7.51609 7.9114 6.99989 6.7204Z" fill="#9BE6C5"/>
</svg>
