<svg width="113" height="120" viewBox="0 0 113 120" fill="none" xmlns="http://www.w3.org/2000/svg">
<path fill-rule="evenodd" clip-rule="evenodd" d="M53.7604 72.3748C54.9839 64.3905 54.4815 47.5886 52.8065 40.0617C52.7117 39.6359 53.16 39.2855 53.5421 39.496C54.9467 40.2696 56.9082 41.4591 58.1298 42.7024C58.469 43.0477 59.2223 42.8912 59.2944 42.4125C59.4548 41.3472 59.5977 40.2278 59.7442 39.0804C60.4259 33.7404 61.1852 27.7931 64.1426 23.8716C64.4252 23.4968 65.0086 23.7346 65.0296 24.2034C65.2468 29.0662 68.101 36.3423 70.6374 38.6291C70.8514 38.822 71.1752 38.7517 71.3163 38.5006C73.5961 34.4455 74.8065 28.5518 76.1841 21.8433C77.0393 17.6792 77.9589 13.2012 79.2388 8.65413C79.3375 8.30351 79.7492 8.1921 79.9521 8.49459C81.8893 11.3823 83.7169 20.8274 84.1554 25.0465C84.2051 25.5241 84.806 25.6933 85.035 25.2713C86.4108 22.7364 88.3533 17.9198 90.2563 13.2012C92.3684 7.96387 94.4319 2.8472 95.6179 1.10506C95.8287 0.795308 96.1696 0.961038 96.2021 1.33433C96.4279 3.92187 97.5801 7.9333 98.4403 9.96307C98.5535 10.2303 98.872 10.3295 99.121 10.1805C102.551 8.12688 108.416 3.79918 112.191 0.144935C112.515 -0.167733 113.042 0.0583706 112.997 0.505675C112.367 6.73892 107.503 19.8525 102.189 24.5045C101.844 24.8064 101.995 25.3915 102.453 25.4081C105.006 25.5008 108.784 25.0331 111.903 24.3324C112.336 24.2351 112.693 24.7018 112.475 25.0887C112.315 25.3742 112.151 25.6678 111.983 25.9688C108.619 31.9997 103.603 40.9897 91.2607 46.708C90.7608 46.9396 90.9047 47.5361 91.4458 47.4318C95.2216 46.7036 100.847 44.8221 105.318 43.2858C105.8 43.12 106.202 43.7024 105.876 44.0947C105.59 44.4382 105.291 44.7993 104.982 45.1734C101.938 48.853 97.8439 53.802 94.7818 55.8535C94.4448 56.0793 94.4549 56.6 94.8252 56.7657C96.7166 57.612 99.1776 58.3664 100.971 58.6503C101.423 58.7219 101.641 59.3337 101.301 59.6395C98.0474 62.563 92.1481 67.4886 85.1505 67.6222C84.6299 67.6321 84.387 68.3423 84.8367 68.6048C86.886 69.8012 89.6507 70.9836 93.1755 71.1842C93.6112 71.209 93.746 71.8088 93.3376 71.9625C82.1988 76.1525 61.2566 75.4217 54.0702 72.9073C53.8461 72.829 53.7245 72.6095 53.7604 72.3748ZM22.2141 73.2634C22.2225 73.7594 22.2411 74.4117 22.2633 75.1926C22.4373 81.3073 22.8357 95.3076 20.38 103.916C20.242 104.4 20.8271 104.809 21.2229 104.498L21.4159 104.347C21.4399 104.354 21.4655 104.359 21.4924 104.362C22.9308 104.508 24.7439 104.523 26.9602 104.543H26.9603C32.3122 104.589 40.0148 104.656 50.4671 106.622C50.813 106.687 51.0604 106.313 50.8396 106.036C49.3121 104.121 47.1245 102.752 45.7028 101.863C44.7862 101.29 44.1881 100.916 44.2905 100.723C44.658 100.03 62.6227 100.668 73.73 101.797C74.1249 101.838 74.3244 101.342 74.0127 101.092C72.4077 99.8063 69.3255 97.389 67.4312 96.2347C67.1562 96.0671 67.1582 95.6631 67.458 95.5534C68.9 95.0256 70.8793 94.9764 73.7607 94.9048C75.5025 94.8616 77.5739 94.8101 80.0556 94.6398C80.44 94.6134 80.5529 94.1218 80.2121 93.9371C74.1369 90.6443 64.2485 88.571 59.7867 88.5708C55.7742 88.5706 65.7835 82.0827 68.9209 80.1092C69.2328 79.913 69.1329 79.4336 68.7661 79.3831C62.2365 78.4835 52.6772 79.1272 43.3346 85.4448C49.9512 75.062 50.6109 60.7731 49.9775 56.5673C49.9107 56.1237 49.537 56.1895 49.3636 56.6033C48.6949 58.1999 46.9044 59.8129 45.6527 60.9404L45.5924 60.9948C45.2591 61.2951 44.6685 61.0535 44.6198 60.6075C44.2347 57.0817 42.4099 51.7091 40.7753 48.6184C40.5464 48.1856 39.9502 48.3587 39.9345 48.848C39.6372 58.103 36.8008 64.5663 34.597 68.238C34.3805 68.5987 33.836 68.5337 33.6688 68.1476C32.0955 64.5144 28.2269 59.7145 29.3094 63.0494C30.0579 65.3552 30.4928 77.6322 28.126 82.4932C27.8302 83.1008 26.6468 80.6703 25.3894 78.0879C24.3687 75.9915 23.2993 73.7951 22.6164 73.0426C22.4308 72.8381 22.2093 72.9873 22.2141 73.2634Z" fill="#36394F"/>
<path fill-rule="evenodd" clip-rule="evenodd" d="M75.7904 48.8151C76.2859 49.2291 76.3727 49.993 75.9844 50.5212C41.4272 95.153 19.5048 107.873 3.11032 118.441L2.72973 118.686C2.19105 119.033 1.49032 118.849 1.16461 118.275C0.838893 117.701 1.01154 116.954 1.55021 116.606C1.69155 116.515 1.83342 116.424 1.97583 116.332C18.2228 105.86 39.4821 93.1961 74.1902 49.0219C74.5785 48.4937 75.295 48.4011 75.7904 48.8151Z" fill="#4A4D63" stroke="#4A4D63" stroke-width="0.5" stroke-linecap="round"/>
<ellipse cx="11.0302" cy="72.2805" rx="1.9716" ry="1.98865" fill="#6B6E82"/>
<path fill-rule="evenodd" clip-rule="evenodd" d="M68.3627 115.003C69.2681 115.003 70.0171 115.748 70.0171 116.685C70.0171 117.623 69.2681 118.368 68.3627 118.368C67.4573 118.368 66.7083 117.623 66.7083 116.685C66.7083 115.748 67.4573 115.003 68.3627 115.003ZM68.3627 113.371C70.1724 113.371 71.6395 114.855 71.6395 116.685C71.6395 118.516 70.1724 120 68.3627 120C66.553 120 65.0859 118.516 65.0859 116.685C65.0859 114.855 66.553 113.371 68.3627 113.371Z" fill="#4A4D63"/>
<ellipse cx="1.31093" cy="1.32576" rx="1.31093" ry="1.32576" transform="matrix(1 0 0 -1 73.875 112.709)" fill="#9093A8"/>
</svg>
