<svg width="120" height="94" viewBox="0 0 120 94" fill="none" xmlns="http://www.w3.org/2000/svg">
<path fill-rule="evenodd" clip-rule="evenodd" d="M57.343 56.5456C58.2786 50.3323 57.9031 37.5151 56.6298 31.5263C56.5392 31.0999 56.9875 30.7426 57.3683 30.9549C58.3673 31.5119 59.6455 32.2981 60.548 33.1317C60.9029 33.4596 61.6752 33.2852 61.7449 32.8071C61.8526 32.068 61.9515 31.2985 62.0524 30.5123C62.577 26.4282 63.1597 21.8913 65.3509 18.8154C65.6229 18.4336 66.2082 18.6668 66.2412 19.1343C66.5061 22.8893 68.6383 28.2566 70.5682 30.0825C70.7767 30.2797 71.1016 30.2107 71.2409 29.9599C73.0051 26.7817 73.952 22.1983 75.0284 16.9885C75.6934 13.7695 76.4079 10.3114 77.395 6.79794C77.4933 6.44822 77.8988 6.34274 78.0903 6.65144C79.5401 8.98929 80.8943 15.8151 81.2856 19.1897C81.3408 19.666 81.9405 19.8243 82.1632 19.3996C83.2378 17.3502 84.7008 13.7441 86.1354 10.2081C87.7444 6.24232 89.3176 2.36472 90.2669 0.870381C90.4675 0.554542 90.8062 0.698807 90.8451 1.07096C91.0527 3.05809 91.8966 5.98692 92.5509 7.56292C92.6618 7.83006 92.9796 7.93011 93.2276 7.7812C95.8901 6.18224 100.313 2.93785 103.261 0.143367C103.587 -0.165412 104.109 0.0568772 104.056 0.502518C103.467 5.402 99.8049 15.1488 95.7649 18.8872C95.4278 19.199 95.5854 19.7854 96.0445 19.7926C97.9785 19.8231 100.675 19.4907 102.973 18.9958C103.407 18.9023 103.763 19.3734 103.545 19.7604C103.46 19.9126 103.373 20.0677 103.284 20.2253C100.676 24.8733 96.8096 31.7615 87.4396 36.2563C86.9423 36.4948 87.087 37.0679 87.6263 36.9521C90.4744 36.3405 94.4018 35.0456 97.6507 33.9389C98.1339 33.7743 98.5352 34.3601 98.2084 34.7521C98.062 34.9276 97.9118 35.1081 97.7582 35.2927C95.4128 38.1109 92.2776 41.8781 89.8814 43.5532C89.5479 43.7863 89.5606 44.3113 89.9343 44.4719C91.302 45.0597 92.9959 45.5798 94.3179 45.8197C94.7688 45.9015 94.9861 46.5249 94.6432 46.8288C92.1061 49.0773 87.7242 52.6079 82.5358 52.8896C82.0154 52.9178 81.7785 53.6391 82.2357 53.8894C83.7219 54.7031 85.64 55.4646 88.0133 55.6696C88.4485 55.7071 88.5747 56.3125 88.1626 56.4574C79.3212 59.5648 63.3194 59.0004 57.6576 57.0806C57.4323 57.0042 57.3076 56.7809 57.343 56.5456ZM32.438 57.4389C32.4453 57.8134 32.4589 58.2882 32.4749 58.847C32.6098 63.5598 32.9157 74.2432 31.0889 81.0213C30.9681 81.4693 31.4612 81.8567 31.8496 81.6714C31.9032 81.7135 31.9709 81.7418 32.0509 81.7489C33.1552 81.8469 34.5252 81.8587 36.18 81.873H36.1801C40.3707 81.9093 46.3872 81.9613 54.537 83.4676C54.8837 83.5317 55.1266 83.1579 54.8983 82.8871C53.7011 81.4666 52.0559 80.4438 50.9734 79.7709C50.25 79.3211 49.7779 79.0276 49.8587 78.8761C50.1456 78.3381 64.0217 78.8225 72.8074 79.6904C73.2032 79.7295 73.4025 79.2321 73.0893 78.984C71.8183 77.9766 69.6774 76.3202 68.2631 75.4406C67.9892 75.2702 67.9939 74.8662 68.2987 74.7673C69.4229 74.4027 70.946 74.3651 73.1193 74.3114H73.1197C74.4326 74.279 75.9827 74.2407 77.8255 74.121C78.2109 74.0959 78.3213 73.6076 77.9773 73.428C73.1659 70.9167 65.5547 69.3421 62.0897 69.3419C59.0013 69.3417 66.4379 64.5009 69.1053 62.8248C69.4181 62.6283 69.3145 62.1501 68.9468 62.103C63.8013 61.4438 56.3726 62.0058 49.1093 66.886C54.1999 58.9417 54.8208 48.0855 54.3846 44.4932C54.3306 44.0485 53.958 44.0977 53.7559 44.4974C53.192 45.6125 51.9916 46.7183 51.079 47.5371C50.7456 47.8362 50.1477 47.5907 50.0897 47.1466C49.7436 44.4949 48.449 40.6759 47.2402 38.294C47.0189 37.858 46.4304 38.023 46.4103 38.5114C46.1255 45.4396 44.0176 50.3363 42.3228 53.2015C42.1091 53.5627 41.5624 53.5012 41.3877 53.1196C40.0955 50.2977 37.2018 46.7642 38.0363 49.3198C38.6271 51.1289 38.9704 60.7611 37.1023 64.5749C36.8688 65.0516 35.9347 63.1447 34.9423 61.1186C34.1692 59.5402 33.3606 57.8896 32.8203 57.2371C32.6441 57.0244 32.4325 57.1628 32.438 57.4389Z" fill="#23B877"/>
<path fill-rule="evenodd" clip-rule="evenodd" d="M74.719 38.1503C75.11 38.4752 75.1786 39.0745 74.8721 39.4889C47.5964 74.5057 30.2932 84.4856 17.3532 92.7766L17.0528 92.9691C16.6276 93.2416 16.0745 93.0972 15.8174 92.6466C15.5603 92.196 15.6966 91.6098 16.1218 91.3373C16.2333 91.2659 16.3453 91.1941 16.4577 91.1221C29.2814 82.9059 46.0611 72.9704 73.4559 38.3126C73.7624 37.8981 74.3279 37.8255 74.719 38.1503Z" fill="#59D7A0" stroke="#59D7A0" stroke-width="0.5" stroke-linecap="round"/>
<path fill-rule="evenodd" clip-rule="evenodd" d="M111.539 19.2099L107.988 15.542L108.765 14.7393L112.316 18.4072L111.539 19.2099Z" fill="#FFF847"/>
<path fill-rule="evenodd" clip-rule="evenodd" d="M115.559 19.2102L119.109 15.542L118.332 14.7392L114.782 18.4074L115.559 19.2102Z" fill="#FFF847"/>
<path fill-rule="evenodd" clip-rule="evenodd" d="M111.539 21.4721L107.988 25.1401L108.765 25.9429L112.316 22.2748L111.539 21.4721Z" fill="#FFF847"/>
<path fill-rule="evenodd" clip-rule="evenodd" d="M115.558 21.4721L119.109 25.1401L118.332 25.9429L114.781 22.2748L115.558 21.4721Z" fill="#FFF847"/>
<path fill-rule="evenodd" clip-rule="evenodd" d="M12.1637 32.374V40.3342H10.8832L10.8832 32.374H12.1637ZM0 44.6115L7.90473 44.6115V43.3309H0V44.6115ZM10.5629 47.2952V55.2554H11.8434L11.8434 47.2952H10.5629ZM22.7227 43.0179L14.8179 43.0179V44.2985H22.7227V43.0179Z" fill="#59D7A0"/>
<ellipse cx="23.603" cy="56.5602" rx="1.55617" ry="1.56023" fill="#FF7E55"/>
<path fill-rule="evenodd" clip-rule="evenodd" d="M68.8598 90.0797C69.5744 90.0797 70.1656 90.6641 70.1656 91.3996C70.1656 92.1351 69.5744 92.7195 68.8598 92.7195C68.1451 92.7195 67.554 92.1351 67.554 91.3996C67.554 90.6641 68.1451 90.0797 68.8598 90.0797ZM68.8598 88.7992C70.2882 88.7992 71.4461 89.9635 71.4461 91.3996C71.4461 92.8358 70.2882 94 68.8598 94C67.4314 94 66.2734 92.8358 66.2734 91.3996C66.2734 89.9635 67.4314 88.7992 68.8598 88.7992Z" fill="#FFF847"/>
<ellipse cx="1.03471" cy="1.04016" rx="1.03471" ry="1.04016" transform="matrix(1 0 0 -1 73.1992 88.2798)" fill="#9BE6C5"/>
</svg>
