<svg width="48" height="48" viewBox="0 0 48 48" fill="none" xmlns="http://www.w3.org/2000/svg">
<g clip-path="url(#clip0_3977_59691)">
<g clip-path="url(#clip1_3977_59691)">
<path d="M33.7978 29.2894C33.1955 28.2382 32.3007 25.2737 32.3007 21.4177C32.3007 19.1852 31.4262 17.0441 29.8698 15.4655C28.3133 13.8869 26.2023 13 24.0011 13C21.7999 13 19.6888 13.8869 18.1324 15.4655C16.5759 17.0441 15.7015 19.1852 15.7015 21.4177C15.7015 25.2747 14.8055 28.2382 14.2033 29.2894C14.0711 29.5188 14.001 29.7796 14 30.0454C13.999 30.3111 14.0671 30.5725 14.1975 30.803C14.3279 31.0335 14.5159 31.2251 14.7426 31.3584C14.9693 31.4917 15.2266 31.562 15.4887 31.5621H20.0087C20.1638 32.522 20.6502 33.3948 21.3812 34.0245C22.1121 34.6543 23.0399 35 23.9989 35C24.958 35 25.8858 34.6543 26.6167 34.0245C27.3476 33.3948 27.8341 32.522 27.9891 31.5621H32.5135C32.7753 31.5616 33.0324 31.491 33.2588 31.3576C33.4852 31.2241 33.6729 31.0325 33.803 30.8021C33.9332 30.5716 34.0011 30.3104 34 30.0448C33.9989 29.7793 33.9288 29.5187 33.7967 29.2894H33.7978ZM24.0011 33.7205C23.3785 33.7203 22.7742 33.5071 22.2859 33.1155C21.7975 32.7238 21.4538 32.1765 21.3101 31.5621H26.692C26.5484 32.1765 26.2046 32.7238 25.7163 33.1155C25.2279 33.5071 24.6236 33.7203 24.0011 33.7205ZM32.6954 30.1592C32.6779 30.1922 32.6518 30.2198 32.6199 30.2388C32.588 30.2578 32.5515 30.2676 32.5145 30.2671H15.4887C15.4517 30.2676 15.4152 30.2578 15.3833 30.2388C15.3514 30.2198 15.3253 30.1922 15.3078 30.1592C15.2891 30.1264 15.2793 30.0891 15.2793 30.0513C15.2793 30.0134 15.2891 29.9762 15.3078 29.9433C16.1133 28.5404 16.9783 25.2694 16.9783 21.4177C16.9783 19.5287 17.7182 17.717 19.0352 16.3812C20.3523 15.0455 22.1385 14.295 24.0011 14.295C25.8636 14.295 27.6499 15.0455 28.9669 16.3812C30.2839 17.717 31.0238 19.5287 31.0238 21.4177C31.0238 25.2683 31.8899 28.535 32.6954 29.9433C32.7141 29.9762 32.7239 30.0134 32.7239 30.0513C32.7239 30.0891 32.7141 30.1264 32.6954 30.1592Z" fill="white"/>
</g>
<circle cx="34" cy="12" r="2" fill="#FF4F17"/>
</g>
<defs>
<clipPath id="clip0_3977_59691">
<rect width="48" height="48" fill="white"/>
</clipPath>
<clipPath id="clip1_3977_59691">
<rect width="20" height="22" fill="white" transform="translate(14 13)"/>
</clipPath>
</defs>
</svg>
