<svg width="337" height="69" viewBox="0 0 337 69" fill="none" xmlns="http://www.w3.org/2000/svg">
<path d="M18.404 8.32L17.792 7.228C19.4 7.06 21.176 6.1 21.416 4.828H18.224V3.712H26.144V4.828H22.952C23.204 6.1 24.992 7.012 26.588 7.18C26.396 7.552 26.192 7.912 26 8.272C24.608 8.116 22.772 7.144 22.184 6.124C21.62 7.216 19.868 8.128 18.404 8.32ZM22.868 13.936H21.452V10.216H17.36V9.1H27.02V10.216H22.868V13.936ZM29.6028 6.496C29.6028 7.288 30.1788 7.9 31.1388 7.9C32.1108 7.9 32.6868 7.288 32.6868 6.496C32.6868 5.74 32.1108 5.128 31.1388 5.128C30.1788 5.128 29.6028 5.74 29.6028 6.496ZM36.7668 3.256V13.948H35.3748V3.256H36.7668ZM28.1628 6.508C28.1628 5.008 29.3388 3.94 31.1388 3.94C32.9508 3.94 34.1028 5.008 34.1028 6.508C34.1028 7.996 32.9508 9.076 31.1388 9.076C29.3388 9.076 28.1628 7.996 28.1628 6.508ZM34.9308 11.212C33.9108 11.344 32.4588 11.464 31.3188 11.524C30.1308 11.572 28.8588 11.62 27.9588 11.608L27.7548 10.408C28.9908 10.408 30.0228 10.396 31.2348 10.348C32.5668 10.3 33.8628 10.204 34.8108 10.084L34.9308 11.212ZM38.8456 10.12L38.6536 3.964H40.2136L40.0456 10.12H38.8456ZM38.7256 12.676V11.272H40.1656V12.676H38.7256Z" fill="#FF7E55"/>
<path d="M25.525 30.77H24.7V25.787H23.545V30.286H22.731V21.387H23.545V25.083H24.7V21.156H25.525V30.77ZM22.005 26.667C22.005 27.822 21.147 28.581 19.904 28.581C18.672 28.581 17.803 27.767 17.803 26.667C17.803 25.501 18.672 24.742 19.904 24.742C21.147 24.742 22.005 25.512 22.005 26.667ZM21.202 26.667C21.202 25.93 20.663 25.446 19.904 25.446C19.145 25.446 18.617 25.93 18.617 26.667C18.617 27.415 19.145 27.888 19.904 27.888C20.663 27.888 21.202 27.393 21.202 26.667ZM22.181 24.192H17.396V23.499H22.181V24.192ZM21.147 22.619H18.518V21.893H21.147V22.619ZM35.7796 24.379H34.3166V26.909H33.4806V21.156H34.3166V23.686H35.7796V24.379ZM34.4376 28.9C34.4376 29.978 33.3266 30.726 31.2476 30.726C29.1576 30.726 28.0686 29.989 28.0686 28.9C28.0686 27.8 29.1576 27.063 31.2476 27.063C33.3266 27.063 34.4376 27.822 34.4376 28.9ZM33.5686 28.9C33.5686 28.207 32.6996 27.767 31.2476 27.767C29.7956 27.767 28.9376 28.218 28.9376 28.9C28.9376 29.582 29.7956 30.033 31.2476 30.033C32.6996 30.033 33.5686 29.593 33.5686 28.9ZM28.0906 25.556H28.5636C29.8946 25.556 31.5226 25.413 32.4576 25.237L32.5456 25.919C31.4786 26.106 29.6966 26.249 28.0356 26.249H27.2546V21.926H31.5886V22.63H28.0906V25.556ZM47.1968 30.77H46.3608V21.156H47.1968V30.77ZM44.3698 22.179C44.3258 25.303 42.4118 27.69 39.9258 28.867L39.4418 28.207C41.8728 27.14 43.3028 25.05 43.4788 22.883H39.7938V22.179H44.3698ZM57.7154 24.874H56.2524V28.35H55.4164V21.156H56.2524V24.17H57.7154V24.874ZM56.5494 30.528H50.2024V27.558H51.0384V29.835H56.5494V30.528ZM49.1904 22.003H53.5684C53.4584 24.621 51.6764 26.458 49.2234 27.239L48.7944 26.535C50.8624 26.007 52.4134 24.478 52.6554 22.707H49.1904V22.003ZM69.1766 30.77H68.3406V21.156H69.1766V30.77ZM61.5866 25.27C61.5866 23.246 62.4886 21.882 64.0616 21.882C65.6566 21.882 66.5476 23.246 66.5476 25.281C66.5476 27.316 65.6566 28.68 64.0616 28.68C62.4886 28.68 61.5866 27.316 61.5866 25.27ZM65.7556 25.281C65.7556 23.697 65.0846 22.608 64.0616 22.608C63.0496 22.608 62.3786 23.697 62.3786 25.281C62.3786 26.854 63.0496 27.954 64.0616 27.954C65.0846 27.954 65.7556 26.854 65.7556 25.281ZM78.0892 25.336C78.0892 26.326 76.8352 26.799 75.1302 26.799C73.4362 26.799 72.1712 26.326 72.1712 25.336C72.1712 24.324 73.4362 23.862 75.1302 23.862C76.8352 23.862 78.0892 24.324 78.0892 25.336ZM75.5372 30.781H74.7012V28.031H70.7852V27.327H79.4642V28.031H75.5372V30.781ZM79.0022 23.444H71.2802V22.74H79.0022V23.444ZM77.2202 25.336C77.2202 24.742 76.0982 24.555 75.1302 24.555C74.1842 24.555 73.0402 24.742 73.0402 25.336C73.0402 25.897 74.1842 26.106 75.1302 26.106C76.0982 26.106 77.2202 25.897 77.2202 25.336ZM76.7362 22.014H73.5242V21.299H76.7362V22.014ZM82.5688 21.992C83.8998 21.992 84.6148 23.213 84.6808 24.962H85.7148V21.343H86.5288V30.308H85.7148V25.655H84.6808C84.5928 27.393 83.8888 28.57 82.5688 28.57C81.1718 28.57 80.4568 27.217 80.4568 25.281C80.4568 23.356 81.1718 21.992 82.5688 21.992ZM83.8558 25.281C83.8558 23.73 83.3498 22.729 82.5688 22.729C81.7988 22.729 81.3038 23.73 81.3038 25.281C81.3038 26.843 81.7988 27.833 82.5688 27.833C83.3498 27.833 83.8558 26.843 83.8558 25.281ZM88.4098 30.77H87.5848V21.156H88.4098V30.77ZM98.4993 26.821H89.8203V26.117H98.4993V26.821ZM97.5753 30.561H90.9533V27.723H91.7893V29.868H97.5753V30.561ZM97.5313 24.918H90.9863V21.563H91.8223V24.225H97.5313V24.918ZM110.203 30.77H109.367V21.156H110.203V30.77ZM108.707 27.833L108.179 28.416C107.508 27.844 106.87 26.953 106.705 26.139C106.551 27.008 105.847 28.207 105.022 28.977L104.439 28.449C105.66 27.459 106.298 25.732 106.298 24.082V22.047H107.101V24.038C107.101 25.765 107.651 27.019 108.707 27.833ZM105.352 26.645L104.879 27.283C104.571 27.052 104.12 26.48 103.955 25.996C103.79 26.788 103.13 27.767 102.492 28.35L101.909 27.844C102.833 27.107 103.515 25.809 103.515 24.082V22.146H104.307V24.049C104.307 25.545 104.835 26.282 105.352 26.645ZM120.6 24.544H119.137V27.503H118.301V21.156H119.137V23.84H120.6V24.544ZM114.341 21.871C115.705 21.871 116.827 22.806 116.827 24.214C116.827 25.666 115.705 26.557 114.341 26.557C112.966 26.557 111.844 25.666 111.844 24.225C111.844 22.806 112.966 21.871 114.341 21.871ZM114.341 22.542C113.373 22.542 112.658 23.246 112.658 24.214C112.658 25.215 113.373 25.886 114.341 25.886C115.342 25.886 116.024 25.215 116.024 24.225C116.024 23.246 115.353 22.542 114.341 22.542ZM119.94 30.088L119.522 30.77C118.268 30.528 116.662 29.505 116.266 28.603C115.892 29.527 114.363 30.517 112.966 30.803L112.559 30.11C114.11 29.912 115.848 28.79 115.848 27.404V27.008H116.728V27.404C116.728 28.79 118.521 29.89 119.94 30.088ZM129.172 30.77H128.336V21.156H129.172V30.77ZM121.582 25.27C121.582 23.246 122.484 21.882 124.057 21.882C125.652 21.882 126.543 23.246 126.543 25.281C126.543 27.316 125.652 28.68 124.057 28.68C122.484 28.68 121.582 27.316 121.582 25.27ZM125.751 25.281C125.751 23.697 125.08 22.608 124.057 22.608C123.045 22.608 122.374 23.697 122.374 25.281C122.374 26.854 123.045 27.954 124.057 27.954C125.08 27.954 125.751 26.854 125.751 25.281ZM141.062 30.627H135.023V27.305H141.062V30.627ZM133.725 22.586V21.882H138.972V22.586H136.783C136.783 22.828 136.783 23.004 136.794 23.114C136.871 24.346 138.015 25.402 139.115 25.765L138.653 26.436C137.729 26.062 136.75 25.193 136.354 24.324C136.09 25.226 134.968 26.26 133.934 26.7L133.45 26.051C134.66 25.589 135.881 24.379 135.925 23.103C135.925 23.004 135.936 22.828 135.936 22.586H133.725ZM140.226 29.934V27.987H135.859V29.934H140.226ZM142.514 24.324H141.051V26.799H140.215V21.156H141.051V23.62H142.514V24.324ZM150.822 30.572H144.233V27.228H150.822V30.572ZM150.734 21.728C150.734 23.015 150.624 24.368 150.404 25.336H151.867V26.04H143.188V25.336H149.579C149.755 24.61 149.876 23.224 149.876 22.421H144.299V21.728H150.734ZM149.986 29.879V27.921H145.069V29.879H149.986ZM161.326 28.119L160.842 28.757C159.874 28.295 158.73 27.184 158.389 26.183C158.114 27.206 156.981 28.471 155.947 29.021L155.452 28.394C156.64 27.822 157.949 26.337 157.949 24.555V24.214H155.716V23.521H161.029V24.214H158.807V24.555C158.807 26.304 160.215 27.69 161.326 28.119ZM162.613 26.084H160.512V25.38H162.613V21.156H163.449V30.77H162.613V26.084ZM159.83 22.476H156.926V21.761H159.83V22.476ZM172.174 21.156H173.01V30.77H172.174V21.156ZM171.294 27.459L171.371 28.152C170.37 28.306 168.72 28.471 166.608 28.471H165.629V24.764H169.27V22.74H165.585V22.047H170.117V25.457H166.465V27.756H166.696C168.225 27.756 170.128 27.668 171.294 27.459ZM183.966 28.515C183.207 28.614 181.997 28.702 180.82 28.768C179.753 28.823 178.301 28.867 177.674 28.867L177.531 28.13C178.268 28.13 179.236 28.119 180.248 28.086V26.04H178.246V22.124H183.24V22.817H179.082V25.347H183.273V26.04H181.084V28.053C182.151 28.009 183.273 27.932 183.889 27.844L183.966 28.515ZM185.462 30.77H184.637V21.156H185.462V30.77ZM187.158 25.226C187.158 23.191 188.038 21.827 189.589 21.827C191.041 21.827 191.888 23.026 191.998 24.852H194.055V21.156H194.891V30.77H194.055V25.567H191.998C191.91 27.415 191.052 28.625 189.589 28.625C188.038 28.625 187.158 27.272 187.158 25.226ZM191.184 25.237C191.184 23.653 190.535 22.553 189.589 22.553C188.632 22.553 187.994 23.653 187.994 25.237C187.994 26.799 188.632 27.899 189.589 27.899C190.535 27.899 191.184 26.799 191.184 25.237ZM206.979 24.731H204.185V25.523H208.123V26.205H199.444V25.523H203.349V24.731H200.588V21.42H201.424V22.399H206.143V21.42H206.979V24.731ZM207.364 30.627H200.566V28.46H206.165V27.657H200.511V26.975H207.001V29.076H201.402V29.934H207.364V30.627ZM206.143 24.049V23.081H201.424V24.049H206.143ZM216.593 30.781H215.757V27.294H211.852V26.59H220.531V27.294H216.593V30.781ZM220.179 24.852L219.783 25.567C218.342 25.27 216.769 24.368 216.186 23.246C215.724 24.368 214.085 25.303 212.622 25.589L212.215 24.874C214.063 24.632 215.757 23.411 215.757 22.102V21.486H216.637V22.102C216.637 23.411 218.485 24.643 220.179 24.852ZM232.113 26.326H231.277V24.137H229.66V23.444H231.277V21.156H232.113V26.326ZM233.059 30.143L232.564 30.759C231.86 30.352 231.156 29.615 230.947 28.966C230.771 29.604 230.122 30.396 229.363 30.803L228.901 30.187C229.99 29.692 230.551 28.636 230.551 27.613V26.799H231.365V27.613C231.365 28.658 232.025 29.648 233.059 30.143ZM228.67 30.638H225.392V26.909H226.184V28.108H227.878V26.909H228.67V30.638ZM227.878 29.978V28.746H226.184V29.978H227.878ZM226.811 21.629C228.164 21.629 229.275 22.509 229.275 23.873C229.275 25.248 228.164 26.106 226.811 26.106C225.469 26.106 224.336 25.248 224.336 23.884C224.336 22.531 225.458 21.629 226.811 21.629ZM226.811 22.355C225.865 22.355 225.172 22.971 225.172 23.873C225.172 24.797 225.865 25.413 226.811 25.413C227.79 25.413 228.439 24.797 228.439 23.884C228.439 22.982 227.801 22.355 226.811 22.355ZM241.883 30.77H241.058V21.156H241.883V30.77ZM240.013 30.286H239.21V25.6H237.593V24.896H239.21V21.387H240.013V30.286ZM237.835 22.278C237.769 25.138 236.515 27.25 234.249 28.713L233.677 28.097C235.69 26.964 236.878 24.94 236.977 22.982H234.051V22.278H237.835ZM254.39 30.77H253.576V25.93H252.41V30.286H251.596V21.387H252.41V25.226H253.576V21.156H254.39V30.77ZM250.881 25.963H249.066V27.701C249.737 27.668 250.584 27.602 251.178 27.514L251.244 28.185C250.507 28.284 249.561 28.394 248.703 28.438C247.658 28.493 246.8 28.515 246.151 28.515L246.019 27.8C246.668 27.8 247.383 27.778 248.252 27.745V25.963H246.514V22.146H250.837V22.839H247.339V25.259H250.881V25.963ZM263.5 24.291C263.5 25.776 262.114 26.766 260.024 26.766C257.956 26.766 256.57 25.776 256.57 24.291C256.57 22.806 257.956 21.794 260.024 21.794C262.125 21.794 263.5 22.806 263.5 24.291ZM262.697 24.291C262.697 23.213 261.641 22.487 260.024 22.487C258.429 22.487 257.373 23.213 257.373 24.291C257.373 25.369 258.429 26.095 260.024 26.095C261.63 26.095 262.697 25.369 262.697 24.291ZM264.38 29.549H255.701V28.845H257.846V27.052L258.682 27.03V28.845H261.366V27.03L262.202 27.052V28.845H264.38V29.549ZM265.263 29.813V28.834H266.22V29.813H265.263ZM24.81 47.627H18.771V44.305H24.81V47.627ZM17.473 39.586V38.882H22.72V39.586H20.531C20.531 39.828 20.531 40.004 20.542 40.114C20.619 41.346 21.763 42.402 22.863 42.765L22.401 43.436C21.477 43.062 20.498 42.193 20.102 41.324C19.838 42.226 18.716 43.26 17.682 43.7L17.198 43.051C18.408 42.589 19.629 41.379 19.673 40.103C19.673 40.004 19.684 39.828 19.684 39.586H17.473ZM23.974 46.934V44.987H19.607V46.934H23.974ZM26.262 41.324H24.799V43.799H23.963V38.156H24.799V40.62H26.262V41.324ZM34.7896 47.77H33.9536V38.156H34.7896V47.77ZM31.9626 39.179C31.9186 42.303 30.0046 44.69 27.5186 45.867L27.0346 45.207C29.4656 44.14 30.8956 42.05 31.0716 39.883H27.3866V39.179H31.9626ZM44.3072 47.77H43.4712V38.156H44.3072V47.77ZM41.4802 39.179C41.4362 42.303 39.5222 44.69 37.0362 45.867L36.5522 45.207C38.9832 44.14 40.4132 42.05 40.5892 39.883H36.9042V39.179H41.4802ZM49.1354 39.707V39.003H54.3054V39.707H52.1494C52.1494 40.147 52.1494 40.345 52.1604 40.488C52.2374 41.72 53.4254 42.82 54.5254 43.183L54.0524 43.854C53.1394 43.48 52.1164 42.567 51.7204 41.698C51.4564 42.589 50.3454 43.634 49.3114 44.085L48.8274 43.436C50.0374 42.963 51.2474 41.742 51.2914 40.477C51.3024 40.345 51.3024 40.136 51.3024 39.707H49.1354ZM56.7144 45.196H55.8784V41.533H53.9644V40.829H55.8784V38.156H56.7144V45.196ZM56.9234 47.451H50.4444V44.492H51.2804V46.747H56.9234V47.451ZM60.644 38.992C61.975 38.992 62.69 40.213 62.756 41.962H63.79V38.343H64.604V47.308H63.79V42.655H62.756C62.668 44.393 61.964 45.57 60.644 45.57C59.247 45.57 58.532 44.217 58.532 42.281C58.532 40.356 59.247 38.992 60.644 38.992ZM61.931 42.281C61.931 40.73 61.425 39.729 60.644 39.729C59.874 39.729 59.379 40.73 59.379 42.281C59.379 43.843 59.874 44.833 60.644 44.833C61.425 44.833 61.931 43.843 61.931 42.281ZM66.485 47.77H65.66V38.156H66.485V47.77ZM75.3172 40.972C75.3172 42.303 74.4592 43.282 73.1172 43.282C71.7752 43.282 70.8952 42.303 70.8952 40.972C70.8952 39.652 71.7752 38.684 73.1062 38.684C74.4482 38.684 75.3172 39.641 75.3172 40.972ZM78.8922 43.821H78.0562V41.313H76.9012V43.733H76.0982V38.332H76.9012V40.62H78.0562V38.156H78.8922V43.821ZM74.4922 40.983C74.4922 40.07 73.9972 39.399 73.1062 39.399C72.2262 39.399 71.7202 40.07 71.7202 40.972C71.7202 41.885 72.2262 42.578 73.1062 42.578C73.9972 42.578 74.4922 41.885 74.4922 40.983ZM78.8922 47.77H78.0452V45.009H72.4022V44.316H78.8922V47.77ZM85.5498 42.325V41.621H87.3208V40.312H85.5498V39.608H87.3208V38.156H88.1568V45.108H87.3208V42.325H85.5498ZM85.9128 43.106L85.4178 43.766C84.4278 43.293 83.4818 42.413 83.0748 41.434C82.7778 42.446 81.7548 43.535 80.7098 44.074L80.1928 43.425C81.4798 42.853 82.6348 41.522 82.6348 39.982V38.717H83.4818V39.949C83.4818 41.555 84.7688 42.688 85.9128 43.106ZM88.3658 47.473H81.9748V44.536H82.8108V46.78H88.3658V47.473ZM97.7953 47.682H90.8763V45.449H96.5963V44.646H90.8433V43.964H97.4323V46.076H91.7233V46.989H97.7953V47.682ZM97.6413 41.808H90.6453V41.115H92.1743L91.9323 39.707L92.8013 39.597L92.9663 41.115H95.3093L95.5073 39.575L96.3763 39.685L96.1123 41.115H97.6413V41.808ZM98.4993 43.227H89.8203V42.523H98.4993V43.227ZM97.6413 39.223H90.6343V38.53H97.6413V39.223ZM107.445 45.339H106.609V41.709H105.432V45.009H104.629V38.332H105.432V41.005H106.609V38.156H107.445V45.339ZM104.002 42.985L104.079 43.678C103.034 43.854 101.725 43.964 100.372 43.964H99.7449V41.038H102.671V39.663H99.7119V38.97H103.507V41.72H100.581V43.271C101.571 43.271 102.99 43.205 104.002 42.985ZM107.698 47.451H101.032V44.602H101.868V46.758H107.698V47.451ZM117.535 46.45H108.856V45.746H117.535V46.45ZM116.688 41.423C116.688 42.897 115.291 43.854 113.179 43.854C111.089 43.854 109.692 42.897 109.692 41.423C109.692 39.96 111.089 38.992 113.179 38.992C115.302 38.992 116.688 39.96 116.688 41.423ZM115.852 41.434C115.852 40.389 114.796 39.696 113.179 39.696C111.584 39.696 110.528 40.389 110.528 41.434C110.528 42.457 111.584 43.139 113.179 43.139C114.785 43.139 115.852 42.457 115.852 41.434ZM127.052 46.549H118.373V45.845H122.278V44.206H119.44V41.203H125.138V39.663H119.429V38.959H125.974V41.896H120.276V43.502H126.249V44.206H123.114V45.845H127.052V46.549ZM137.798 40.774H135.829V40.07H137.798V38.156H138.634V43.117H137.798V40.774ZM136.357 42.193L135.884 42.842C134.96 42.468 134.025 41.72 133.563 40.708C133.277 41.698 132.364 42.567 131.22 43.106L130.703 42.479C131.968 41.984 133.134 40.851 133.134 39.311V38.486H133.981V39.278C133.981 40.84 135.334 41.852 136.357 42.193ZM138.997 47.704H132.43V45.328H137.809V44.338H132.375V43.645H138.645V45.966H133.266V47.011H138.997V47.704ZM148.229 45.944C148.229 47.066 147.063 47.77 144.995 47.77C142.938 47.77 141.783 47.066 141.783 45.944C141.783 44.811 142.938 44.107 144.995 44.107C147.063 44.107 148.229 44.811 148.229 45.944ZM140.551 39.663V38.959H145.754V39.663H143.587C143.587 39.85 143.587 40.07 143.598 40.18C143.675 41.489 144.907 42.534 146.084 42.886L145.589 43.557C144.588 43.161 143.554 42.259 143.158 41.39C142.894 42.292 141.739 43.447 140.705 43.898L140.254 43.227C141.464 42.765 142.685 41.544 142.729 40.18C142.74 40.07 142.74 39.839 142.74 39.663H140.551ZM144.995 44.811C143.521 44.811 142.63 45.218 142.63 45.944C142.63 46.659 143.521 47.066 144.995 47.066C146.502 47.066 147.371 46.659 147.371 45.944C147.371 45.218 146.502 44.811 144.995 44.811ZM147.316 41.357H145.38V40.653H147.316V38.156H148.152V44.129H147.316V41.357ZM158.769 42.919H157.207V47.77H156.371V38.156H157.207V42.215H158.769V42.919ZM154.028 39.531H151.201V38.816H154.028V39.531ZM155.447 41.159H149.771V40.466H155.447V41.159ZM154.875 43.766C154.875 44.877 153.973 45.746 152.631 45.746C151.289 45.746 150.387 44.888 150.387 43.766C150.387 42.644 151.289 41.775 152.631 41.775C153.973 41.775 154.875 42.633 154.875 43.766ZM154.039 43.766C154.039 43.007 153.445 42.479 152.631 42.479C151.828 42.479 151.223 43.007 151.223 43.766C151.223 44.514 151.828 45.053 152.631 45.053C153.456 45.053 154.039 44.514 154.039 43.766ZM166.351 42.71H164.173V41.995H166.351V38.156H167.187V47.77H166.351V42.71ZM164.206 39.179C164.162 42.303 162.281 44.69 159.806 45.867L159.322 45.207C161.753 44.14 163.139 42.05 163.304 39.883H159.674V39.179H164.206ZM174.582 44.195L174.703 44.899C173.526 45.174 171.216 45.339 169.753 45.339H169.17V39.113H170.006V44.602C171.656 44.591 173.537 44.448 174.582 44.195ZM176.232 38.156V41.973H177.805V42.688H176.232V47.77H175.396V38.156H176.232ZM178.159 47.968L178.566 45.823H179.567L178.753 47.968H178.159ZM192.583 40.994H191.12V43.062H190.284V38.156H191.12V40.29H192.583V40.994ZM191.483 47.671H185.015V45.229H190.284V44.25H184.982V43.568H191.12V45.867H185.851V46.978H191.483V47.671ZM184.85 42.028H185.323C186.665 42.028 188.381 41.918 189.305 41.731L189.393 42.413C188.326 42.589 186.456 42.721 184.795 42.721H184.014V38.783H188.469V39.487H184.85V42.028ZM200.275 41.06H198.207V40.367H200.275V38.156H201.111V44.129H200.275V41.06ZM201.21 45.944C201.21 47.066 200.055 47.759 197.987 47.759C195.93 47.759 194.775 47.066 194.775 45.944C194.775 44.822 195.93 44.129 197.987 44.129C200.055 44.129 201.21 44.822 201.21 45.944ZM197.987 44.811C196.513 44.811 195.622 45.229 195.622 45.944C195.622 46.67 196.513 47.077 197.987 47.077C199.483 47.077 200.363 46.67 200.363 45.944C200.363 45.229 199.483 44.811 197.987 44.811ZM198.724 42.732L198.229 43.381C197.305 42.941 196.348 42.105 195.974 41.148C195.677 42.138 194.764 43.15 193.653 43.711L193.136 43.062C194.522 42.424 195.523 41.192 195.523 39.663V38.706H196.37V39.641C196.37 41.181 197.635 42.336 198.724 42.732ZM211.453 43.018H202.774V42.314H211.453V43.018ZM210.485 39.96C210.485 41.016 209.209 41.621 207.119 41.621C205.051 41.621 203.775 41.016 203.775 39.96C203.775 38.904 205.051 38.288 207.119 38.288C209.209 38.288 210.485 38.904 210.485 39.96ZM207.119 38.97C205.612 38.97 204.633 39.355 204.633 39.96C204.633 40.554 205.612 40.928 207.119 40.928C208.648 40.928 209.638 40.554 209.638 39.96C209.638 39.355 208.648 38.97 207.119 38.97ZM210.683 47.682H203.786V45.394H209.528V44.547H203.764V43.876H210.364V46.032H204.622V47H210.683V47.682ZM222.838 42.358H219.934V43.271H223.861V43.964H215.182V43.271H219.098V42.358H216.227V38.552H222.772V39.223H217.063V40.114H222.607V40.752H217.063V41.698H222.838V42.358ZM222.893 46.175C222.893 47.209 221.716 47.792 219.516 47.792C217.327 47.792 216.161 47.187 216.161 46.175C216.161 45.174 217.327 44.547 219.516 44.547C221.716 44.547 222.893 45.119 222.893 46.175ZM219.516 45.218C217.965 45.218 217.008 45.581 217.008 46.175C217.008 46.769 217.965 47.11 219.516 47.11C221.078 47.11 222.046 46.769 222.046 46.175C222.046 45.581 221.078 45.218 219.516 45.218ZM232.806 47.77H231.981V42.787H230.826V47.286H230.012V38.387H230.826V42.083H231.981V38.156H232.806V47.77ZM229.286 43.667C229.286 44.822 228.428 45.581 227.185 45.581C225.953 45.581 225.084 44.767 225.084 43.667C225.084 42.501 225.953 41.742 227.185 41.742C228.428 41.742 229.286 42.512 229.286 43.667ZM228.483 43.667C228.483 42.93 227.944 42.446 227.185 42.446C226.426 42.446 225.898 42.93 225.898 43.667C225.898 44.415 226.426 44.888 227.185 44.888C227.944 44.888 228.483 44.393 228.483 43.667ZM229.462 41.192H224.677V40.499H229.462V41.192ZM228.428 39.619H225.799V38.893H228.428V39.619ZM242.595 41.907C242.595 42.721 241.726 43.117 240.604 43.194V43.799C241.682 43.744 242.804 43.645 243.431 43.568L243.475 44.239C242.716 44.327 241.55 44.437 240.384 44.503C239.295 44.569 237.876 44.613 237.238 44.613L237.117 43.876C237.821 43.876 238.778 43.876 239.768 43.843V43.183C238.712 43.106 237.92 42.699 237.92 41.918C237.92 41.027 238.976 40.609 240.241 40.609C241.528 40.609 242.595 41.016 242.595 41.907ZM238.558 45.053H244.993V47.836H244.168V45.746H238.558V45.053ZM244.993 44.558H244.168V38.156H244.993V44.558ZM243.079 40.312H237.37V39.63H243.079V40.312ZM241.715 41.907C241.715 41.467 241.088 41.258 240.241 41.258C239.394 41.258 238.8 41.467 238.8 41.907C238.8 42.369 239.405 42.578 240.241 42.578C241.088 42.578 241.715 42.358 241.715 41.907ZM241.594 39.058H238.954V38.365H241.594V39.058ZM247.581 44.613H254.192V47.836H253.356V45.306H247.581V44.613ZM255.303 43.502H246.624V42.798H255.303V43.502ZM254.28 41.731H247.691V38.574H254.236V39.278H248.527V41.027H254.28V41.731ZM264.997 42.116H263.534V45.251H262.698V38.156H263.534V41.412H264.997V42.116ZM263.908 47.462H257.506V44.998H258.342V46.758H263.908V47.462ZM260.245 39.234H257.473V38.497H260.245V39.234ZM261.73 40.653H256.098V39.96H261.73V40.653ZM261.18 42.853C261.18 43.865 260.212 44.536 258.914 44.536C257.638 44.536 256.659 43.865 256.659 42.853C256.659 41.819 257.627 41.17 258.914 41.17C260.212 41.17 261.18 41.819 261.18 42.853ZM260.388 42.853C260.388 42.215 259.695 41.83 258.914 41.83C258.144 41.83 257.451 42.215 257.451 42.853C257.451 43.48 258.144 43.865 258.914 43.865C259.695 43.865 260.388 43.48 260.388 42.853ZM269.539 44.657H272.454V43.304H268.549V42.6H277.228V43.304H273.29V44.657H276.117V47.836H275.281V45.361H269.539V44.657ZM276.997 41.093L276.513 41.709C275.842 41.434 275.16 40.796 274.907 40.18C274.698 40.796 273.994 41.555 273.213 41.896L272.729 41.313C273.708 40.917 274.489 40.004 274.489 38.937V38.288H275.292V38.915C275.292 39.982 276.073 40.774 276.997 41.093ZM272.839 40.785L272.355 41.379C271.827 41.137 271.255 40.664 271.035 40.18C270.804 40.796 270.122 41.522 269.286 41.874L268.791 41.269C269.88 40.873 270.628 39.905 270.628 38.893V38.376H271.431V38.915C271.431 39.883 272.08 40.521 272.839 40.785ZM286.745 46.45H278.066V45.746H286.745V46.45ZM285.898 41.423C285.898 42.897 284.501 43.854 282.389 43.854C280.299 43.854 278.902 42.897 278.902 41.423C278.902 39.96 280.299 38.992 282.389 38.992C284.512 38.992 285.898 39.96 285.898 41.423ZM285.062 41.434C285.062 40.389 284.006 39.696 282.389 39.696C280.794 39.696 279.738 40.389 279.738 41.434C279.738 42.457 280.794 43.139 282.389 43.139C283.995 43.139 285.062 42.457 285.062 41.434ZM296.263 46.549H287.584V45.845H291.489V44.206H288.651V41.203H294.349V39.663H288.64V38.959H295.185V41.896H289.487V43.502H295.46V44.206H292.325V45.845H296.263V46.549ZM307.383 47.627H301.344V44.305H307.383V47.627ZM300.046 39.586V38.882H305.293V39.586H303.104C303.104 39.828 303.104 40.004 303.115 40.114C303.192 41.346 304.336 42.402 305.436 42.765L304.974 43.436C304.05 43.062 303.071 42.193 302.675 41.324C302.411 42.226 301.289 43.26 300.255 43.7L299.771 43.051C300.981 42.589 302.202 41.379 302.246 40.103C302.246 40.004 302.257 39.828 302.257 39.586H300.046ZM306.547 46.934V44.987H302.18V46.934H306.547ZM308.835 41.324H307.372V43.799H306.536V38.156H307.372V40.62H308.835V41.324ZM317.143 47.572H310.554V44.228H317.143V47.572ZM317.055 38.728C317.055 40.015 316.945 41.368 316.725 42.336H318.188V43.04H309.509V42.336H315.9C316.076 41.61 316.197 40.224 316.197 39.421H310.62V38.728H317.055ZM316.307 46.879V44.921H311.39V46.879H316.307ZM327.705 43.018H319.026V42.314H327.705V43.018ZM326.737 39.96C326.737 41.016 325.461 41.621 323.371 41.621C321.303 41.621 320.027 41.016 320.027 39.96C320.027 38.904 321.303 38.288 323.371 38.288C325.461 38.288 326.737 38.904 326.737 39.96ZM323.371 38.97C321.864 38.97 320.885 39.355 320.885 39.96C320.885 40.554 321.864 40.928 323.371 40.928C324.9 40.928 325.89 40.554 325.89 39.96C325.89 39.355 324.9 38.97 323.371 38.97ZM326.935 47.682H320.038V45.394H325.78V44.547H320.016V43.876H326.616V46.032H320.874V47H326.935V47.682ZM25.525 64.77H24.7V59.787H23.545V64.286H22.731V55.387H23.545V59.083H24.7V55.156H25.525V64.77ZM22.005 60.667C22.005 61.822 21.147 62.581 19.904 62.581C18.672 62.581 17.803 61.767 17.803 60.667C17.803 59.501 18.672 58.742 19.904 58.742C21.147 58.742 22.005 59.512 22.005 60.667ZM21.202 60.667C21.202 59.93 20.663 59.446 19.904 59.446C19.145 59.446 18.617 59.93 18.617 60.667C18.617 61.415 19.145 61.888 19.904 61.888C20.663 61.888 21.202 61.393 21.202 60.667ZM22.181 58.192H17.396V57.499H22.181V58.192ZM21.147 56.619H18.518V55.893H21.147V56.619ZM31.8416 61.888L31.3136 62.504C30.6316 62.02 29.6196 60.898 29.3446 59.886C29.1466 60.953 28.2776 62.097 27.3426 62.757L26.7816 62.174C27.9146 61.448 28.9266 59.93 28.9266 58.06V56.982H27.0126V56.289H31.5996V56.982H29.7516V58.038C29.7516 59.93 30.6536 61.118 31.8416 61.888ZM33.1396 64.286H32.3146V59.38H30.7746V58.687H32.3146V55.387H33.1396V64.286ZM35.0426 64.77H34.2176V55.156H35.0426V64.77ZM45.3082 58.401H43.8452V60.623H43.0092V55.156H43.8452V57.697H45.3082V58.401ZM44.2082 64.715H37.7952V62.57H43.0092V61.756H37.7512V61.118H43.8452V63.186H38.6312V64.066H44.2082V64.715ZM40.6112 56.025H37.8392V55.321H40.6112V56.025ZM42.0522 57.323H36.4092V56.641H42.0522V57.323ZM41.4912 59.149C41.4912 60.095 40.5452 60.612 39.2252 60.612C37.9712 60.612 36.9702 60.095 36.9702 59.149C36.9702 58.214 37.9492 57.697 39.2252 57.697C40.5122 57.697 41.4912 58.214 41.4912 59.149ZM40.6882 59.149C40.6882 58.61 39.9842 58.346 39.2252 58.346C38.4662 58.346 37.7732 58.61 37.7732 59.149C37.7732 59.688 38.4772 59.963 39.2252 59.963C39.9842 59.963 40.6882 59.688 40.6882 59.149ZM53.6014 64.781H52.7654V61.294H48.8604V60.59H57.5394V61.294H53.6014V64.781ZM57.1874 58.852L56.7914 59.567C55.3504 59.27 53.7774 58.368 53.1944 57.246C52.7324 58.368 51.0934 59.303 49.6304 59.589L49.2234 58.874C51.0714 58.632 52.7654 57.411 52.7654 56.102V55.486H53.6454V56.102C53.6454 57.411 55.4934 58.643 57.1874 58.852ZM69.1216 60.744H68.2856V55.156H69.1216V60.744ZM69.5396 64.792H69.5286C68.8686 64.473 67.9996 63.637 67.7686 62.944C67.5266 63.67 66.7236 64.539 65.9426 64.924L65.4146 64.363C66.4486 63.857 67.3396 62.812 67.3396 61.646V61.063H68.1756V61.613C68.1756 62.801 69.1326 63.857 70.0456 64.198L69.5396 64.792ZM65.9646 63.472L65.3926 64.044C64.9086 63.791 64.3916 63.296 64.1716 62.768C63.9406 63.494 63.0936 64.418 62.2686 64.814L61.7626 64.22C62.7416 63.791 63.7096 62.735 63.7096 61.569V61.096H64.5456V61.492C64.5456 62.515 65.2276 63.186 65.9646 63.472ZM63.9956 55.695C65.3596 55.695 66.4816 56.619 66.4816 58.005C66.4816 59.413 65.3596 60.293 63.9956 60.293C62.6316 60.293 61.4986 59.413 61.4986 58.016C61.4986 56.619 62.6316 55.695 63.9956 55.695ZM63.9956 56.377C63.0276 56.377 62.3126 57.059 62.3126 58.005C62.3126 58.962 63.0276 59.611 63.9956 59.611C64.9966 59.611 65.6786 58.962 65.6786 58.016C65.6786 57.059 65.0076 56.377 63.9956 56.377ZM70.9062 59.226C70.9062 57.191 71.7862 55.827 73.3372 55.827C74.7892 55.827 75.6362 57.026 75.7462 58.852H77.8032V55.156H78.6392V64.77H77.8032V59.567H75.7462C75.6582 61.415 74.8002 62.625 73.3372 62.625C71.7862 62.625 70.9062 61.272 70.9062 59.226ZM74.9322 59.237C74.9322 57.653 74.2832 56.553 73.3372 56.553C72.3802 56.553 71.7422 57.653 71.7422 59.237C71.7422 60.799 72.3802 61.899 73.3372 61.899C74.2832 61.899 74.9322 60.799 74.9322 59.237ZM88.1018 58.291C88.1018 59.776 86.7158 60.766 84.6258 60.766C82.5578 60.766 81.1718 59.776 81.1718 58.291C81.1718 56.806 82.5578 55.794 84.6258 55.794C86.7268 55.794 88.1018 56.806 88.1018 58.291ZM87.2988 58.291C87.2988 57.213 86.2428 56.487 84.6258 56.487C83.0308 56.487 81.9748 57.213 81.9748 58.291C81.9748 59.369 83.0308 60.095 84.6258 60.095C86.2318 60.095 87.2988 59.369 87.2988 58.291ZM88.9818 63.549H80.3028V62.845H82.4478V61.052L83.2838 61.03V62.845H85.9678V61.03L86.8038 61.052V62.845H88.9818V63.549ZM89.8643 63.813V62.834H90.8213V63.813H89.8643Z" fill="#C3C4CE"/>
<path d="M2.18641 12.5C2.359 12.5 2.49891 12.3601 2.49891 12.1875V8.75C2.49891 7.42392 3.02569 6.15215 3.96337 5.21447C4.90105 4.27678 6.17282 3.75 7.49891 3.75C8.82499 3.75 10.0968 4.27678 11.0344 5.21447C11.9721 6.15215 12.4989 7.42392 12.4989 8.75V12.1875C12.4989 12.3601 12.6388 12.5 12.8114 12.5V12.5C12.984 12.5 13.1239 12.6399 13.1239 12.8125V13.125C13.1239 13.4702 12.8441 13.75 12.4989 13.75H2.49891C2.15373 13.75 1.87391 13.4702 1.87391 13.125V12.8125C1.87391 12.6399 2.01382 12.5 2.18641 12.5V12.5ZM3.80086 8.12786C3.74359 8.46826 4.02873 8.75 4.37391 8.75V8.75C4.71908 8.75 4.99121 8.46592 5.07662 8.13147C5.18676 7.70021 5.41107 7.3023 5.73114 6.98223C6.0512 6.66217 6.44912 6.43785 6.88038 6.32772C7.21482 6.24231 7.49891 5.97018 7.49891 5.625V5.625C7.49891 5.27982 7.21716 4.99469 6.87677 5.05195C6.11299 5.18045 5.40213 5.54347 4.84726 6.09835C4.29238 6.65322 3.92935 7.36408 3.80086 8.12786ZM6.87391 1.875C6.87391 1.52982 7.15373 1.25 7.49891 1.25V1.25C7.84408 1.25 8.12391 1.52982 8.12391 1.875V2.5C8.12391 2.84518 7.84408 3.125 7.49891 3.125V3.125C7.15373 3.125 6.87391 2.84518 6.87391 2.5V1.875ZM11.9182 3.44693C12.1623 3.20286 12.558 3.20286 12.8021 3.44693V3.44693C13.0461 3.69096 13.0462 4.08659 12.8022 4.33068L12.3607 4.77238C12.1167 5.0165 11.721 5.01658 11.4768 4.7726V4.7726C11.2326 4.52855 11.2325 4.13267 11.4766 3.88853L11.9182 3.44693ZM2.19606 4.33069C1.95217 4.08658 1.95236 3.69092 2.19635 3.44693V3.44693C2.44039 3.20289 2.83613 3.20275 3.08022 3.44673L3.52191 3.88821C3.76603 4.13221 3.7659 4.52815 3.52193 4.77229V4.77229C3.27779 5.0166 2.88154 5.01682 2.63743 4.77249L2.19606 4.33069Z" fill="#FF7E55"/>
</svg>
