<svg width="24" height="24" viewBox="0 0 24 24" fill="none" xmlns="http://www.w3.org/2000/svg">
<mask id="mask0_3977_60524" style="mask-type:alpha" maskUnits="userSpaceOnUse" x="3" y="0" width="19" height="24">
<rect x="3" width="19" height="24" fill="#D9D9D9"/>
</mask>
<g mask="url(#mask0_3977_60524)">
<path fill-rule="evenodd" clip-rule="evenodd" d="M12.9805 13.5773C11.063 13.6429 7.94985 12.5441 8.24791 7.52581C8.95804 7.39379 10.6143 7.40284 11.5584 8.49524C11.4338 7.77879 11.4963 5.97094 12.7434 4.47114C13.4055 4.66503 14.8152 5.54408 15.1571 7.5092C15.9099 6.4183 17.8735 4.34152 19.706 4.76158C20.087 5.74736 20.3546 8.12782 18.377 9.76341C19.3078 9.69601 21.3447 9.84564 22.0453 10.9833C21.7464 11.6728 20.7331 13.1926 19.0715 13.7551C19.7871 14.256 21.2 15.5148 21.1275 16.5427C19.1576 17.526 14.9522 18.3243 13.4927 13.9171L15.6725 10.7117C15.7827 10.5792 15.7664 10.3823 15.6362 10.2721C15.5059 10.1618 15.3109 10.1799 15.2007 10.3124L12.9805 13.5773Z" fill="white"/>
<path fill-rule="evenodd" clip-rule="evenodd" d="M8.71738 17.9607C9.81314 17.9948 11.5914 17.3613 11.4115 14.4932C11.0055 14.4192 10.059 14.4277 9.52161 15.0539C9.59149 14.6442 9.55237 13.6113 8.83689 12.7568C8.45891 12.8689 7.65504 13.3741 7.46338 14.4977C7.03118 13.8758 5.90518 12.6931 4.85882 12.9368C4.64299 13.5009 4.4946 14.8617 5.62771 15.7923C5.09569 15.7557 3.93208 15.8453 3.53386 16.4968C3.70599 16.8902 4.28787 17.7566 5.2384 18.0746C4.83047 18.3623 4.02547 19.0845 4.06885 19.6717C5.19617 20.2296 7.60019 20.6771 8.42618 18.1572L7.17373 16.3287C7.11048 16.2532 7.11939 16.1406 7.19362 16.0774C7.26786 16.0141 7.3793 16.024 7.44254 16.0996L8.71738 17.9607Z" fill="white"/>
</g>
</svg>
