<svg width="90" height="48" viewBox="0 0 90 48" fill="none" xmlns="http://www.w3.org/2000/svg">
<rect x="12.5" y="12.5" width="65" height="23" rx="11.5" fill="#15171E"/>
<rect x="12.5" y="12.5" width="65" height="23" rx="11.5" stroke="#C3C4CE"/>
<g clip-path="url(#clip0_3977_60396)">
<path d="M32.2917 22.1055H31.7708V21.4623C31.7708 20.1031 30.6042 19 29.1667 19C27.7292 19 26.5625 20.1031 26.5625 21.4623V22.1055H26.0417C25.4687 22.1055 25 22.5487 25 23.0904V28.0151C25 28.5568 25.4687 29 26.0417 29H32.2917C32.8646 29 33.3333 28.5568 33.3333 28.0151V23.0904C33.3333 22.5487 32.8646 22.1055 32.2917 22.1055ZM29.1667 26.5377C28.5937 26.5377 28.125 26.0945 28.125 25.5528C28.125 25.0111 28.5937 24.5678 29.1667 24.5678C29.7396 24.5678 30.2083 25.0111 30.2083 25.5528C30.2083 26.0945 29.7396 26.5377 29.1667 26.5377ZM30.7813 22.1055H27.5521V21.4623C27.5521 20.6202 28.276 19.9357 29.1667 19.9357C30.0573 19.9357 30.7813 20.6202 30.7813 21.4623V22.1055Z" fill="#C3C4CE"/>
</g>
<path d="M46.5396 28.77H45.7036V19.156H46.5396V28.77ZM43.7016 26.383H39.1586V19.97H39.9836V22.434H42.8656V19.97H43.7016V26.383ZM42.8656 25.679V23.127H39.9836V25.679H42.8656ZM55.9252 26.955C55.9252 28.033 54.7262 28.682 52.4822 28.682C50.2382 28.682 49.0172 28.033 49.0172 26.955C49.0172 25.877 50.2382 25.217 52.4822 25.217C54.7262 25.217 55.9252 25.877 55.9252 26.955ZM55.1002 26.955C55.1002 26.295 54.0882 25.899 52.4822 25.899C50.8542 25.899 49.8532 26.295 49.8532 26.955C49.8532 27.626 50.8542 28.011 52.4822 28.011C54.0882 28.011 55.1002 27.626 55.1002 26.955ZM56.8382 24.436H48.1592V23.743H51.7342V21.708H52.5702V23.743H56.8382V24.436ZM55.8152 19.684V20.542C55.8152 21.345 55.6942 22.511 55.5402 23.105L54.7152 22.995C54.8692 22.467 54.9352 21.598 54.9462 21.158L54.9572 20.377H49.1162V19.684H55.8152ZM65.7838 28.77H64.9588V23.633H63.7048V28.286H62.8798V19.387H63.7048V22.94H64.9588V19.156H65.7838V28.77ZM61.8238 20.289C61.7908 23.149 60.4818 25.393 58.2048 26.768L57.6438 26.152C59.6788 24.997 60.8558 22.951 60.9438 20.993H57.9738V20.289H61.8238Z" fill="#C3C4CE"/>
<defs>
<clipPath id="clip0_3977_60396">
<rect width="9" height="10" fill="white" transform="translate(25 19)"/>
</clipPath>
</defs>
</svg>
