<svg width="48" height="60" viewBox="0 0 48 60" fill="none" xmlns="http://www.w3.org/2000/svg">
<path d="M5.15605 45.972C5.15605 47.303 4.29805 48.282 2.95605 48.282C1.61405 48.282 0.734055 47.303 0.734055 45.972C0.734055 44.652 1.61405 43.684 2.94505 43.684C4.28705 43.684 5.15605 44.641 5.15605 45.972ZM8.73106 48.821H7.89506V46.313H6.74006V48.733H5.93705V43.332H6.74006V45.62H7.89506V43.156H8.73106V48.821ZM4.33106 45.983C4.33106 45.07 3.83605 44.399 2.94505 44.399C2.06505 44.399 1.55905 45.07 1.55905 45.972C1.55905 46.885 2.06505 47.578 2.94505 47.578C3.83605 47.578 4.33106 46.885 4.33106 45.983ZM8.73106 52.77H7.88405V50.009H2.24105V49.316H8.73106V52.77ZM15.3886 47.325V46.621H17.1596V45.312H15.3886V44.608H17.1596V43.156H17.9956V50.108H17.1596V47.325H15.3886ZM15.7516 48.106L15.2566 48.766C14.2666 48.293 13.3206 47.413 12.9136 46.434C12.6166 47.446 11.5936 48.535 10.5486 49.074L10.0316 48.425C11.3186 47.853 12.4736 46.522 12.4736 44.982V43.717H13.3206V44.949C13.3206 46.555 14.6076 47.688 15.7516 48.106ZM18.2046 52.473H11.8136V49.536H12.6496V51.78H18.2046V52.473ZM26.7212 43.156H27.5572V52.77H26.7212V43.156ZM25.8412 49.459L25.9182 50.152C24.9172 50.306 23.2672 50.471 21.1552 50.471H20.1762V46.764H23.8172V44.74H20.1322V44.047H24.6642V47.457H21.0122V49.756H21.2432C22.7722 49.756 24.6752 49.668 25.8412 49.459ZM37.5368 48.106L37.0748 48.81C35.4578 48.326 33.8958 46.962 33.4998 45.983C33.1588 46.962 31.6298 48.326 29.9578 48.799L29.5178 48.084C31.0798 47.776 33.0818 46.291 33.0818 44.718V43.959H33.9508V44.718C33.9508 46.291 36.0628 47.776 37.5368 48.106ZM37.8558 51.45H29.1768V50.746H37.8558V51.45ZM46.0534 46.885H40.5974V48.381H46.3394V49.085H39.7504V44.08H46.2404V44.784H40.5974V46.181H46.0534V46.885ZM47.3734 51.549H38.6944V50.845H47.3734V51.549Z" fill="#23B877"/>
<g clip-path="url(#clip0_3977_60365)">
<path d="M19.3516 16H35.8516" stroke="#23B877" stroke-width="2.5" stroke-linecap="round"/>
<path d="M19.3516 24H35.8516" stroke="#23B877" stroke-width="2.5" stroke-linecap="round"/>
<path d="M19.3516 32H35.8516" stroke="#23B877" stroke-width="2.5" stroke-linecap="round"/>
<mask id="path-5-inside-1_3977_60365" fill="white">
<path fill-rule="evenodd" clip-rule="evenodd" d="M14.4973 18.2673C15.151 17.5913 15.2335 16.0831 14.347 14.9031C13.4815 13.7509 10.798 12.6802 10.2523 13.0887C9.70658 13.4973 10.1103 16.536 10.8509 17.5218C11.7783 18.7563 13.3701 18.9152 14.1682 18.5104C14.0334 18.2401 13.6849 17.6062 12.9192 16.5379C12.2379 15.5873 11.5913 14.827 11.2156 14.4044C11.2002 14.3871 11.2272 14.3609 11.2439 14.377C12.1038 15.2039 13.4342 16.6407 14.4973 18.2673Z"/>
</mask>
<path fill-rule="evenodd" clip-rule="evenodd" d="M14.4973 18.2673C15.151 17.5913 15.2335 16.0831 14.347 14.9031C13.4815 13.7509 10.798 12.6802 10.2523 13.0887C9.70658 13.4973 10.1103 16.536 10.8509 17.5218C11.7783 18.7563 13.3701 18.9152 14.1682 18.5104C14.0334 18.2401 13.6849 17.6062 12.9192 16.5379C12.2379 15.5873 11.5913 14.827 11.2156 14.4044C11.2002 14.3871 11.2272 14.3609 11.2439 14.377C12.1038 15.2039 13.4342 16.6407 14.4973 18.2673Z" fill="#23B877"/>
<path d="M14.347 14.9031L14.4048 14.8597V14.8597L14.347 14.9031ZM14.4973 18.2673L14.5493 18.3175L14.4864 18.3826L14.4369 18.3068L14.4973 18.2673ZM10.8509 17.5218L10.7931 17.5652L10.8509 17.5218ZM14.1682 18.5104L14.2329 18.4781L14.2649 18.5423L14.2009 18.5748L14.1682 18.5104ZM12.9192 16.5379L12.8605 16.58L12.9192 16.5379ZM11.2156 14.4044L11.2697 14.3564L11.2697 14.3564L11.2156 14.4044ZM11.2439 14.377L11.1938 14.4291V14.4291L11.2439 14.377ZM14.4048 14.8597C14.8576 15.4624 15.0633 16.1494 15.072 16.7732C15.0806 17.3955 14.8929 17.9621 14.5493 18.3175L14.4454 18.2171C14.7554 17.8965 14.9358 17.371 14.9275 16.7752C14.9192 16.1809 14.723 15.5238 14.2893 14.9465L14.4048 14.8597ZM10.209 13.0309C10.2936 12.9675 10.4117 12.9379 10.5451 12.93C10.68 12.922 10.839 12.9356 11.0133 12.9667C11.362 13.0288 11.781 13.1624 12.208 13.3441C13.0593 13.7065 13.9606 14.2684 14.4048 14.8597L14.2893 14.9465C13.8679 14.3856 12.9947 13.8361 12.1514 13.4771C11.7312 13.2982 11.3229 13.1687 10.9879 13.109C10.8204 13.0791 10.6734 13.0671 10.5537 13.0743C10.4326 13.0815 10.3474 13.1078 10.2956 13.1466L10.209 13.0309ZM10.7931 17.5652C10.6006 17.309 10.4335 16.925 10.2991 16.4921C10.1643 16.0579 10.0607 15.5689 9.9976 15.0984C9.93454 14.6283 9.91157 14.174 9.9394 13.8096C9.95331 13.6276 9.98007 13.4654 10.0221 13.334C10.0637 13.2044 10.1231 13.0952 10.209 13.0309L10.2956 13.1466C10.2451 13.1844 10.1977 13.2596 10.1598 13.3781C10.1224 13.4949 10.0969 13.6449 10.0835 13.8206C10.0567 14.1717 10.0786 14.6153 10.1408 15.0792C10.203 15.5427 10.3051 16.0237 10.4372 16.4493C10.5697 16.8762 10.7309 17.2417 10.9086 17.4784L10.7931 17.5652ZM14.2009 18.5748C13.7834 18.7866 13.1678 18.8476 12.5416 18.7012C11.9135 18.5544 11.2682 18.1976 10.7931 17.5652L10.9086 17.4784C11.3609 18.0805 11.9752 18.4204 12.5745 18.5605C13.1755 18.701 13.7549 18.639 14.1355 18.4459L14.2009 18.5748ZM14.1036 18.5426C13.9708 18.2764 13.6244 17.6458 12.8605 16.58L12.978 16.4958C13.7455 17.5666 14.0961 18.2037 14.2329 18.4781L14.1036 18.5426ZM12.8605 16.58C12.181 15.632 11.5362 14.8737 11.1616 14.4524L11.2697 14.3564C11.6465 14.7803 12.2947 15.5425 12.978 16.4958L12.8605 16.58ZM11.1616 14.4524C11.1435 14.432 11.1362 14.406 11.1396 14.381C11.1426 14.3579 11.1541 14.3392 11.1674 14.3263C11.1807 14.3134 11.1998 14.3025 11.2231 14.3001C11.2485 14.2976 11.2743 14.306 11.294 14.3249L11.1938 14.4291C11.2051 14.44 11.2213 14.4455 11.2374 14.4439C11.2515 14.4425 11.2617 14.4362 11.2681 14.43C11.2744 14.4238 11.281 14.4139 11.2828 14.4001C11.2849 14.3844 11.2801 14.3681 11.2697 14.3564L11.1616 14.4524ZM11.294 14.3249C12.1564 15.1543 13.4908 16.5952 14.5578 18.2278L14.4369 18.3068C13.3776 16.6862 12.0512 15.2536 11.1938 14.4291L11.294 14.3249Z" fill="#23B877" mask="url(#path-5-inside-1_3977_60365)"/>
<mask id="path-7-inside-2_3977_60365" fill="white">
<path fill-rule="evenodd" clip-rule="evenodd" d="M14.4973 26.4128C15.151 25.7368 15.2335 24.2286 14.347 23.0486C13.4815 21.8964 10.798 20.8257 10.2523 21.2342C9.70658 21.6428 10.1103 24.6815 10.8509 25.6673C11.7783 26.9018 13.3701 27.0607 14.1682 26.6559C14.0334 26.3856 13.6849 25.7517 12.9192 24.6834C12.2379 23.7328 11.5913 22.9725 11.2156 22.5499C11.2002 22.5326 11.2272 22.5064 11.2439 22.5225C12.1038 23.3494 13.4342 24.7862 14.4973 26.4128Z"/>
</mask>
<path fill-rule="evenodd" clip-rule="evenodd" d="M14.4973 26.4128C15.151 25.7368 15.2335 24.2286 14.347 23.0486C13.4815 21.8964 10.798 20.8257 10.2523 21.2342C9.70658 21.6428 10.1103 24.6815 10.8509 25.6673C11.7783 26.9018 13.3701 27.0607 14.1682 26.6559C14.0334 26.3856 13.6849 25.7517 12.9192 24.6834C12.2379 23.7328 11.5913 22.9725 11.2156 22.5499C11.2002 22.5326 11.2272 22.5064 11.2439 22.5225C12.1038 23.3494 13.4342 24.7862 14.4973 26.4128Z" fill="#23B877"/>
<path d="M14.347 23.0486L14.4048 23.0052V23.0052L14.347 23.0486ZM14.4973 26.4128L14.5493 26.463L14.4864 26.5281L14.4369 26.4523L14.4973 26.4128ZM10.8509 25.6673L10.7931 25.7107L10.8509 25.6673ZM14.1682 26.6559L14.2329 26.6236L14.2649 26.6878L14.2009 26.7203L14.1682 26.6559ZM12.9192 24.6834L12.8605 24.7255L12.9192 24.6834ZM11.2156 22.5499L11.2697 22.5019L11.2697 22.5019L11.2156 22.5499ZM11.2439 22.5225L11.1938 22.5746V22.5746L11.2439 22.5225ZM14.4048 23.0052C14.8576 23.6079 15.0633 24.2949 15.072 24.9187C15.0806 25.541 14.8929 26.1076 14.5493 26.463L14.4454 26.3626C14.7554 26.042 14.9358 25.5165 14.9275 24.9207C14.9192 24.3264 14.723 23.6693 14.2893 23.092L14.4048 23.0052ZM10.209 21.1764C10.2936 21.1131 10.4117 21.0834 10.5451 21.0755C10.68 21.0675 10.839 21.0811 11.0133 21.1122C11.362 21.1744 11.781 21.3079 12.208 21.4896C13.0593 21.852 13.9606 22.4139 14.4048 23.0052L14.2893 23.092C13.8679 22.5311 12.9947 21.9816 12.1514 21.6226C11.7312 21.4437 11.3229 21.3142 10.9879 21.2545C10.8204 21.2246 10.6734 21.2126 10.5537 21.2198C10.4326 21.227 10.3474 21.2533 10.2956 21.2921L10.209 21.1764ZM10.7931 25.7107C10.6006 25.4545 10.4335 25.0705 10.2991 24.6376C10.1643 24.2034 10.0607 23.7144 9.9976 23.2439C9.93454 22.7738 9.91157 22.3195 9.9394 21.9551C9.95331 21.7731 9.98007 21.6109 10.0221 21.4795C10.0637 21.3499 10.1231 21.2407 10.209 21.1764L10.2956 21.2921C10.2451 21.3299 10.1977 21.4051 10.1598 21.5236C10.1224 21.6405 10.0969 21.7904 10.0835 21.9661C10.0567 22.3172 10.0786 22.7608 10.1408 23.2247C10.203 23.6882 10.3051 24.1692 10.4372 24.5948C10.5697 25.0217 10.7309 25.3872 10.9086 25.6239L10.7931 25.7107ZM14.2009 26.7203C13.7834 26.9321 13.1678 26.9931 12.5416 26.8467C11.9135 26.6999 11.2682 26.3432 10.7931 25.7107L10.9086 25.6239C11.3609 26.226 11.9752 26.5659 12.5745 26.706C13.1755 26.8465 13.7549 26.7845 14.1355 26.5914L14.2009 26.7203ZM14.1036 26.6881C13.9708 26.4219 13.6244 25.7913 12.8605 24.7255L12.978 24.6413C13.7455 25.7121 14.0961 26.3492 14.2329 26.6236L14.1036 26.6881ZM12.8605 24.7255C12.181 23.7775 11.5362 23.0192 11.1616 22.5979L11.2697 22.5019C11.6465 22.9258 12.2947 23.688 12.978 24.6413L12.8605 24.7255ZM11.1616 22.5979C11.1435 22.5775 11.1362 22.5515 11.1396 22.5265C11.1426 22.5034 11.1541 22.4847 11.1674 22.4718C11.1807 22.4589 11.1998 22.448 11.2231 22.4456C11.2485 22.4431 11.2743 22.4515 11.294 22.4704L11.1938 22.5746C11.2051 22.5855 11.2213 22.5911 11.2374 22.5895C11.2515 22.5881 11.2617 22.5817 11.2681 22.5755C11.2744 22.5693 11.281 22.5594 11.2828 22.5456C11.2849 22.5299 11.2801 22.5136 11.2697 22.5019L11.1616 22.5979ZM11.294 22.4704C12.1564 23.2998 13.4908 24.7407 14.5578 26.3733L14.4369 26.4523C13.3776 24.8317 12.0512 23.3991 11.1938 22.5746L11.294 22.4704Z" fill="#23B877" mask="url(#path-7-inside-2_3977_60365)"/>
<mask id="path-9-inside-3_3977_60365" fill="white">
<path fill-rule="evenodd" clip-rule="evenodd" d="M14.4973 34.4128C15.151 33.7368 15.2335 32.2286 14.347 31.0486C13.4815 29.8964 10.798 28.8257 10.2523 29.2342C9.70658 29.6428 10.1103 32.6815 10.8509 33.6673C11.7783 34.9018 13.3701 35.0607 14.1682 34.6559C14.0334 34.3856 13.6849 33.7517 12.9192 32.6834C12.2379 31.7328 11.5913 30.9725 11.2156 30.5499C11.2002 30.5326 11.2272 30.5064 11.2439 30.5225C12.1038 31.3494 13.4342 32.7862 14.4973 34.4128Z"/>
</mask>
<path fill-rule="evenodd" clip-rule="evenodd" d="M14.4973 34.4128C15.151 33.7368 15.2335 32.2286 14.347 31.0486C13.4815 29.8964 10.798 28.8257 10.2523 29.2342C9.70658 29.6428 10.1103 32.6815 10.8509 33.6673C11.7783 34.9018 13.3701 35.0607 14.1682 34.6559C14.0334 34.3856 13.6849 33.7517 12.9192 32.6834C12.2379 31.7328 11.5913 30.9725 11.2156 30.5499C11.2002 30.5326 11.2272 30.5064 11.2439 30.5225C12.1038 31.3494 13.4342 32.7862 14.4973 34.4128Z" fill="#23B877"/>
<path d="M14.347 31.0486L14.4048 31.0052V31.0052L14.347 31.0486ZM14.4973 34.4128L14.5493 34.463L14.4864 34.5281L14.4369 34.4523L14.4973 34.4128ZM10.8509 33.6673L10.7931 33.7107L10.8509 33.6673ZM14.1682 34.6559L14.2329 34.6236L14.2649 34.6878L14.2009 34.7203L14.1682 34.6559ZM12.9192 32.6834L12.8605 32.7255L12.9192 32.6834ZM11.2156 30.5499L11.2697 30.5019L11.2697 30.5019L11.2156 30.5499ZM11.2439 30.5225L11.1938 30.5746V30.5746L11.2439 30.5225ZM14.4048 31.0052C14.8576 31.6079 15.0633 32.2949 15.072 32.9187C15.0806 33.541 14.8929 34.1076 14.5493 34.463L14.4454 34.3626C14.7554 34.042 14.9358 33.5165 14.9275 32.9207C14.9192 32.3264 14.723 31.6693 14.2893 31.092L14.4048 31.0052ZM10.209 29.1764C10.2936 29.1131 10.4117 29.0834 10.5451 29.0755C10.68 29.0675 10.839 29.0811 11.0133 29.1122C11.362 29.1744 11.781 29.3079 12.208 29.4896C13.0593 29.852 13.9606 30.4139 14.4048 31.0052L14.2893 31.092C13.8679 30.5311 12.9947 29.9816 12.1514 29.6226C11.7312 29.4437 11.3229 29.3142 10.9879 29.2545C10.8204 29.2246 10.6734 29.2126 10.5537 29.2198C10.4326 29.227 10.3474 29.2533 10.2956 29.2921L10.209 29.1764ZM10.7931 33.7107C10.6006 33.4545 10.4335 33.0705 10.2991 32.6376C10.1643 32.2034 10.0607 31.7144 9.9976 31.2439C9.93454 30.7738 9.91157 30.3195 9.9394 29.9551C9.95331 29.7731 9.98007 29.6109 10.0221 29.4795C10.0637 29.3499 10.1231 29.2407 10.209 29.1764L10.2956 29.2921C10.2451 29.3299 10.1977 29.4051 10.1598 29.5236C10.1224 29.6405 10.0969 29.7904 10.0835 29.9661C10.0567 30.3172 10.0786 30.7608 10.1408 31.2247C10.203 31.6882 10.3051 32.1692 10.4372 32.5948C10.5697 33.0217 10.7309 33.3872 10.9086 33.6239L10.7931 33.7107ZM14.2009 34.7203C13.7834 34.9321 13.1678 34.9931 12.5416 34.8467C11.9135 34.6999 11.2682 34.3432 10.7931 33.7107L10.9086 33.6239C11.3609 34.226 11.9752 34.5659 12.5745 34.706C13.1755 34.8465 13.7549 34.7845 14.1355 34.5914L14.2009 34.7203ZM14.1036 34.6881C13.9708 34.4219 13.6244 33.7913 12.8605 32.7255L12.978 32.6413C13.7455 33.7121 14.0961 34.3492 14.2329 34.6236L14.1036 34.6881ZM12.8605 32.7255C12.181 31.7775 11.5362 31.0192 11.1616 30.5979L11.2697 30.5019C11.6465 30.9258 12.2947 31.688 12.978 32.6413L12.8605 32.7255ZM11.1616 30.5979C11.1435 30.5775 11.1362 30.5515 11.1396 30.5265C11.1426 30.5034 11.1541 30.4847 11.1674 30.4718C11.1807 30.4589 11.1998 30.448 11.2231 30.4456C11.2485 30.4431 11.2743 30.4515 11.294 30.4704L11.1938 30.5746C11.2051 30.5855 11.2213 30.5911 11.2374 30.5895C11.2515 30.5881 11.2617 30.5817 11.2681 30.5755C11.2744 30.5693 11.281 30.5594 11.2828 30.5456C11.2849 30.5299 11.2801 30.5136 11.2697 30.5019L11.1616 30.5979ZM11.294 30.4704C12.1564 31.2998 13.4908 32.7407 14.5578 34.3733L14.4369 34.4523C13.3776 32.8317 12.0512 31.3991 11.1938 30.5746L11.294 30.4704Z" fill="#23B877" mask="url(#path-9-inside-3_3977_60365)"/>
</g>
<defs>
<clipPath id="clip0_3977_60365">
<rect width="28" height="22" fill="white" transform="translate(10 13)"/>
</clipPath>
</defs>
</svg>
