<svg width="170" height="170" viewBox="0 0 170 170" fill="none" xmlns="http://www.w3.org/2000/svg">
<mask id="path-1-inside-1_4890_87787" fill="white">
<path fill-rule="evenodd" clip-rule="evenodd" d="M89.8314 143.995C89.5472 143.775 88.9351 143.665 87.9951 143.665H84.6178L84.6177 139.617C84.6177 139.265 84.41 138.913 83.9947 138.561C83.5793 138.187 82.9782 138 82.1912 138C81.3824 138 80.7594 138.187 80.3222 138.561C79.9069 138.913 79.6992 139.265 79.6992 139.617L79.6993 153.368C79.6993 153.94 79.7212 154.655 79.7649 155.513C79.8305 156.371 80.0382 157.229 80.3879 158.087C81.2842 159.869 82.2351 161.002 83.2406 161.486C84.2462 161.97 85.2627 162.212 86.2901 162.212C87.3393 162.212 89.1407 162.212 89.8795 161.024C90.2949 160.232 90.3932 159.473 90.1747 158.747C90.0654 158.769 89.9451 158.78 89.814 158.78H89.4861C87.8903 158.78 85.7284 158.747 85.0441 157.163C84.8255 156.657 84.6943 156.096 84.6506 155.48C84.6287 154.842 84.6178 154.138 84.6178 153.368V147.527H87.5689C88.3995 147.527 89.0553 147.23 89.5363 146.636C90.0172 146.041 90.2576 145.447 90.2576 144.853C90.2576 144.479 90.1155 144.193 89.8314 143.995ZM92.3164 160.628V139.644C92.3164 139.314 92.5131 138.962 92.9066 138.588C93.322 138.214 93.934 138.027 94.7429 138.027C95.5735 138.027 96.1856 138.214 96.5791 138.588C96.9726 138.962 97.1693 139.314 97.1693 139.644V145.513C97.6065 145.095 98.2514 144.677 99.1039 144.259C99.9783 143.841 101.126 143.632 102.547 143.632C104.624 143.632 106.263 144.27 107.465 145.546C108.668 146.822 109.269 148.747 109.269 151.321V160.628C109.269 160.958 109.072 161.299 108.679 161.651C108.285 162.003 107.662 162.179 106.809 162.179C105.935 162.179 105.301 162.003 104.908 161.651C104.536 161.299 104.35 160.958 104.35 160.628V151.222C104.35 150.078 104.099 149.231 103.596 148.681C103.093 148.109 102.459 147.823 101.694 147.823C100.208 147.823 99.082 148.34 98.3169 149.374C97.5518 150.408 97.1693 151.992 97.1693 154.126V160.628C97.1693 160.98 96.9616 161.332 96.5463 161.684C96.131 162.014 95.5298 162.179 94.7429 162.179C93.934 162.179 93.322 162.014 92.9066 161.684C92.5131 161.332 92.3164 160.98 92.3164 160.628ZM168.637 158.351C169.008 158.835 169.281 159.275 169.456 159.671C169.653 160.045 169.751 160.353 169.751 160.595C169.751 161.079 169.478 161.475 168.932 161.783C168.385 162.091 167.729 162.245 166.964 162.245C166.527 162.245 166.068 162.124 165.587 161.882C165.128 161.618 164.735 161.288 164.407 160.892L159.783 154.655L157.685 156.602V160.628C157.685 160.98 157.477 161.332 157.062 161.684C156.646 162.036 156.034 162.212 155.226 162.212C154.46 162.212 153.87 162.036 153.455 161.684C153.04 161.332 152.832 160.98 152.832 160.628V139.677C152.832 139.347 153.04 138.995 153.455 138.621C153.87 138.247 154.46 138.06 155.226 138.06C156.078 138.06 156.701 138.247 157.095 138.621C157.488 138.995 157.685 139.347 157.685 139.677V149.902L163.292 144.622C163.685 144.27 164.123 144.028 164.603 143.896C165.084 143.742 165.511 143.665 165.882 143.665C166.516 143.665 167.117 143.907 167.686 144.391C168.276 144.875 168.571 145.348 168.571 145.81C168.505 146.052 168.341 146.349 168.079 146.701C167.839 147.031 167.5 147.394 167.063 147.79L163.357 151.289L168.637 158.351ZM141.175 143.665C143.974 143.665 146.269 144.512 148.061 146.207C149.854 147.879 150.75 150.178 150.75 153.104C150.75 155.876 149.887 158.131 148.16 159.869C146.433 161.585 144.105 162.443 141.175 162.443C138.224 162.443 135.907 161.563 134.224 159.803C132.541 158.043 131.699 155.81 131.699 153.104C131.699 150.156 132.585 147.846 134.355 146.174C136.148 144.501 138.421 143.665 141.175 143.665ZM141.175 158.318C142.531 158.318 143.646 157.867 144.52 156.965C145.394 156.041 145.832 154.754 145.832 153.104C145.832 151.454 145.394 150.167 144.52 149.243C143.646 148.319 142.531 147.857 141.175 147.857C139.842 147.857 138.738 148.319 137.864 149.243C137.011 150.167 136.585 151.454 136.585 153.104C136.585 154.754 137.011 156.041 137.864 156.965C138.738 157.867 139.842 158.318 141.175 158.318ZM127.686 146.207C125.894 144.512 123.599 143.665 120.8 143.665C118.046 143.665 115.773 144.501 113.98 146.174C112.21 147.846 111.324 150.156 111.324 153.104C111.324 155.81 112.166 158.043 113.849 159.803C115.532 161.563 117.849 162.443 120.8 162.443C123.73 162.443 126.058 161.585 127.785 159.869C129.512 158.131 130.375 155.876 130.375 153.104C130.375 150.178 129.479 147.879 127.686 146.207ZM124.145 156.965C123.271 157.867 122.156 158.318 120.8 158.318C119.467 158.318 118.363 157.867 117.489 156.965C116.636 156.041 116.21 154.754 116.21 153.104C116.21 151.454 116.636 150.167 117.489 149.243C118.363 148.319 119.467 147.857 120.8 147.857C122.156 147.857 123.271 148.319 124.145 149.243C125.019 150.167 125.457 151.454 125.457 153.104C125.457 154.754 125.019 156.041 124.145 156.965ZM75.138 143.665C75.8812 143.665 76.4059 143.841 76.7119 144.193C77.0398 144.523 77.171 144.842 77.1054 145.15L73.7608 160.001C73.5859 160.749 73.2034 161.31 72.6132 161.684C72.023 162.058 71.3781 162.245 70.6786 162.245C69.9791 162.245 69.3233 162.058 68.7112 161.684C68.0991 161.31 67.6838 160.749 67.4652 160.001L65.6618 153.896L63.8255 160.001C63.6069 160.749 63.1916 161.31 62.5795 161.684C61.9674 162.058 61.3116 162.245 60.6121 162.245C59.9126 162.245 59.2568 162.058 58.6447 161.684C58.0545 161.31 57.6829 160.749 57.5299 160.001L54.1853 145.15C54.1197 144.842 54.24 144.523 54.546 144.193C54.8739 143.841 55.4095 143.665 56.1527 143.665C56.9397 143.665 57.5517 143.841 57.9889 144.193C58.448 144.523 58.7103 144.842 58.7759 145.15L60.7761 154.49L63.2353 146.174C63.5195 145.205 63.8037 144.545 64.0878 144.193C64.3939 143.841 64.8967 143.665 65.5962 143.665C66.3831 143.665 66.9187 143.852 67.2029 144.226C67.5089 144.578 67.804 145.227 68.0882 146.174L70.5146 154.49L72.5148 145.15C72.6023 144.842 72.8646 144.523 73.3018 144.193C73.7608 143.841 74.3729 143.665 75.138 143.665ZM49.7215 146.206C47.929 144.512 45.6337 143.665 42.8356 143.665C40.0813 143.665 37.8079 144.501 36.0153 146.173C34.2447 147.845 33.3594 150.155 33.3594 153.104C33.3594 155.81 34.201 158.043 35.8842 159.803C37.5674 161.563 39.8845 162.443 42.8356 162.443C45.7648 162.443 48.0929 161.585 49.8198 159.869C51.5468 158.131 52.4102 155.876 52.4102 153.104C52.4102 150.177 51.514 147.878 49.7215 146.206ZM46.1802 156.965C45.3058 157.867 44.1909 158.318 42.8356 158.318C41.5022 158.318 40.3982 157.867 39.5239 156.965C38.6713 156.041 38.2451 154.754 38.2451 153.104C38.2451 151.453 38.6713 150.166 39.5239 149.242C40.3982 148.318 41.5022 147.856 42.8356 147.856C44.1909 147.856 45.3058 148.318 46.1802 149.242C47.0546 150.166 47.4918 151.453 47.4918 153.104C47.4918 154.754 47.0546 156.041 46.1802 156.965ZM18.4237 151.883V159.836C18.4237 161.596 18.216 163.114 17.8007 164.39C17.4072 165.688 16.8389 166.755 16.0956 167.591C15.3305 168.405 14.4015 169.01 13.3085 169.406C12.2155 169.802 10.9695 170 9.57045 170C7.34075 170 5.79963 169.681 4.94709 169.043C4.09456 168.427 3.66829 167.778 3.66829 167.096C3.66829 166.524 3.93061 165.996 4.45525 165.512C5.00174 165.05 5.82149 164.951 6.91448 165.215C7.41726 165.325 7.86538 165.402 8.25886 165.446C8.6742 165.49 9.13326 165.512 9.63603 165.512C11.0569 165.512 12.0625 165.16 12.6527 164.456C13.2429 163.752 13.538 162.586 13.538 160.958V160.331C13.0134 160.705 12.3467 160.991 11.5378 161.189C10.7509 161.387 9.85463 161.486 8.84908 161.486C6.57565 161.486 4.65198 160.738 3.07807 159.242C1.52602 157.724 0.75 155.59 0.75 152.84C0.75 150.199 1.61346 147.999 3.34039 146.239C5.06732 144.479 7.30796 143.599 10.0623 143.599C12.3139 143.599 14.2703 144.303 15.9317 145.711C17.593 147.119 18.4237 149.176 18.4237 151.883ZM9.30813 157.328C10.5979 157.328 11.6143 156.8 12.3576 155.744C13.1227 154.666 13.5052 153.368 13.5052 151.85C13.5052 150.529 13.2538 149.55 12.7511 148.912C12.2483 148.252 11.4176 147.878 10.259 147.79C9.05675 147.702 8.04026 148.043 7.20959 148.813C6.37891 149.583 5.85428 150.706 5.63568 152.18C5.43894 153.676 5.65754 154.908 6.29147 155.876C6.94727 156.844 7.95282 157.328 9.30813 157.328ZM32.2283 144.853C31.7911 144.083 30.862 143.698 29.4411 143.698C27.4956 143.698 25.8124 144.446 24.3915 145.942C22.9925 147.438 22.293 149.539 22.293 152.245V160.661C22.293 161.013 22.5006 161.365 22.916 161.717C23.3532 162.069 23.9652 162.245 24.7522 162.245C25.561 162.245 26.1731 162.069 26.5884 161.717C27.0038 161.365 27.2114 161.013 27.2114 160.661V153.268C27.2114 150.716 27.6377 149.055 28.4902 148.285C29.3428 147.493 30.709 147.108 32.589 147.13C32.8076 146.382 32.6873 145.623 32.2283 144.853Z"/>
</mask>
<path fill-rule="evenodd" clip-rule="evenodd" d="M89.8314 143.995C89.5472 143.775 88.9351 143.665 87.9951 143.665H84.6178L84.6177 139.617C84.6177 139.265 84.41 138.913 83.9947 138.561C83.5793 138.187 82.9782 138 82.1912 138C81.3824 138 80.7594 138.187 80.3222 138.561C79.9069 138.913 79.6992 139.265 79.6992 139.617L79.6993 153.368C79.6993 153.94 79.7212 154.655 79.7649 155.513C79.8305 156.371 80.0382 157.229 80.3879 158.087C81.2842 159.869 82.2351 161.002 83.2406 161.486C84.2462 161.97 85.2627 162.212 86.2901 162.212C87.3393 162.212 89.1407 162.212 89.8795 161.024C90.2949 160.232 90.3932 159.473 90.1747 158.747C90.0654 158.769 89.9451 158.78 89.814 158.78H89.4861C87.8903 158.78 85.7284 158.747 85.0441 157.163C84.8255 156.657 84.6943 156.096 84.6506 155.48C84.6287 154.842 84.6178 154.138 84.6178 153.368V147.527H87.5689C88.3995 147.527 89.0553 147.23 89.5363 146.636C90.0172 146.041 90.2576 145.447 90.2576 144.853C90.2576 144.479 90.1155 144.193 89.8314 143.995ZM92.3164 160.628V139.644C92.3164 139.314 92.5131 138.962 92.9066 138.588C93.322 138.214 93.934 138.027 94.7429 138.027C95.5735 138.027 96.1856 138.214 96.5791 138.588C96.9726 138.962 97.1693 139.314 97.1693 139.644V145.513C97.6065 145.095 98.2514 144.677 99.1039 144.259C99.9783 143.841 101.126 143.632 102.547 143.632C104.624 143.632 106.263 144.27 107.465 145.546C108.668 146.822 109.269 148.747 109.269 151.321V160.628C109.269 160.958 109.072 161.299 108.679 161.651C108.285 162.003 107.662 162.179 106.809 162.179C105.935 162.179 105.301 162.003 104.908 161.651C104.536 161.299 104.35 160.958 104.35 160.628V151.222C104.35 150.078 104.099 149.231 103.596 148.681C103.093 148.109 102.459 147.823 101.694 147.823C100.208 147.823 99.082 148.34 98.3169 149.374C97.5518 150.408 97.1693 151.992 97.1693 154.126V160.628C97.1693 160.98 96.9616 161.332 96.5463 161.684C96.131 162.014 95.5298 162.179 94.7429 162.179C93.934 162.179 93.322 162.014 92.9066 161.684C92.5131 161.332 92.3164 160.98 92.3164 160.628ZM168.637 158.351C169.008 158.835 169.281 159.275 169.456 159.671C169.653 160.045 169.751 160.353 169.751 160.595C169.751 161.079 169.478 161.475 168.932 161.783C168.385 162.091 167.729 162.245 166.964 162.245C166.527 162.245 166.068 162.124 165.587 161.882C165.128 161.618 164.735 161.288 164.407 160.892L159.783 154.655L157.685 156.602V160.628C157.685 160.98 157.477 161.332 157.062 161.684C156.646 162.036 156.034 162.212 155.226 162.212C154.46 162.212 153.87 162.036 153.455 161.684C153.04 161.332 152.832 160.98 152.832 160.628V139.677C152.832 139.347 153.04 138.995 153.455 138.621C153.87 138.247 154.46 138.06 155.226 138.06C156.078 138.06 156.701 138.247 157.095 138.621C157.488 138.995 157.685 139.347 157.685 139.677V149.902L163.292 144.622C163.685 144.27 164.123 144.028 164.603 143.896C165.084 143.742 165.511 143.665 165.882 143.665C166.516 143.665 167.117 143.907 167.686 144.391C168.276 144.875 168.571 145.348 168.571 145.81C168.505 146.052 168.341 146.349 168.079 146.701C167.839 147.031 167.5 147.394 167.063 147.79L163.357 151.289L168.637 158.351ZM141.175 143.665C143.974 143.665 146.269 144.512 148.061 146.207C149.854 147.879 150.75 150.178 150.75 153.104C150.75 155.876 149.887 158.131 148.16 159.869C146.433 161.585 144.105 162.443 141.175 162.443C138.224 162.443 135.907 161.563 134.224 159.803C132.541 158.043 131.699 155.81 131.699 153.104C131.699 150.156 132.585 147.846 134.355 146.174C136.148 144.501 138.421 143.665 141.175 143.665ZM141.175 158.318C142.531 158.318 143.646 157.867 144.52 156.965C145.394 156.041 145.832 154.754 145.832 153.104C145.832 151.454 145.394 150.167 144.52 149.243C143.646 148.319 142.531 147.857 141.175 147.857C139.842 147.857 138.738 148.319 137.864 149.243C137.011 150.167 136.585 151.454 136.585 153.104C136.585 154.754 137.011 156.041 137.864 156.965C138.738 157.867 139.842 158.318 141.175 158.318ZM127.686 146.207C125.894 144.512 123.599 143.665 120.8 143.665C118.046 143.665 115.773 144.501 113.98 146.174C112.21 147.846 111.324 150.156 111.324 153.104C111.324 155.81 112.166 158.043 113.849 159.803C115.532 161.563 117.849 162.443 120.8 162.443C123.73 162.443 126.058 161.585 127.785 159.869C129.512 158.131 130.375 155.876 130.375 153.104C130.375 150.178 129.479 147.879 127.686 146.207ZM124.145 156.965C123.271 157.867 122.156 158.318 120.8 158.318C119.467 158.318 118.363 157.867 117.489 156.965C116.636 156.041 116.21 154.754 116.21 153.104C116.21 151.454 116.636 150.167 117.489 149.243C118.363 148.319 119.467 147.857 120.8 147.857C122.156 147.857 123.271 148.319 124.145 149.243C125.019 150.167 125.457 151.454 125.457 153.104C125.457 154.754 125.019 156.041 124.145 156.965ZM75.138 143.665C75.8812 143.665 76.4059 143.841 76.7119 144.193C77.0398 144.523 77.171 144.842 77.1054 145.15L73.7608 160.001C73.5859 160.749 73.2034 161.31 72.6132 161.684C72.023 162.058 71.3781 162.245 70.6786 162.245C69.9791 162.245 69.3233 162.058 68.7112 161.684C68.0991 161.31 67.6838 160.749 67.4652 160.001L65.6618 153.896L63.8255 160.001C63.6069 160.749 63.1916 161.31 62.5795 161.684C61.9674 162.058 61.3116 162.245 60.6121 162.245C59.9126 162.245 59.2568 162.058 58.6447 161.684C58.0545 161.31 57.6829 160.749 57.5299 160.001L54.1853 145.15C54.1197 144.842 54.24 144.523 54.546 144.193C54.8739 143.841 55.4095 143.665 56.1527 143.665C56.9397 143.665 57.5517 143.841 57.9889 144.193C58.448 144.523 58.7103 144.842 58.7759 145.15L60.7761 154.49L63.2353 146.174C63.5195 145.205 63.8037 144.545 64.0878 144.193C64.3939 143.841 64.8967 143.665 65.5962 143.665C66.3831 143.665 66.9187 143.852 67.2029 144.226C67.5089 144.578 67.804 145.227 68.0882 146.174L70.5146 154.49L72.5148 145.15C72.6023 144.842 72.8646 144.523 73.3018 144.193C73.7608 143.841 74.3729 143.665 75.138 143.665ZM49.7215 146.206C47.929 144.512 45.6337 143.665 42.8356 143.665C40.0813 143.665 37.8079 144.501 36.0153 146.173C34.2447 147.845 33.3594 150.155 33.3594 153.104C33.3594 155.81 34.201 158.043 35.8842 159.803C37.5674 161.563 39.8845 162.443 42.8356 162.443C45.7648 162.443 48.0929 161.585 49.8198 159.869C51.5468 158.131 52.4102 155.876 52.4102 153.104C52.4102 150.177 51.514 147.878 49.7215 146.206ZM46.1802 156.965C45.3058 157.867 44.1909 158.318 42.8356 158.318C41.5022 158.318 40.3982 157.867 39.5239 156.965C38.6713 156.041 38.2451 154.754 38.2451 153.104C38.2451 151.453 38.6713 150.166 39.5239 149.242C40.3982 148.318 41.5022 147.856 42.8356 147.856C44.1909 147.856 45.3058 148.318 46.1802 149.242C47.0546 150.166 47.4918 151.453 47.4918 153.104C47.4918 154.754 47.0546 156.041 46.1802 156.965ZM18.4237 151.883V159.836C18.4237 161.596 18.216 163.114 17.8007 164.39C17.4072 165.688 16.8389 166.755 16.0956 167.591C15.3305 168.405 14.4015 169.01 13.3085 169.406C12.2155 169.802 10.9695 170 9.57045 170C7.34075 170 5.79963 169.681 4.94709 169.043C4.09456 168.427 3.66829 167.778 3.66829 167.096C3.66829 166.524 3.93061 165.996 4.45525 165.512C5.00174 165.05 5.82149 164.951 6.91448 165.215C7.41726 165.325 7.86538 165.402 8.25886 165.446C8.6742 165.49 9.13326 165.512 9.63603 165.512C11.0569 165.512 12.0625 165.16 12.6527 164.456C13.2429 163.752 13.538 162.586 13.538 160.958V160.331C13.0134 160.705 12.3467 160.991 11.5378 161.189C10.7509 161.387 9.85463 161.486 8.84908 161.486C6.57565 161.486 4.65198 160.738 3.07807 159.242C1.52602 157.724 0.75 155.59 0.75 152.84C0.75 150.199 1.61346 147.999 3.34039 146.239C5.06732 144.479 7.30796 143.599 10.0623 143.599C12.3139 143.599 14.2703 144.303 15.9317 145.711C17.593 147.119 18.4237 149.176 18.4237 151.883ZM9.30813 157.328C10.5979 157.328 11.6143 156.8 12.3576 155.744C13.1227 154.666 13.5052 153.368 13.5052 151.85C13.5052 150.529 13.2538 149.55 12.7511 148.912C12.2483 148.252 11.4176 147.878 10.259 147.79C9.05675 147.702 8.04026 148.043 7.20959 148.813C6.37891 149.583 5.85428 150.706 5.63568 152.18C5.43894 153.676 5.65754 154.908 6.29147 155.876C6.94727 156.844 7.95282 157.328 9.30813 157.328ZM32.2283 144.853C31.7911 144.083 30.862 143.698 29.4411 143.698C27.4956 143.698 25.8124 144.446 24.3915 145.942C22.9925 147.438 22.293 149.539 22.293 152.245V160.661C22.293 161.013 22.5006 161.365 22.916 161.717C23.3532 162.069 23.9652 162.245 24.7522 162.245C25.561 162.245 26.1731 162.069 26.5884 161.717C27.0038 161.365 27.2114 161.013 27.2114 160.661V153.268C27.2114 150.716 27.6377 149.055 28.4902 148.285C29.3428 147.493 30.709 147.108 32.589 147.13C32.8076 146.382 32.6873 145.623 32.2283 144.853Z" fill="#23B877"/>
<path d="M89.8314 143.995L89.6477 144.233L89.6537 144.237L89.6599 144.242L89.8314 143.995ZM84.6178 143.665L84.3178 143.665L84.3178 143.965H84.6178V143.665ZM84.6177 139.617H84.3177V139.617L84.6177 139.617ZM83.9947 138.561L83.7938 138.784L83.8007 138.79L83.9947 138.561ZM80.3222 138.561L80.5162 138.79L80.5172 138.789L80.3222 138.561ZM79.6992 139.617H79.3992V139.617L79.6992 139.617ZM79.6993 153.368H79.9993V153.368L79.6993 153.368ZM79.7649 155.513L79.4652 155.528L79.4658 155.536L79.7649 155.513ZM80.3879 158.087L80.1101 158.2L80.1146 158.211L80.1199 158.222L80.3879 158.087ZM89.8795 161.024L90.1343 161.182L90.1401 161.173L90.1452 161.163L89.8795 161.024ZM90.1747 158.747L90.4619 158.66L90.3832 158.399L90.1154 158.453L90.1747 158.747ZM85.0441 157.163L84.7687 157.282V157.282L85.0441 157.163ZM84.6506 155.48L84.3506 155.49L84.3513 155.501L84.6506 155.48ZM84.6178 147.527V147.227H84.3178V147.527H84.6178ZM89.5363 146.636L89.7694 146.824V146.824L89.5363 146.636ZM92.9066 138.588L92.7058 138.365L92.6999 138.37L92.9066 138.588ZM96.5791 138.588L96.3724 138.805L96.5791 138.588ZM97.1693 145.513H96.8693V146.215L97.3766 145.73L97.1693 145.513ZM99.1039 144.259L98.9745 143.989L98.9718 143.99L99.1039 144.259ZM104.908 161.651L104.701 161.869L104.708 161.874L104.908 161.651ZM103.596 148.681L103.371 148.879L103.375 148.884L103.596 148.681ZM98.3169 149.374L98.0758 149.196V149.196L98.3169 149.374ZM96.5463 161.684L96.733 161.919L96.7402 161.913L96.5463 161.684ZM92.9066 161.684L92.7066 161.907L92.7131 161.913L92.72 161.919L92.9066 161.684ZM169.456 159.671L169.182 159.792L169.186 159.801L169.191 159.81L169.456 159.671ZM168.637 158.351L168.396 158.53L168.399 158.533L168.637 158.351ZM168.932 161.783L168.784 161.521V161.521L168.932 161.783ZM165.587 161.882L165.438 162.142L165.445 162.146L165.452 162.15L165.587 161.882ZM164.407 160.892L164.166 161.07L164.17 161.077L164.176 161.083L164.407 160.892ZM159.783 154.655L160.024 154.476L159.825 154.207L159.579 154.435L159.783 154.655ZM157.685 156.602L157.481 156.382L157.385 156.471V156.602H157.685ZM157.062 161.684L157.256 161.913V161.913L157.062 161.684ZM153.455 161.684L153.261 161.913V161.913L153.455 161.684ZM153.455 138.621L153.254 138.398L153.254 138.398L153.455 138.621ZM157.095 138.621L156.888 138.838L156.888 138.838L157.095 138.621ZM157.685 149.902H157.385V150.597L157.89 150.121L157.685 149.902ZM163.292 144.622L163.092 144.399L163.086 144.404L163.292 144.622ZM164.603 143.896L164.683 144.186L164.695 144.182L164.603 143.896ZM167.686 144.391L167.491 144.62L167.495 144.623L167.686 144.391ZM168.571 145.81L168.861 145.889L168.871 145.85V145.81H168.571ZM168.079 146.701L167.839 146.522L167.837 146.525L168.079 146.701ZM167.063 147.79L166.861 147.568L166.857 147.572L167.063 147.79ZM163.357 151.289L163.151 151.07L162.957 151.254L163.117 151.468L163.357 151.289ZM148.061 146.207L147.855 146.425L147.857 146.426L148.061 146.207ZM148.16 159.869L148.371 160.082L148.372 160.08L148.16 159.869ZM134.224 159.803L134.007 160.01V160.01L134.224 159.803ZM134.355 146.174L134.151 145.954L134.149 145.955L134.355 146.174ZM144.52 156.965L144.735 157.174L144.738 157.171L144.52 156.965ZM144.52 149.243L144.302 149.449L144.302 149.449L144.52 149.243ZM137.864 149.243L137.646 149.036L137.643 149.039L137.864 149.243ZM137.864 156.965L137.643 157.168L137.648 157.174L137.864 156.965ZM127.686 146.207L127.48 146.425L127.482 146.426L127.686 146.207ZM113.98 146.174L113.776 145.954L113.774 145.955L113.98 146.174ZM113.849 159.803L113.632 160.01V160.01L113.849 159.803ZM127.785 159.869L127.996 160.082L127.998 160.08L127.785 159.869ZM124.145 156.965L124.36 157.174L124.363 157.171L124.145 156.965ZM117.489 156.965L117.268 157.168L117.273 157.174L117.489 156.965ZM117.489 149.243L117.271 149.036L117.268 149.039L117.489 149.243ZM124.145 149.243L124.363 149.036V149.036L124.145 149.243ZM76.7119 144.193L76.4855 144.39L76.4921 144.398L76.4991 144.405L76.7119 144.193ZM77.1054 145.15L77.3981 145.216L77.3988 145.213L77.1054 145.15ZM73.7608 160.001L74.053 160.069L74.0535 160.067L73.7608 160.001ZM72.6132 161.684L72.4526 161.43L72.4526 161.43L72.6132 161.684ZM68.7112 161.684L68.5548 161.94V161.94L68.7112 161.684ZM67.4652 160.001L67.7531 159.917L67.7529 159.916L67.4652 160.001ZM65.6618 153.896L65.9495 153.811L65.6643 152.845L65.3745 153.809L65.6618 153.896ZM63.8255 160.001L63.5382 159.914L63.5376 159.917L63.8255 160.001ZM58.6447 161.684L58.4841 161.937L58.4883 161.94L58.6447 161.684ZM57.5299 160.001L57.8239 159.941L57.8226 159.935L57.5299 160.001ZM54.1853 145.15L53.8919 145.213L53.8927 145.216L54.1853 145.15ZM54.546 144.193L54.3265 143.989L54.326 143.989L54.546 144.193ZM57.9889 144.193L57.8008 144.427L57.8072 144.432L57.8138 144.437L57.9889 144.193ZM58.7759 145.15L58.4825 145.213L58.4826 145.213L58.7759 145.15ZM60.7761 154.49L60.4827 154.553L61.0638 154.575L60.7761 154.49ZM63.2353 146.174L63.523 146.259L63.5232 146.258L63.2353 146.174ZM64.0878 144.193L63.8613 143.996L63.8544 144.005L64.0878 144.193ZM67.2029 144.226L66.964 144.408L66.97 144.416L66.9765 144.423L67.2029 144.226ZM68.0882 146.174L68.3762 146.089L68.3755 146.087L68.0882 146.174ZM70.5146 154.49L70.2266 154.574L70.808 154.553L70.5146 154.49ZM72.5148 145.15L72.2262 145.069L72.2235 145.078L72.2215 145.088L72.5148 145.15ZM73.3018 144.193L73.4825 144.433L73.4843 144.432L73.3018 144.193ZM49.7215 146.206L49.5154 146.424L49.5168 146.426L49.7215 146.206ZM36.0153 146.173L35.8107 145.954L35.8094 145.955L36.0153 146.173ZM35.8842 159.803L35.6674 160.01L35.8842 159.803ZM49.8198 159.869L50.0313 160.082L50.0327 160.08L49.8198 159.869ZM46.1802 156.965L46.3956 157.173L46.3981 157.171L46.1802 156.965ZM39.5239 156.965L39.3033 157.168L39.3084 157.173L39.5239 156.965ZM39.5239 149.242L39.3059 149.036L39.3034 149.039L39.5239 149.242ZM17.8007 164.39L17.5154 164.297L17.5136 164.303L17.8007 164.39ZM16.0956 167.591L16.3143 167.796L16.3198 167.79L16.0956 167.591ZM13.3085 169.406L13.4107 169.688H13.4107L13.3085 169.406ZM4.94709 169.043L5.12687 168.803L5.1228 168.8L4.94709 169.043ZM4.45525 165.512L4.26138 165.283L4.25182 165.291L4.45525 165.512ZM6.91448 165.215L6.84403 165.507L6.85036 165.508L6.91448 165.215ZM8.25886 165.446L8.22552 165.744L8.22726 165.744L8.25886 165.446ZM12.6527 164.456L12.8826 164.649L12.6527 164.456ZM13.538 160.331H13.838V159.748L13.3639 160.086L13.538 160.331ZM11.5378 161.189L11.4665 160.897L11.4646 160.898L11.5378 161.189ZM3.07807 159.242L2.86828 159.456L2.87139 159.459L3.07807 159.242ZM3.34039 146.239L3.12626 146.029L3.34039 146.239ZM15.9317 145.711L16.1256 145.483L15.9317 145.711ZM12.3576 155.744L12.1129 155.57L12.1123 155.571L12.3576 155.744ZM12.7511 148.912L12.5124 149.094L12.5154 149.098L12.7511 148.912ZM10.259 147.79L10.2818 147.491L10.2809 147.491L10.259 147.79ZM7.20959 148.813L7.00564 148.593L7.20959 148.813ZM5.63568 152.18L5.33888 152.136L5.33824 152.14L5.63568 152.18ZM6.29147 155.876L6.04047 156.04L6.0431 156.044L6.29147 155.876ZM32.2283 144.853L31.9673 145.001L31.9706 145.007L32.2283 144.853ZM24.3915 145.942L24.174 145.736L24.1724 145.737L24.3915 145.942ZM22.916 161.717L22.7219 161.946L22.7278 161.95L22.916 161.717ZM28.4902 148.285L28.6913 148.508L28.6944 148.505L28.4902 148.285ZM32.589 147.13L32.5854 147.43L32.8131 147.433L32.8769 147.214L32.589 147.13ZM87.9951 143.965C88.4554 143.965 88.824 143.993 89.1061 144.043C89.3947 144.095 89.5623 144.167 89.6477 144.233L90.015 143.758C89.8162 143.604 89.5358 143.511 89.2122 143.453C88.8822 143.393 88.4749 143.365 87.9951 143.365V143.965ZM84.6178 143.965H87.9951V143.365H84.6178V143.965ZM84.3177 139.617L84.3178 143.665L84.9178 143.665L84.9177 139.617L84.3177 139.617ZM83.8007 138.79C84.1856 139.116 84.3177 139.392 84.3177 139.617H84.9177C84.9177 139.138 84.6344 138.71 84.1886 138.332L83.8007 138.79ZM82.1912 138.3C82.9342 138.3 83.4526 138.477 83.7939 138.784L84.1954 138.338C83.7061 137.897 83.0222 137.7 82.1912 137.7V138.3ZM80.5172 138.789C80.8816 138.477 81.4252 138.3 82.1912 138.3V137.7C81.3397 137.7 80.6372 137.897 80.1272 138.333L80.5172 138.789ZM79.9992 139.617C79.9992 139.392 80.1313 139.116 80.5162 138.79L80.1283 138.332C79.6825 138.71 79.3992 139.138 79.3992 139.617H79.9992ZM79.9993 153.368L79.9992 139.617L79.3992 139.617L79.3993 153.368L79.9993 153.368ZM80.0645 155.497C80.0209 154.642 79.9993 153.933 79.9993 153.368H79.3993C79.3993 153.947 79.4214 154.667 79.4653 155.528L80.0645 155.497ZM80.6657 157.974C80.3268 157.142 80.1271 156.315 80.064 155.49L79.4658 155.536C79.5339 156.427 79.7495 157.315 80.1101 158.2L80.6657 157.974ZM83.3707 161.216C82.4562 160.775 81.5432 159.716 80.6559 157.952L80.1199 158.222C81.0252 160.022 82.014 161.228 83.1105 161.756L83.3707 161.216ZM86.2901 161.912C85.3115 161.912 84.3393 161.682 83.3707 161.216L83.1105 161.756C84.1531 162.258 85.2138 162.512 86.2901 162.512V161.912ZM89.6248 160.865C89.3168 161.361 88.7746 161.63 88.1366 161.77C87.4995 161.911 86.8189 161.912 86.2901 161.912V162.512C86.8106 162.512 87.5552 162.513 88.2658 162.356C88.9755 162.2 89.7035 161.875 90.1343 161.182L89.6248 160.865ZM89.8874 158.833C90.0793 159.471 89.9997 160.149 89.6139 160.885L90.1452 161.163C90.59 160.315 90.7072 159.475 90.4619 158.66L89.8874 158.833ZM89.814 159.08C89.9616 159.08 90.102 159.067 90.2339 159.041L90.1154 158.453C90.0287 158.47 89.9286 158.48 89.814 158.48V159.08ZM89.4861 159.08H89.814V158.48H89.4861V159.08ZM84.7687 157.282C85.163 158.195 85.9794 158.639 86.8505 158.856C87.7173 159.073 88.6931 159.08 89.4861 159.08V158.48C88.6833 158.48 87.7802 158.47 86.996 158.274C86.2162 158.079 85.6094 157.715 85.3195 157.044L84.7687 157.282ZM84.3513 155.501C84.3972 156.147 84.5352 156.741 84.7687 157.282L85.3195 157.044C85.1158 156.572 84.9914 156.045 84.9498 155.458L84.3513 155.501ZM84.3178 153.368C84.3178 154.14 84.3288 154.848 84.3508 155.49L84.9504 155.469C84.9287 154.835 84.9178 154.135 84.9178 153.368H84.3178ZM84.3178 147.527V153.368H84.9178V147.527H84.3178ZM87.5689 147.227H84.6178V147.827H87.5689V147.227ZM89.3031 146.447C88.8846 146.964 88.318 147.227 87.5689 147.227V147.827C88.4811 147.827 89.2261 147.495 89.7694 146.824L89.3031 146.447ZM89.9576 144.853C89.9576 145.361 89.7533 145.891 89.3031 146.447L89.7694 146.824C90.281 146.192 90.5576 145.534 90.5576 144.853H89.9576ZM89.6599 144.242C89.8563 144.378 89.9576 144.568 89.9576 144.853H90.5576C90.5576 144.391 90.3748 144.008 90.0029 143.749L89.6599 144.242ZM92.0164 139.644V160.628H92.6164V139.644H92.0164ZM92.6999 138.37C92.2837 138.766 92.0164 139.192 92.0164 139.644H92.6164C92.6164 139.436 92.7426 139.158 93.1133 138.805L92.6999 138.37ZM94.7429 137.727C93.8926 137.727 93.1965 137.923 92.7059 138.365L93.1074 138.811C93.4474 138.505 93.9755 138.327 94.7429 138.327V137.727ZM96.7858 138.37C96.3132 137.921 95.6108 137.727 94.7429 137.727V138.327C95.5363 138.327 96.058 138.506 96.3724 138.805L96.7858 138.37ZM97.4693 139.644C97.4693 139.192 97.202 138.766 96.7858 138.37L96.3724 138.805C96.7431 139.158 96.8693 139.436 96.8693 139.644H97.4693ZM97.4693 145.513V139.644H96.8693V145.513H97.4693ZM98.9718 143.99C98.1055 144.415 97.4303 144.849 96.962 145.296L97.3766 145.73C97.7827 145.342 98.3972 144.94 99.236 144.529L98.9718 143.99ZM102.547 143.332C101.1 143.332 99.9036 143.544 98.9745 143.989L99.2333 144.53C100.053 144.138 101.151 143.932 102.547 143.932V143.332ZM107.684 145.34C106.414 143.993 104.69 143.332 102.547 143.332V143.932C104.557 143.932 106.112 144.547 107.247 145.752L107.684 145.34ZM109.569 151.321C109.569 148.706 108.958 146.693 107.684 145.34L107.247 145.752C108.377 146.951 108.969 148.788 108.969 151.321H109.569ZM109.569 160.628V151.321H108.969V160.628H109.569ZM108.879 161.874C109.298 161.499 109.569 161.083 109.569 160.628H108.969C108.969 160.832 108.846 161.099 108.478 161.427L108.879 161.874ZM106.809 162.479C107.693 162.479 108.405 162.298 108.879 161.874L108.478 161.427C108.165 161.707 107.631 161.879 106.809 161.879V162.479ZM104.708 161.874C105.182 162.299 105.906 162.479 106.809 162.479V161.879C105.964 161.879 105.42 161.706 105.108 161.427L104.708 161.874ZM104.05 160.628C104.05 161.076 104.302 161.49 104.701 161.868L105.114 161.433C104.77 161.107 104.65 160.839 104.65 160.628H104.05ZM104.05 151.222V160.628H104.65V151.222H104.05ZM103.375 148.884C103.806 149.355 104.05 150.115 104.05 151.222H104.65C104.65 150.042 104.392 149.107 103.818 148.479L103.375 148.884ZM101.694 148.123C102.374 148.123 102.925 148.372 103.371 148.879L103.821 148.483C103.261 147.846 102.545 147.523 101.694 147.523V148.123ZM98.5581 149.553C99.2573 148.608 100.286 148.123 101.694 148.123V147.523C100.13 147.523 98.9068 148.073 98.0758 149.196L98.5581 149.553ZM97.4693 154.126C97.4693 152.018 97.8491 150.511 98.5581 149.553L98.0758 149.196C97.2546 150.306 96.8693 151.967 96.8693 154.126H97.4693ZM97.4693 160.628V154.126H96.8693V160.628H97.4693ZM96.7402 161.913C97.186 161.535 97.4693 161.107 97.4693 160.628H96.8693C96.8693 160.853 96.7373 161.129 96.3523 161.455L96.7402 161.913ZM94.7429 162.479C95.5661 162.479 96.2442 162.307 96.7329 161.919L96.3597 161.449C96.0177 161.72 95.4935 161.879 94.7429 161.879V162.479ZM92.72 161.919C93.2099 162.308 93.9001 162.479 94.7429 162.479V161.879C93.968 161.879 93.434 161.72 93.0933 161.449L92.72 161.919ZM92.0164 160.628C92.0164 161.1 92.2815 161.527 92.7066 161.907L93.1066 161.46C92.7448 161.136 92.6164 160.859 92.6164 160.628H92.0164ZM169.731 159.55C169.543 159.125 169.255 158.664 168.875 158.168L168.399 158.533C168.761 159.006 169.02 159.425 169.182 159.792L169.731 159.55ZM170.051 160.595C170.051 160.28 169.927 159.92 169.722 159.531L169.191 159.81C169.379 160.169 169.451 160.425 169.451 160.595H170.051ZM169.079 162.044C169.688 161.701 170.051 161.22 170.051 160.595H169.451C169.451 160.938 169.269 161.248 168.784 161.521L169.079 162.044ZM166.964 162.545C167.77 162.545 168.479 162.383 169.079 162.044L168.784 161.521C168.292 161.799 167.689 161.945 166.964 161.945V162.545ZM165.452 162.15C165.966 162.408 166.471 162.545 166.964 162.545V161.945C166.584 161.945 166.171 161.84 165.722 161.614L165.452 162.15ZM164.176 161.083C164.527 161.508 164.948 161.861 165.438 162.142L165.737 161.622C165.308 161.375 164.942 161.068 164.638 160.7L164.176 161.083ZM159.542 154.833L164.166 161.07L164.648 160.713L160.024 154.476L159.542 154.833ZM157.889 156.822L159.987 154.875L159.579 154.435L157.481 156.382L157.889 156.822ZM157.985 160.628V156.602H157.385V160.628H157.985ZM157.256 161.913C157.701 161.535 157.985 161.107 157.985 160.628H157.385C157.385 160.853 157.253 161.129 156.868 161.455L157.256 161.913ZM155.226 162.512C156.072 162.512 156.765 162.328 157.256 161.913L156.868 161.455C156.528 161.743 155.997 161.912 155.226 161.912V162.512ZM153.261 161.913C153.749 162.326 154.418 162.512 155.226 162.512V161.912C154.503 161.912 153.992 161.745 153.649 161.455L153.261 161.913ZM152.532 160.628C152.532 161.107 152.815 161.535 153.261 161.913L153.649 161.455C153.264 161.129 153.132 160.853 153.132 160.628H152.532ZM152.532 139.677V160.628H153.132V139.677H152.532ZM153.254 138.398C152.817 138.791 152.532 139.218 152.532 139.677H153.132C153.132 139.475 153.262 139.199 153.656 138.844L153.254 138.398ZM155.226 137.76C154.414 137.76 153.742 137.959 153.254 138.398L153.656 138.844C153.998 138.535 154.507 138.36 155.226 138.36V137.76ZM157.301 138.403C156.828 137.953 156.113 137.76 155.226 137.76V138.36C156.043 138.36 156.575 138.541 156.888 138.838L157.301 138.403ZM157.985 139.677C157.985 139.225 157.717 138.799 157.301 138.403L156.888 138.838C157.259 139.191 157.385 139.469 157.385 139.677H157.985ZM157.985 149.902V139.677H157.385V149.902H157.985ZM163.086 144.404L157.479 149.684L157.89 150.121L163.498 144.841L163.086 144.404ZM164.524 143.607C163.996 143.752 163.518 144.018 163.092 144.399L163.492 144.846C163.853 144.523 164.249 144.305 164.683 144.186L164.524 143.607ZM165.882 143.365C165.471 143.365 165.013 143.45 164.512 143.611L164.695 144.182C165.156 144.034 165.551 143.965 165.882 143.965V143.365ZM167.88 144.163C167.268 143.641 166.6 143.365 165.882 143.365V143.965C166.433 143.965 166.967 144.173 167.491 144.62L167.88 144.163ZM168.871 145.81C168.871 145.214 168.491 144.664 167.876 144.159L167.495 144.623C168.061 145.087 168.271 145.483 168.271 145.81H168.871ZM168.32 146.881C168.59 146.518 168.78 146.185 168.861 145.889L168.281 145.732C168.23 145.92 168.093 146.181 167.839 146.522L168.32 146.881ZM167.264 148.013C167.71 147.609 168.065 147.23 168.322 146.878L167.837 146.525C167.612 146.833 167.289 147.18 166.861 147.568L167.264 148.013ZM163.563 151.507L167.269 148.009L166.857 147.572L163.151 151.07L163.563 151.507ZM168.877 158.171L163.598 151.109L163.117 151.468L168.396 158.53L168.877 158.171ZM148.267 145.988C146.412 144.235 144.039 143.365 141.175 143.365V143.965C143.908 143.965 146.126 144.79 147.855 146.425L148.267 145.988ZM151.05 153.104C151.05 150.112 150.131 147.727 148.266 145.987L147.857 146.426C149.577 148.03 150.45 150.243 150.45 153.104H151.05ZM148.372 160.08C150.163 158.278 151.05 155.944 151.05 153.104H150.45C150.45 155.808 149.61 157.983 147.947 159.657L148.372 160.08ZM141.175 162.743C144.167 162.743 146.577 161.865 148.371 160.082L147.948 159.656C146.289 161.305 144.043 162.143 141.175 162.143V162.743ZM134.007 160.01C135.759 161.842 138.161 162.743 141.175 162.743V162.143C138.288 162.143 136.056 161.284 134.441 159.596L134.007 160.01ZM131.399 153.104C131.399 155.878 132.264 158.188 134.007 160.01L134.441 159.596C132.817 157.898 131.999 155.742 131.999 153.104H131.399ZM134.149 145.955C132.306 147.696 131.399 150.092 131.399 153.104H131.999C131.999 150.219 132.863 147.995 134.561 146.392L134.149 145.955ZM141.175 143.365C138.355 143.365 136.006 144.224 134.151 145.954L134.56 146.393C136.29 144.779 138.487 143.965 141.175 143.965V143.365ZM144.305 156.756C143.491 157.595 142.457 158.018 141.175 158.018V158.618C142.605 158.618 143.8 158.139 144.735 157.174L144.305 156.756ZM145.532 153.104C145.532 154.701 145.11 155.905 144.302 156.759L144.738 157.171C145.679 156.176 146.132 154.807 146.132 153.104H145.532ZM144.302 149.449C145.11 150.302 145.532 151.507 145.532 153.104H146.132C146.132 151.401 145.679 150.031 144.738 149.036L144.302 149.449ZM141.175 148.157C142.454 148.157 143.488 148.589 144.302 149.449L144.738 149.036C143.803 148.048 142.607 147.557 141.175 147.557V148.157ZM138.082 149.449C138.896 148.588 139.92 148.157 141.175 148.157V147.557C139.764 147.557 138.58 148.049 137.646 149.036L138.082 149.449ZM136.885 153.104C136.885 151.505 137.297 150.299 138.084 149.446L137.643 149.039C136.725 150.034 136.285 151.402 136.285 153.104H136.885ZM138.084 156.761C137.297 155.908 136.885 154.703 136.885 153.104H136.285C136.285 154.805 136.725 156.173 137.643 157.168L138.084 156.761ZM141.175 158.018C139.918 158.018 138.893 157.596 138.079 156.756L137.648 157.174C138.583 158.138 139.766 158.618 141.175 158.618V158.018ZM120.8 143.965C123.533 143.965 125.751 144.79 127.48 146.425L127.892 145.988C126.037 144.235 123.664 143.365 120.8 143.365V143.965ZM114.185 146.393C115.915 144.779 118.112 143.965 120.8 143.965V143.365C117.98 143.365 115.631 144.224 113.776 145.954L114.185 146.393ZM111.624 153.104C111.624 150.219 112.488 147.995 114.186 146.392L113.774 145.955C111.931 147.696 111.024 150.092 111.024 153.104H111.624ZM114.066 159.596C112.442 157.898 111.624 155.742 111.624 153.104H111.024C111.024 155.878 111.889 158.188 113.632 160.01L114.066 159.596ZM120.8 162.143C117.913 162.143 115.681 161.284 114.066 159.596L113.632 160.01C115.384 161.842 117.786 162.743 120.8 162.743V162.143ZM127.573 159.656C125.914 161.305 123.668 162.143 120.8 162.143V162.743C123.792 162.743 126.202 161.865 127.996 160.082L127.573 159.656ZM130.075 153.104C130.075 155.808 129.235 157.983 127.572 159.657L127.998 160.08C129.788 158.278 130.675 155.944 130.675 153.104H130.075ZM127.482 146.426C129.202 148.03 130.075 150.243 130.075 153.104H130.675C130.675 150.112 129.756 147.727 127.891 145.987L127.482 146.426ZM120.8 158.618C122.23 158.618 123.425 158.139 124.36 157.174L123.93 156.756C123.116 157.595 122.082 158.018 120.8 158.018V158.618ZM117.273 157.174C118.208 158.138 119.391 158.618 120.8 158.618V158.018C119.543 158.018 118.518 157.596 117.704 156.756L117.273 157.174ZM115.91 153.104C115.91 154.805 116.35 156.173 117.268 157.168L117.709 156.761C116.922 155.908 116.51 154.703 116.51 153.104H115.91ZM117.268 149.039C116.35 150.034 115.91 151.402 115.91 153.104H116.51C116.51 151.505 116.922 150.299 117.709 149.446L117.268 149.039ZM120.8 147.557C119.389 147.557 118.205 148.049 117.271 149.036L117.707 149.449C118.521 148.588 119.545 148.157 120.8 148.157V147.557ZM124.363 149.036C123.428 148.048 122.232 147.557 120.8 147.557V148.157C122.079 148.157 123.113 148.589 123.927 149.449L124.363 149.036ZM125.757 153.104C125.757 151.401 125.304 150.031 124.363 149.036L123.927 149.449C124.735 150.302 125.157 151.507 125.157 153.104H125.757ZM124.363 157.171C125.304 156.176 125.757 154.807 125.757 153.104H125.157C125.157 154.701 124.735 155.905 123.927 156.759L124.363 157.171ZM76.9383 143.997C76.5488 143.549 75.9173 143.365 75.138 143.365V143.965C75.8452 143.965 76.2629 144.134 76.4855 144.39L76.9383 143.997ZM77.3988 145.213C77.4944 144.764 77.2876 144.347 76.9247 143.982L76.4991 144.405C76.792 144.7 76.8476 144.921 76.812 145.088L77.3988 145.213ZM74.0535 160.067L77.3981 145.216L76.8127 145.085L73.4682 159.935L74.0535 160.067ZM72.7738 161.937C73.4373 161.517 73.8621 160.885 74.0529 160.069L73.4687 159.933C73.3098 160.612 72.9695 161.103 72.4526 161.43L72.7738 161.937ZM70.6786 162.545C71.4349 162.545 72.1355 162.342 72.7738 161.937L72.4526 161.43C71.9105 161.774 71.3213 161.945 70.6786 161.945V162.545ZM68.5548 161.94C69.2127 162.342 69.9224 162.545 70.6786 162.545V161.945C70.0357 161.945 69.4339 161.774 68.8676 161.428L68.5548 161.94ZM67.1772 160.085C67.4148 160.898 67.8733 161.523 68.5548 161.94L68.8676 161.428C68.325 161.096 67.9528 160.6 67.7531 159.917L67.1772 160.085ZM65.374 153.981L67.1775 160.086L67.7529 159.916L65.9495 153.811L65.374 153.981ZM64.1128 160.087L65.949 153.982L65.3745 153.809L63.5382 159.914L64.1128 160.087ZM62.7359 161.94C63.4174 161.523 63.8759 160.898 64.1135 160.085L63.5376 159.917C63.3379 160.6 62.9657 161.096 62.4231 161.428L62.7359 161.94ZM60.6121 162.545C61.3683 162.545 62.078 162.342 62.7359 161.94L62.4231 161.428C61.8569 161.774 61.255 161.945 60.6121 161.945V162.545ZM58.4883 161.94C59.1462 162.342 59.856 162.545 60.6121 162.545V161.945C59.9693 161.945 59.3674 161.774 58.8012 161.428L58.4883 161.94ZM57.236 160.061C57.4037 160.881 57.8183 161.515 58.4842 161.937L58.8053 161.43C58.2907 161.104 57.9622 160.617 57.8238 159.941L57.236 160.061ZM53.8927 145.216L57.2372 160.067L57.8226 159.935L54.478 145.085L53.8927 145.216ZM54.326 143.989C53.9841 144.358 53.7982 144.773 53.8919 145.213L54.4788 145.088C54.4413 144.912 54.4959 144.689 54.766 144.397L54.326 143.989ZM56.1527 143.365C55.371 143.365 54.7358 143.55 54.3265 143.989L54.7655 144.398C55.012 144.133 55.4479 143.965 56.1527 143.965V143.365ZM58.1771 143.96C57.6687 143.55 56.981 143.365 56.1527 143.365V143.965C56.8983 143.965 57.4347 144.132 57.8008 144.427L58.1771 143.96ZM59.0693 145.088C58.9798 144.668 58.6402 144.292 58.1641 143.95L57.8138 144.437C58.2558 144.755 58.4408 145.017 58.4825 145.213L59.0693 145.088ZM61.0694 154.427L59.0692 145.088L58.4826 145.213L60.4827 154.553L61.0694 154.427ZM62.9476 146.088L60.4884 154.405L61.0638 154.575L63.523 146.259L62.9476 146.088ZM63.8544 144.005C63.5297 144.407 63.2324 145.118 62.9475 146.089L63.5232 146.258C63.8066 145.293 64.0776 144.684 64.3213 144.382L63.8544 144.005ZM65.5962 143.365C64.8537 143.365 64.248 143.552 63.8614 143.997L64.3142 144.39C64.5397 144.131 64.9397 143.965 65.5962 143.965V143.365ZM67.4417 144.045C67.0715 143.558 66.4144 143.365 65.5962 143.365V143.965C66.3518 143.965 66.7659 144.147 66.964 144.408L67.4417 144.045ZM68.3755 146.087C68.0898 145.136 67.7802 144.433 67.4293 144.03L66.9765 144.423C67.2376 144.724 67.5183 145.319 67.8009 146.26L68.3755 146.087ZM70.8026 154.406L68.3762 146.089L67.8002 146.258L70.2266 154.574L70.8026 154.406ZM72.2215 145.088L70.2213 154.427L70.808 154.553L72.8082 145.213L72.2215 145.088ZM73.121 143.954C72.6651 144.298 72.3403 144.667 72.2262 145.069L72.8034 145.232C72.8642 145.018 73.0641 144.749 73.4825 144.433L73.121 143.954ZM75.138 143.365C74.3282 143.365 73.6453 143.552 73.1192 143.955L73.4843 144.432C73.8763 144.131 74.4176 143.965 75.138 143.965V143.365ZM42.8356 143.965C45.5682 143.965 47.7862 144.79 49.5154 146.424L49.9275 145.988C48.0717 144.234 45.6992 143.365 42.8356 143.365V143.965ZM36.22 146.393C37.9499 144.779 40.1471 143.965 42.8356 143.965V143.365C40.0155 143.365 37.6658 144.224 35.8107 145.954L36.22 146.393ZM33.6594 153.104C33.6594 150.219 34.5231 147.995 36.2213 146.391L35.8094 145.955C33.9663 147.696 33.0594 150.092 33.0594 153.104H33.6594ZM36.101 159.595C34.4773 157.898 33.6594 155.742 33.6594 153.104H33.0594C33.0594 155.878 33.9247 158.188 35.6674 160.01L36.101 159.595ZM42.8356 162.143C39.9478 162.143 37.7159 161.284 36.101 159.595L35.6674 160.01C37.4189 161.842 39.8213 162.743 42.8356 162.743V162.143ZM49.6084 159.656C47.9488 161.305 45.7028 162.143 42.8356 162.143V162.743C45.8269 162.743 48.237 161.864 50.0313 160.082L49.6084 159.656ZM52.1102 153.104C52.1102 155.808 51.2706 157.983 49.607 159.657L50.0327 160.08C51.8229 158.278 52.7102 155.944 52.7102 153.104H52.1102ZM49.5168 146.426C51.2368 148.03 52.1102 150.243 52.1102 153.104H52.7102C52.7102 150.112 51.7911 147.727 49.9261 145.987L49.5168 146.426ZM42.8356 158.618C44.265 158.618 45.4599 158.139 46.3956 157.173L45.9648 156.756C45.1516 157.595 44.1169 158.018 42.8356 158.018V158.618ZM39.3084 157.173C40.2431 158.138 41.4265 158.618 42.8356 158.618V158.018C41.5778 158.018 40.5534 157.596 39.7393 156.756L39.3084 157.173ZM37.9451 153.104C37.9451 154.805 38.3854 156.173 39.3034 157.168L39.7443 156.761C38.9573 155.908 38.5451 154.702 38.5451 153.104H37.9451ZM39.3034 149.039C38.3854 150.034 37.9451 151.402 37.9451 153.104H38.5451C38.5451 151.505 38.9573 150.299 39.7443 149.446L39.3034 149.039ZM42.8356 147.556C41.4242 147.556 40.24 148.049 39.306 149.036L39.7418 149.449C40.5565 148.588 41.5801 148.156 42.8356 148.156V147.556ZM46.3981 149.036C45.463 148.048 44.2673 147.556 42.8356 147.556V148.156C44.1145 148.156 45.1486 148.589 45.9623 149.449L46.3981 149.036ZM47.7918 153.104C47.7918 151.4 47.3394 150.031 46.3981 149.036L45.9623 149.449C46.7697 150.302 47.1918 151.507 47.1918 153.104H47.7918ZM46.3981 157.171C47.3394 156.176 47.7918 154.807 47.7918 153.104H47.1918C47.1918 154.7 46.7697 155.905 45.9623 156.758L46.3981 157.171ZM18.7237 159.836V151.883H18.1237V159.836H18.7237ZM18.086 164.483C18.5136 163.169 18.7237 161.618 18.7237 159.836H18.1237C18.1237 161.573 17.9185 163.059 17.5154 164.297L18.086 164.483ZM16.3198 167.79C17.0974 166.916 17.6843 165.808 18.0878 164.477L17.5136 164.303C17.1301 165.568 16.5803 166.594 15.8714 167.392L16.3198 167.79ZM13.4107 169.688C14.5461 169.277 15.5155 168.646 16.3142 167.796L15.877 167.385C15.1455 168.164 14.2569 168.743 13.2063 169.124L13.4107 169.688ZM9.57045 170.3C10.9974 170.3 12.279 170.098 13.4107 169.688L13.2063 169.124C12.152 169.506 10.9415 169.7 9.57045 169.7V170.3ZM4.76734 169.283C5.70425 169.984 7.33388 170.3 9.57045 170.3V169.7C7.34761 169.7 5.895 169.378 5.12684 168.803L4.76734 169.283ZM3.36829 167.096C3.36829 167.918 3.88445 168.645 4.77139 169.286L5.1228 168.8C4.30466 168.209 3.96829 167.638 3.96829 167.096H3.36829ZM4.25182 165.291C3.68196 165.817 3.36829 166.42 3.36829 167.096H3.96829C3.96829 166.628 4.17926 166.175 4.65867 165.732L4.25182 165.291ZM6.98492 164.923C5.85318 164.65 4.91521 164.73 4.26156 165.283L4.64893 165.741C5.08828 165.37 5.78979 165.252 6.84404 165.506L6.98492 164.923ZM8.2922 165.148C7.91159 165.105 7.47404 165.03 6.9786 164.922L6.85036 165.508C7.36047 165.62 7.81918 165.699 8.22552 165.744L8.2922 165.148ZM9.63603 165.212C9.14177 165.212 8.69345 165.19 8.29047 165.148L8.22726 165.744C8.65495 165.79 9.12474 165.812 9.63603 165.812V165.212ZM12.4228 164.263C11.9148 164.869 11.0169 165.212 9.63603 165.212V165.812C11.097 165.812 12.2101 165.451 12.8826 164.649L12.4228 164.263ZM13.238 160.958C13.238 162.564 12.944 163.641 12.4228 164.263L12.8826 164.649C13.5418 163.862 13.838 162.607 13.838 160.958H13.238ZM13.238 160.331V160.958H13.838V160.331H13.238ZM11.6092 161.48C12.4446 161.276 13.149 160.977 13.7122 160.575L13.3639 160.086C12.8778 160.433 12.2487 160.706 11.4665 160.897L11.6092 161.48ZM8.84908 161.786C9.87369 161.786 10.7953 161.685 11.611 161.48L11.4646 160.898C10.7065 161.089 9.83557 161.186 8.84908 161.186V161.786ZM2.87139 159.459C4.50389 161.011 6.50271 161.786 8.84908 161.786V161.186C6.64859 161.186 4.80008 160.465 3.28476 159.024L2.87139 159.459ZM0.45 152.84C0.45 155.648 1.24411 157.868 2.86831 159.456L3.28784 159.027C1.80794 157.58 1.05 155.532 1.05 152.84H0.45ZM3.12626 146.029C1.34015 147.85 0.45 150.127 0.45 152.84H1.05C1.05 150.272 1.88678 148.149 3.55453 146.449L3.12626 146.029ZM10.0623 143.299C7.23775 143.299 4.91645 144.205 3.12626 146.029L3.55453 146.449C5.21819 144.754 7.37817 143.899 10.0623 143.899V143.299ZM16.1256 145.483C14.4081 144.027 12.3823 143.299 10.0623 143.299V143.899C12.2455 143.899 14.1325 144.58 15.7377 145.94L16.1256 145.483ZM18.7237 151.883C18.7237 149.112 17.8702 146.961 16.1256 145.483L15.7377 145.94C17.3159 147.278 18.1237 149.241 18.1237 151.883H18.7237ZM12.1123 155.571C11.4251 156.547 10.5001 157.028 9.30813 157.028V157.628C10.6956 157.628 11.8036 157.052 12.6029 155.916L12.1123 155.571ZM13.2052 151.85C13.2052 153.315 12.8369 154.55 12.1129 155.57L12.6022 155.917C13.4085 154.781 13.8052 153.42 13.8052 151.85H13.2052ZM12.5154 149.098C12.9575 149.659 13.2052 150.558 13.2052 151.85H13.8052C13.8052 150.501 13.5502 149.442 12.9867 148.727L12.5154 149.098ZM10.2363 148.09C11.3448 148.174 12.0797 148.526 12.5124 149.094L12.9897 148.731C12.4168 147.979 11.4904 147.583 10.2818 147.491L10.2363 148.09ZM7.41354 149.033C8.17891 148.324 9.11187 148.007 10.2371 148.09L10.2809 147.491C9.00162 147.398 7.90162 147.763 7.00564 148.593L7.41354 149.033ZM5.93243 152.224C6.1442 150.796 6.64678 149.744 7.41354 149.033L7.00564 148.593C6.11104 149.423 5.56436 150.615 5.33892 152.136L5.93243 152.224ZM6.54245 155.711C5.95853 154.82 5.74284 153.666 5.93312 152.219L5.33824 152.14C5.13504 153.686 5.35655 154.996 6.0405 156.04L6.54245 155.711ZM9.30813 157.028C8.034 157.028 7.13027 156.579 6.53984 155.707L6.0431 156.044C6.76427 157.108 7.87164 157.628 9.30813 157.628V157.028ZM29.4411 143.998C30.8232 143.998 31.6106 144.373 31.9674 145.001L32.4892 144.705C31.9716 143.794 30.9008 143.398 29.4411 143.398V143.998ZM24.609 146.149C25.9771 144.708 27.5833 143.998 29.4411 143.998V143.398C27.408 143.398 25.6477 144.184 24.174 145.736L24.609 146.149ZM22.593 152.245C22.593 149.59 23.2785 147.572 24.6106 146.147L24.1724 145.737C22.7065 147.305 21.993 149.488 21.993 152.245H22.593ZM22.593 160.661V152.245H21.993V160.661H22.593ZM23.1099 161.488C22.725 161.162 22.593 160.886 22.593 160.661H21.993C21.993 161.14 22.2763 161.568 22.722 161.946L23.1099 161.488ZM24.7522 161.945C24.0066 161.945 23.4702 161.778 23.1041 161.483L22.7278 161.95C23.2362 162.36 23.9239 162.545 24.7522 162.545V161.945ZM26.3945 161.488C26.0543 161.776 25.5234 161.945 24.7522 161.945V162.545C25.5986 162.545 26.2919 162.361 26.7824 161.946L26.3945 161.488ZM26.9114 160.661C26.9114 160.886 26.7794 161.162 26.3945 161.488L26.7824 161.946C27.2281 161.568 27.5114 161.14 27.5114 160.661H26.9114ZM26.9114 153.268V160.661H27.5114V153.268H26.9114ZM28.2892 148.063C27.8026 148.502 27.4616 149.173 27.2406 150.034C27.0189 150.898 26.9114 151.978 26.9114 153.268H27.5114C27.5114 152.007 27.6171 150.981 27.8217 150.183C28.027 149.383 28.3254 148.838 28.6913 148.508L28.2892 148.063ZM32.5925 146.83C30.6806 146.808 29.221 147.197 28.2861 148.066L28.6944 148.505C29.4645 147.79 30.7374 147.409 32.5854 147.43L32.5925 146.83ZM31.9706 145.007C32.394 145.717 32.4926 146.39 32.301 147.046L32.8769 147.214C33.1225 146.374 32.9807 145.529 32.486 144.7L31.9706 145.007Z" fill="#1D1F29" mask="url(#path-1-inside-1_4890_87787)"/>
<path d="M25.3914 85.2157C25.3914 53.079 51.4787 27.0266 83.6159 27.0266C115.032 27.0266 140.534 52.4944 140.534 83.9098V115.542C140.534 120.167 136.785 123.916 132.161 123.916H33.7646C29.1402 123.916 25.3914 120.167 25.3914 115.542V85.2157Z" fill="#36394F" stroke="url(#paint0_linear_4890_87787)" stroke-width="0.696767"/>
<path d="M82.8882 34.5275C41.0047 34.5275 26.8733 69.9476 25.043 84.9489C25.043 52.7669 51.6504 26.6782 83.8324 26.6782C115.062 26.6782 140.882 51.9949 140.882 83.2246V84.9489C139.002 69.9476 124.772 34.5275 82.8882 34.5275Z" fill="url(#paint1_linear_4890_87787)"/>
<path d="M48.9141 116.19C48.9141 96.9975 64.473 81.4386 83.6658 81.4386C102.859 81.4386 118.418 96.9975 118.418 116.19V124.966H48.9141V116.19Z" fill="url(#paint2_linear_4890_87787)"/>
<path d="M46.3402 116.19C46.3402 95.5768 63.0508 78.8662 83.6644 78.8662C104.278 78.8662 120.989 95.5768 120.989 116.19V123.326H46.3402V116.19Z" stroke="url(#paint3_linear_4890_87787)" stroke-width="1.87577"/>
<path d="M46.1055 126L119.119 126" stroke="#1D1F29" stroke-width="3.48384"/>
<mask id="path-8-inside-2_4890_87787" fill="white">
<path fill-rule="evenodd" clip-rule="evenodd" d="M122.817 28.5147C118.882 25.1963 118.169 16.7062 123.109 10.1307C127.716 3.99727 142.001 -1.70257 144.906 0.472312C147.811 2.64719 145.662 18.8229 141.72 24.0707C136.823 30.5892 128.446 31.4741 124.165 29.3848C124.686 28.4514 126.475 25.4268 131.031 19.0703C133.808 15.1959 136.534 11.9527 138.59 9.65595C138.67 9.56664 138.493 9.39024 138.409 9.47524C133.888 14.0234 127.795 20.8797 122.817 28.5147Z"/>
</mask>
<path fill-rule="evenodd" clip-rule="evenodd" d="M122.817 28.5147C118.882 25.1963 118.169 16.7062 123.109 10.1307C127.716 3.99727 142.001 -1.70257 144.906 0.472312C147.811 2.64719 145.662 18.8229 141.72 24.0707C136.823 30.5892 128.446 31.4741 124.165 29.3848C124.686 28.4514 126.475 25.4268 131.031 19.0703C133.808 15.1959 136.534 11.9527 138.59 9.65595C138.67 9.56664 138.493 9.39024 138.409 9.47524C133.888 14.0234 127.795 20.8797 122.817 28.5147Z" fill="#23B877"/>
<path d="M123.109 10.1307L122.816 9.91085L123.109 10.1307ZM122.817 28.5147L122.581 28.7945L122.897 29.0614L123.124 28.7146L122.817 28.5147ZM144.906 0.472312L145.125 0.179301L144.906 0.472312ZM141.72 24.0707L141.427 23.8509L141.72 24.0707ZM124.165 29.3848L123.845 29.2062L123.656 29.544L124.004 29.7138L124.165 29.3848ZM131.031 19.0703L131.328 19.2835L131.031 19.0703ZM138.59 9.65595L138.862 9.90003L138.59 9.65595ZM138.409 9.47524L138.149 9.2172L138.409 9.47524ZM122.816 9.91085C120.296 13.2656 119.215 17.1119 119.269 20.5498C119.322 23.978 120.508 27.0464 122.581 28.7945L123.053 28.2349C121.191 26.6646 120.052 23.8287 120.001 20.5384C119.949 17.2577 120.982 13.5712 123.401 10.3505L122.816 9.91085ZM145.125 0.179301C144.679 -0.154674 144.055 -0.311902 143.346 -0.354056C142.63 -0.396649 141.785 -0.324148 140.858 -0.158954C139.004 0.171616 136.775 0.881972 134.503 1.8491C129.972 3.77747 125.178 6.76704 122.816 9.91085L123.401 10.3505C125.647 7.36093 130.299 4.43386 134.789 2.52268C137.027 1.57003 139.202 0.879875 140.987 0.561741C141.88 0.402582 142.663 0.338682 143.303 0.376706C143.949 0.41517 144.407 0.555577 144.687 0.765322L145.125 0.179301ZM142.012 24.2906C143.035 22.929 143.924 20.8873 144.639 18.5839C145.356 16.2736 145.908 13.6714 146.243 11.1678C146.579 8.66608 146.701 6.24913 146.553 4.31125C146.479 3.34302 146.337 2.48147 146.114 1.78387C145.893 1.09502 145.578 0.51834 145.125 0.179301L144.687 0.765322C144.96 0.970004 145.214 1.37457 145.416 2.00712C145.616 2.63092 145.752 3.43091 145.823 4.367C145.966 6.23776 145.849 8.60051 145.518 11.0705C145.187 13.5387 144.643 16.1004 143.94 18.3669C143.234 20.6403 142.375 22.5885 141.427 23.8509L142.012 24.2906ZM124.004 29.7138C126.237 30.8033 129.491 31.1018 132.796 30.3117C136.11 29.5195 139.507 27.6261 142.012 24.2906L141.427 23.8509C139.036 27.0338 135.795 28.8422 132.626 29.5997C129.449 30.3593 126.374 30.0557 124.325 29.0559L124.004 29.7138ZM124.484 29.5635C124.997 28.6458 126.777 25.6331 131.328 19.2835L130.733 18.857C126.172 25.2205 124.376 28.2571 123.845 29.2062L124.484 29.5635ZM131.328 19.2835C134.096 15.4222 136.814 12.1894 138.862 9.90003L138.317 9.41187C136.255 11.7159 133.52 14.9695 130.733 18.857L131.328 19.2835ZM138.862 9.90003C138.98 9.76902 138.991 9.60993 138.963 9.49307C138.937 9.38521 138.878 9.29993 138.819 9.24123C138.761 9.18298 138.674 9.12216 138.562 9.09758C138.438 9.07026 138.275 9.09013 138.149 9.2172L138.668 9.73327C138.584 9.81784 138.475 9.82789 138.405 9.81253C138.348 9.79991 138.316 9.77285 138.302 9.75923C138.288 9.74517 138.263 9.71542 138.251 9.6631C138.236 9.60178 138.24 9.49822 138.317 9.41187L138.862 9.90003ZM138.149 9.2172C133.617 13.7767 127.506 20.6524 122.51 28.3148L123.124 28.7146C128.084 21.1069 134.159 14.2701 138.668 9.73327L138.149 9.2172Z" fill="#23B877" mask="url(#path-8-inside-2_4890_87787)"/>
<defs>
<linearGradient id="paint0_linear_4890_87787" x1="82.9626" y1="26.6782" x2="82.9626" y2="124.264" gradientUnits="userSpaceOnUse">
<stop stop-color="#36394F"/>
<stop offset="0.853351" stop-color="#36394F" stop-opacity="0"/>
<stop offset="1" stop-color="#16171F"/>
</linearGradient>
<linearGradient id="paint1_linear_4890_87787" x1="82.9626" y1="26.6782" x2="60.5575" y2="67.6409" gradientUnits="userSpaceOnUse">
<stop stop-color="#565A78"/>
<stop offset="1" stop-color="#565A78" stop-opacity="0"/>
</linearGradient>
<linearGradient id="paint2_linear_4890_87787" x1="83.6654" y1="81.4386" x2="83.3257" y2="124.963" gradientUnits="userSpaceOnUse">
<stop stop-color="#13151D"/>
<stop offset="0.661458" stop-color="#1E202C"/>
<stop offset="1"/>
</linearGradient>
<linearGradient id="paint3_linear_4890_87787" x1="97.2615" y1="77.9283" x2="88.9568" y2="113.396" gradientUnits="userSpaceOnUse">
<stop stop-color="#9197C6"/>
<stop offset="1" stop-color="#575B75" stop-opacity="0"/>
</linearGradient>
</defs>
</svg>
